<svg width="104" height="104" viewBox="0 0 104 104" fill="none" xmlns="http://www.w3.org/2000/svg">
<g clip-path="url(#clip0_2575_30513)">
<path d="M51.9996 103.812C80.6147 103.812 103.812 80.6151 103.812 52.0001C103.812 23.3851 80.6147 0.187988 51.9996 0.187988C23.3846 0.187988 0.1875 23.3851 0.1875 52.0001C0.1875 80.6151 23.3846 103.812 51.9996 103.812Z" fill="url(#paint0_linear_2575_30513)"/>
<path d="M61.1193 47.0548L64.5938 50.1392L76.4766 40.177V23.9849L72.8295 26.6255C72.2099 27.0757 71.5911 27.527 70.9729 27.9793C70.3161 28.4594 69.6583 28.9384 68.9995 29.4164L68.5547 29.7455C65.2539 32.1464 61.5123 34.8673 58.0612 37.8583C57.8906 38.0066 57.72 38.1508 57.5534 38.295C56.29 39.3665 54.858 40.5792 54.0434 42.5606C53.1873 44.6386 53.1294 46.9796 53.8982 48.9845C54.9798 51.8191 57.264 53.5345 59.281 55.0467C59.7147 55.3728 60.124 55.6805 60.5109 55.9902C63.0927 58.0581 65.7282 60.1401 68.2774 62.1531L71.2725 64.5215V69.9846L53.3457 55.8674L53.3599 61.5965L75.8611 79.5131V62.2963L74.9907 61.6067C73.7009 60.5836 72.4103 59.5629 71.1191 58.5446C68.5801 56.5367 65.9466 54.4597 63.378 52.401C62.9352 52.0456 62.4772 51.7023 62.0344 51.3692C60.3687 50.1189 58.7955 48.9378 58.1882 47.3442C57.8368 46.4221 57.8723 45.313 58.2898 44.3075C58.6787 43.362 59.4923 42.6734 60.5241 41.801C60.708 41.6456 60.8918 41.4902 61.0746 41.3307C64.3774 38.4687 68.0347 35.8088 71.2613 33.4617L71.7062 33.1387L71.8859 33.0077V38.033L61.1193 47.0548Z" fill="white"/>
<path d="M50.8338 47.9618L50.8196 42.2326L28.3123 24.314V41.5308L29.1827 42.2204C30.4726 43.2428 31.7631 44.2635 33.0543 45.2826C35.5934 47.2904 38.2269 49.3684 40.7954 51.4261C41.2382 51.7815 41.6963 52.1248 42.1391 52.458C43.8047 53.7082 45.3779 54.8894 45.9852 56.4829C46.3366 57.4051 46.3011 58.5141 45.8837 59.5196C45.4947 60.4651 44.6812 61.1537 43.6493 62.0261C43.4655 62.1815 43.2816 62.3369 43.0988 62.4964C39.796 65.3584 36.1388 68.0183 32.9121 70.3655L32.4723 70.6874L32.2977 70.8194V65.7941L43.0633 56.7723L39.5898 53.6879L27.707 63.6501V79.8422L31.3541 77.2016C31.9737 76.7514 32.5925 76.3001 33.2107 75.8478C33.8682 75.3671 34.5259 74.888 35.1841 74.4107L35.6289 74.0867C38.9205 71.6807 42.6621 68.9608 46.1102 65.9688C46.2808 65.8205 46.4514 65.6763 46.618 65.5321C47.8814 64.4606 49.3134 63.2479 50.128 61.2665C50.9841 59.1885 51.037 56.8475 50.2732 54.8426C49.1916 52.008 46.9074 50.2926 44.8904 48.7804C44.4567 48.4544 44.0474 48.1466 43.6605 47.8369C41.0788 45.769 38.4432 43.687 35.894 41.674L32.907 39.3046V33.8456L50.8338 47.9618Z" fill="white"/>
</g>
<defs>
<linearGradient id="paint0_linear_2575_30513" x1="85.7641" y1="9.79478" x2="13.5023" y2="100.121" gradientUnits="userSpaceOnUse">
<stop stop-color="#DB0420"/>
<stop offset="1" stop-color="#852738"/>
</linearGradient>
<clipPath id="clip0_2575_30513">
<rect width="104" height="104" fill="white"/>
</clipPath>
</defs>
</svg>
