<svg width="50" height="50" viewBox="0 0 50 50" fill="none" xmlns="http://www.w3.org/2000/svg">
<path d="M13.625 10.4167C13.75 12.2708 14.0625 14.0833 14.5625 15.8125L12.0625 18.3125C11.2083 15.8125 10.6667 13.1667 10.4792 10.4167H13.625ZM34.1667 35.4583C35.9375 35.9583 37.75 36.2708 39.5833 36.3958V39.5C36.8333 39.3125 34.1875 38.7708 31.6667 37.9375L34.1667 35.4583ZM15.625 6.25H8.33333C7.1875 6.25 6.25 7.1875 6.25 8.33333C6.25 27.8958 22.1042 43.75 41.6667 43.75C42.8125 43.75 43.75 42.8125 43.75 41.6667V34.3958C43.75 33.25 42.8125 32.3125 41.6667 32.3125C39.0833 32.3125 36.5625 31.8958 34.2292 31.125C34.0224 31.05 33.8032 31.0147 33.5833 31.0208C33.0417 31.0208 32.5208 31.2292 32.1042 31.625L27.5208 36.2083C21.6155 33.1883 16.8117 28.3845 13.7917 22.4792L18.375 17.8958C18.9583 17.3125 19.125 16.5 18.8958 15.7708C18.1055 13.371 17.7046 10.86 17.7083 8.33333C17.7083 7.1875 16.7708 6.25 15.625 6.25Z" fill="url(#paint0_linear_3269_13360)"/>
<defs>
<linearGradient id="paint0_linear_3269_13360" x1="25" y1="6.25" x2="25" y2="43.75" gradientUnits="userSpaceOnUse">
<stop stop-color="#FF0420"/>
<stop offset="1" stop-color="#BD2738"/>
</linearGradient>
</defs>
</svg>
