<svg width="118" height="22" viewBox="0 0 118 22" fill="none" xmlns="http://www.w3.org/2000/svg">
<g clip-path="url(#clip0_3279_13177)">
<path fill-rule="evenodd" clip-rule="evenodd" d="M59.5302 19.1693C58.7609 19.1693 58.0557 19.0032 57.4145 18.6711C57.0528 18.4795 56.7385 18.2518 56.4717 17.988C56.303 17.8214 55.9614 17.9345 55.9614 18.1732V18.5296C55.9614 18.6915 55.8319 18.8228 55.6721 18.8228H54.2846C54.1248 18.8228 53.9953 18.6915 53.9953 18.5296V3.60763C53.9953 3.44571 54.1248 3.31445 54.2846 3.31445H55.6656C55.8253 3.31445 55.9548 3.44571 55.9548 3.60763V8.85955C55.9548 9.09835 56.2974 9.21209 56.4665 9.04595C56.7354 8.78169 57.0523 8.55355 57.4145 8.36169C58.0557 8.02955 58.7609 7.86349 59.5302 7.86349C60.9122 7.86349 62.0804 8.41222 63.035 9.50955C64.018 10.6214 64.5095 11.957 64.5095 13.5164C64.5095 15.0902 64.018 16.4258 63.035 17.5232C62.0804 18.6206 60.9122 19.1693 59.5302 19.1693ZM59.2097 17.35C60.1499 17.35 60.9407 16.989 61.5817 16.267C62.2229 15.5595 62.5434 14.6426 62.5434 13.5164C62.5434 12.4046 62.2229 11.4877 61.5817 10.7658C60.9407 10.0438 60.1499 9.68282 59.2097 9.68282C58.2551 9.68282 57.4573 10.0438 56.8162 10.7658C56.1893 11.4877 55.8759 12.4046 55.8759 13.5164C55.8759 14.6426 56.1893 15.5668 56.8162 16.2887C57.4573 16.9962 58.2551 17.35 59.2097 17.35ZM47.2395 19.1693C45.7008 19.1693 44.4328 18.635 43.4356 17.5666C42.4383 16.498 41.9397 15.148 41.9397 13.5164C41.9397 11.8992 42.424 10.5564 43.3928 9.48789C44.3616 8.40495 45.6011 7.86349 47.1113 7.86349C48.6641 7.86349 49.8965 8.37609 50.8083 9.40129C51.7909 10.4738 52.2607 12.0868 52.1991 13.5539C52.1913 13.742 52.0345 13.8846 51.8488 13.8846H44.3016C44.1082 13.8846 43.9513 14.0468 43.9714 14.2418C44.0614 15.1178 44.3957 15.8361 44.9742 16.397C45.6296 17.0323 46.4131 17.35 47.3249 17.35C48.4882 17.35 49.4184 16.803 50.1157 15.7091C50.2089 15.5628 50.3943 15.5034 50.5487 15.5798L51.7234 16.1606C51.889 16.2424 51.9554 16.4478 51.8594 16.6072C51.4054 17.3618 50.8056 17.9631 50.0603 18.4112C49.234 18.9166 48.2938 19.1693 47.2395 19.1693ZM44.2118 11.8203C44.1423 12.0316 44.3065 12.2386 44.5263 12.2386H49.7316C49.9319 12.2386 50.0919 12.0647 50.0513 11.8659C49.9346 11.295 49.6527 10.8128 49.2056 10.4192C48.6784 9.92829 47.9661 9.68282 47.0685 9.68282C46.3277 9.68282 45.6866 9.91382 45.1452 10.3759C44.716 10.7521 44.4049 11.2336 44.2118 11.8203ZM41.3369 8.61715C41.4009 8.41602 41.2529 8.21002 41.0444 8.21002H39.6875C39.5512 8.21002 39.4312 8.30102 39.3927 8.43355L37.3914 15.3187C37.3111 15.5948 36.9272 15.6006 36.8389 15.327L34.6117 8.42475C34.5704 8.29669 34.4525 8.21002 34.3196 8.21002H32.7346C32.6019 8.21002 32.4842 8.29629 32.4427 8.42402L30.1954 15.3315C30.1065 15.6046 29.7233 15.5984 29.6432 15.3226L27.6407 8.43355C27.6022 8.30102 27.4822 8.21002 27.3459 8.21002H25.9462C25.7378 8.21002 25.5897 8.41602 25.6537 8.61715L28.832 18.6068C28.873 18.7355 28.9912 18.8228 29.1245 18.8228H30.6642C30.7976 18.8228 30.9158 18.7354 30.9568 18.6066L33.1997 11.5428C33.2857 11.272 33.6636 11.2715 33.7503 11.5421L36.0122 18.6074C36.0533 18.7358 36.1714 18.8228 36.3045 18.8228H37.8661C37.9995 18.8228 38.1177 18.7355 38.1586 18.6068L41.3369 8.61715ZM102.251 18.1946C102.821 18.7289 103.533 18.996 104.388 18.996C104.954 18.996 105.461 18.9318 105.91 18.8034C106.063 18.7596 106.14 18.5918 106.087 18.4399L105.668 17.2374C105.611 17.0762 105.432 16.9984 105.27 17.0499C105.227 17.0639 105.182 17.0773 105.136 17.09C104.993 17.119 104.844 17.1334 104.687 17.1334C104.345 17.1334 104.039 17.0106 103.768 16.7652C103.497 16.5053 103.362 16.0216 103.362 15.314V10.3226C103.362 10.1606 103.491 10.0294 103.651 10.0294H105.638C105.797 10.0294 105.926 9.89809 105.926 9.73622V8.50322C105.926 8.34129 105.797 8.21002 105.638 8.21002H103.651C103.491 8.21002 103.362 8.07882 103.362 7.91689V3.60763C103.362 3.44571 103.233 3.31445 103.073 3.31445H101.686C101.526 3.31445 101.396 3.44571 101.396 3.60763V7.91689C101.396 8.07882 101.266 8.21002 101.107 8.21002H99.8477C99.6879 8.21002 99.5582 8.34129 99.5582 8.50322V9.73622C99.5582 9.89809 99.6879 10.0294 99.8477 10.0294H101.107C101.266 10.0294 101.396 10.1606 101.396 10.3226V15.9638C101.41 16.9168 101.695 17.6604 102.251 18.1946ZM74.1726 17.8698C75.1273 17.0034 75.6046 15.9205 75.6046 14.621C75.6046 13.8268 75.3833 13.1121 74.9421 12.4768C74.7388 12.1747 74.4467 11.7908 73.5902 11.3042C73.4097 11.2013 73.4044 10.9274 73.5755 10.8086C74.6004 10.0968 75.1126 9.01915 75.1126 7.75522C75.1126 6.55679 74.6787 5.58215 73.8095 4.83132C72.9257 4.05161 71.8359 3.66176 70.5395 3.66176C69.4999 3.66176 68.5947 3.94332 67.8258 4.50645C67.1401 5.00822 66.6299 5.64757 66.295 6.42451C66.2256 6.58549 66.3054 6.76935 66.465 6.83789L67.6801 7.35935C67.8519 7.43322 68.0484 7.34442 68.1253 7.17202C68.604 6.10247 69.409 5.56771 70.5395 5.56771C71.3091 5.56771 71.9288 5.76986 72.3988 6.17415C72.8688 6.57844 73.1042 7.10549 73.1042 7.75522C73.1042 8.46275 72.8548 9.04029 72.356 9.48789C71.8573 9.92109 71.2161 10.1377 70.4326 10.1377H69.647C69.4671 10.1377 69.3214 10.2854 69.3214 10.4675V11.6705C69.3214 11.8526 69.4671 12.0003 69.647 12.0003H70.5823C71.4087 12.0003 72.114 12.253 72.6984 12.7584C73.2967 13.2637 73.5956 13.8846 73.5956 14.621C73.5956 15.3574 73.3108 15.9855 72.7405 16.5053C72.1568 17.0106 71.4655 17.2633 70.6679 17.2633C69.9412 17.2633 69.3147 17.0468 68.7872 16.6136C68.3506 16.2326 68.0177 15.7156 67.787 15.0626C67.7215 14.8761 67.5169 14.7747 67.3369 14.8508L66.1482 15.3528C65.9958 15.4172 65.9141 15.5874 65.9676 15.7458C66.2999 16.73 66.8764 17.539 67.6974 18.173C68.5806 18.8372 69.5708 19.1693 70.6679 19.1693C72.0639 19.1693 73.2325 18.7361 74.1726 17.8698ZM79.0932 15.574C79.0932 14.9964 79.3567 14.5127 79.8835 14.1228C80.425 13.733 81.0949 13.538 81.8925 13.538C82.9161 13.538 83.7291 13.7518 84.3308 14.1791C84.4124 14.237 84.4579 14.3334 84.4532 14.4341C84.4137 15.2049 84.0875 15.8808 83.4737 16.462C82.8332 17.0828 82.0991 17.3933 81.2728 17.3933C80.6885 17.3933 80.1757 17.22 79.7344 16.8735C79.3065 16.527 79.0932 16.0938 79.0932 15.574ZM85.077 9.05475C84.2366 8.26062 83.0893 7.86349 81.6365 7.86349C79.8842 7.86349 78.5336 8.47429 77.5856 9.69575C77.4833 9.82729 77.5221 10.0174 77.6618 10.1066L78.9014 10.8978C79.0324 10.9814 79.2042 10.9446 79.3012 10.8221C79.9236 10.0337 80.7379 9.63949 81.7428 9.63949C82.4695 9.63949 83.1033 9.88495 83.6449 10.3759C84.1898 10.8554 84.3823 11.4318 84.4378 12.0827C84.4572 12.3064 84.2158 12.4512 84.0113 12.3646C83.3347 12.0784 82.5217 11.9353 81.5723 11.9353C80.2044 11.9353 79.1073 12.2602 78.2809 12.91C77.4693 13.5597 77.0628 14.4333 77.0628 15.5306C77.0628 16.5702 77.4479 17.4366 78.2167 18.1297C79.0003 18.8228 79.9691 19.1693 81.123 19.1693C82.4769 19.1693 83.5593 18.5628 84.3716 17.35V18.5296C84.3716 18.6915 84.5013 18.8228 84.6611 18.8228H86.0484C86.2082 18.8228 86.3379 18.6915 86.3379 18.5296V12.2819C86.3379 10.9102 85.9173 9.83442 85.077 9.05475ZM97.7444 18.5112C97.7444 18.6833 97.6067 18.8228 97.4368 18.8228H96.0856C95.9158 18.8228 95.7781 18.6833 95.7781 18.5112V18.1633C95.7781 17.9388 95.4431 17.8312 95.2854 17.9887C95.0373 18.2359 94.7391 18.4562 94.3895 18.6495C93.7764 18.996 93.1352 19.1693 92.466 19.1693C91.1837 19.1693 90.1935 18.8011 89.4955 18.0647C88.8116 17.3138 88.4699 16.2526 88.4699 14.8809V8.52155C88.4699 8.34949 88.607 8.21002 88.7768 8.21002H90.1287C90.2978 8.21002 90.4356 8.34949 90.4356 8.52155V14.751C90.4783 16.4836 91.3401 17.35 93.0216 17.35C93.8051 17.35 94.4604 17.0323 94.9879 16.397C95.5147 15.7472 95.7781 14.9748 95.7781 14.0795V8.52155C95.7781 8.34949 95.9158 8.21002 96.0856 8.21002H97.4368C97.6067 8.21002 97.7444 8.34949 97.7444 8.52155V18.5112ZM107.901 3.60763C107.901 3.44571 108.03 3.31445 108.19 3.31445H109.578C109.738 3.31445 109.867 3.44571 109.867 3.60763V8.86949C109.867 9.09395 110.201 9.20069 110.358 9.04215C110.602 8.79575 110.894 8.57615 111.235 8.38335C111.862 8.03675 112.51 7.86349 113.18 7.86349C114.462 7.86349 115.445 8.23895 116.129 8.98975C116.827 9.72615 117.176 10.7802 117.176 12.1519V18.5296C117.176 18.6915 117.046 18.8228 116.886 18.8228H115.499C115.339 18.8228 115.209 18.6915 115.209 18.5296V12.5418C115.209 10.6358 114.376 9.68282 112.71 9.68282C111.911 9.68282 111.235 10.0222 110.679 10.7008C110.138 11.365 109.867 12.1447 109.867 13.0399V18.5296C109.867 18.6915 109.738 18.8228 109.578 18.8228H108.19C108.03 18.8228 107.901 18.6915 107.901 18.5296V3.60763Z" fill="#B7B8BD"/>
<path d="M17.9268 17.1405C18.0411 17.5806 18.6472 17.5806 18.7616 17.1405L22.0561 4.47069C22.2078 3.88733 21.7812 3.31445 21.1951 3.31445H19.1639C18.7605 3.31445 18.4073 3.59368 18.3029 3.99524L16.4451 11.14C16.4193 11.239 16.4193 11.3434 16.4451 11.4425L17.9268 17.1405Z" fill="#B7B8BD"/>
<path d="M6.41284 11.1307C6.43861 11.2298 6.43861 11.3341 6.41284 11.4332L4.93123 17.1312C4.81679 17.5713 4.21078 17.5713 4.09634 17.1312L0.8043 4.47069C0.65261 3.88733 1.07919 3.31445 1.66527 3.31445H3.69648C4.09991 3.31445 4.45304 3.59368 4.55746 3.99524L6.41284 11.1307Z" fill="#B7B8BD"/>
<path d="M9.18932 19.9254C9.0885 20.3144 8.74746 20.5849 8.35789 20.5849H6.27925C5.71324 20.5849 5.30128 20.03 5.44778 19.4649L9.44772 4.03571C9.55804 3.61028 9.93103 3.31445 10.3572 3.31445H12.7748C13.201 3.31445 13.5739 3.61028 13.6842 4.03571L17.6842 19.4649C17.8307 20.03 17.4187 20.5849 16.8527 20.5849H14.7741C14.3845 20.5849 14.0434 20.3144 13.9426 19.9254L11.9687 12.3116C11.8583 11.8857 11.2737 11.8857 11.1632 12.3116L9.18932 19.9254Z" fill="#B7B8BD"/>
<path d="M10.8357 18.3194C10.687 18.3194 10.5787 18.1811 10.6172 18.0402L11.3472 15.3694C11.4071 15.1503 11.7244 15.1503 11.7843 15.3694L12.5143 18.0402C12.5528 18.1811 12.4445 18.3194 12.2958 18.3194H10.8357Z" fill="#B7B8BD"/>
</g>
<defs>
<clipPath id="clip0_3279_13177">
<rect width="117" height="22" fill="white" transform="translate(0.5)"/>
</clipPath>
</defs>
</svg>
