<svg width="20" height="20" viewBox="0 0 20 20" fill="none" xmlns="http://www.w3.org/2000/svg">
<path d="M9.99999 1.66699C5.39999 1.66699 1.66666 5.40033 1.66666 10.0003C1.66666 14.6003 5.39999 18.3337 9.99999 18.3337C14.6 18.3337 18.3333 14.6003 18.3333 10.0003C18.3333 5.40033 14.6 1.66699 9.99999 1.66699ZM6.12499 15.417C7.21666 14.6337 8.54999 14.167 9.99999 14.167C11.45 14.167 12.7833 14.6337 13.875 15.417C12.7833 16.2003 11.45 16.667 9.99999 16.667C8.54999 16.667 7.21666 16.2003 6.12499 15.417ZM15.1167 14.267C13.657 13.1218 11.8553 12.4993 9.99999 12.4993C8.14467 12.4993 6.34299 13.1218 4.88332 14.267C3.88076 13.0714 3.33191 11.5606 3.33332 10.0003C3.33332 6.31699 6.31666 3.33366 9.99999 3.33366C13.6833 3.33366 16.6667 6.31699 16.6667 10.0003C16.6667 11.6253 16.0833 13.1087 15.1167 14.267Z" fill="#BD2738"/>
<path d="M10 5C8.39168 5 7.08334 6.30833 7.08334 7.91667C7.08334 9.525 8.39168 10.8333 10 10.8333C11.6083 10.8333 12.9167 9.525 12.9167 7.91667C12.9167 6.30833 11.6083 5 10 5ZM10 9.16667C9.30834 9.16667 8.75001 8.60833 8.75001 7.91667C8.75001 7.225 9.30834 6.66667 10 6.66667C10.6917 6.66667 11.25 7.225 11.25 7.91667C11.25 8.60833 10.6917 9.16667 10 9.16667Z" fill="#BD2738"/>
</svg>
