<svg width="23" height="22" viewBox="0 0 23 22" fill="none" xmlns="http://www.w3.org/2000/svg">
<path d="M15.9512 18.5925C15.0525 19.4637 14.0714 19.3261 13.1269 18.9135C12.1274 18.4917 11.2104 18.4733 10.1559 18.9135C8.83545 19.482 8.13855 19.317 7.34995 18.5925C2.8751 13.9802 3.53532 6.95611 8.61537 6.69936C9.85329 6.76355 10.7153 7.37792 11.4397 7.43294C12.5217 7.21287 13.5579 6.58015 14.7133 6.66268C16.0979 6.77272 17.1433 7.32291 17.831 8.31324C14.97 10.028 15.6486 13.7968 18.2711 14.8513C17.7485 16.2267 17.0699 17.593 15.942 18.6017L15.9512 18.5925ZM11.348 6.64434C11.2104 4.59949 12.8701 2.91225 14.7775 2.74719C15.0434 5.11299 12.6317 6.87359 11.348 6.64434Z" fill="white"/>
</svg>
