<svg width="24" height="24" viewBox="0 0 24 24" fill="none" xmlns="http://www.w3.org/2000/svg">
<g clip-path="url(#clip0_10209_83613)">
<path d="M12.6421 3.80989C13.0441 3.55989 13.5361 3.51589 13.9701 3.68089L14.1121 3.74389L21.5561 7.50489C21.8707 7.66494 22.1192 7.93013 22.2586 8.25439C22.398 8.57865 22.4194 8.9415 22.3191 9.27989C21.9291 10.6109 21.9721 11.1699 22.2271 11.8009C22.4671 12.3959 22.3271 13.1429 21.7671 13.5819L21.6401 13.6719L11.3561 20.1809C10.9251 20.4539 10.3761 20.4959 9.8991 20.2629L6.0591 18.3679L4.4551 17.5629L3.3151 16.9809L2.6191 16.6159L2.2591 16.4199L1.9981 16.2699C0.978099 15.6549 0.660099 14.4049 0.666099 13.4499C0.670099 12.4789 1.0041 11.2659 1.9311 10.5999L2.2311 10.3929L3.0891 9.83189L5.1341 8.52589L12.6421 3.81089V3.80989ZM20.0331 10.6879L11.3601 16.1779C11.2901 16.2229 11.2161 16.2609 11.1411 16.2929C11.0311 16.7009 10.9931 16.9939 10.9971 17.2659C10.9991 17.4289 11.0171 17.5939 11.0521 17.7829L11.0941 17.9799L20.2421 12.1899C20.1114 11.7874 20.0406 11.3679 20.0321 10.9449L20.0331 10.6879ZM2.8001 12.6779C2.70982 12.928 2.66445 13.192 2.6661 13.4579C2.6631 14.1299 2.9031 14.4809 3.0311 14.5579L3.3391 14.7329L3.9651 15.0659L5.7351 15.9689L9.0101 17.5999C9.00209 17.4991 8.99742 17.398 8.9961 17.2969C8.99346 16.8243 9.05399 16.3535 9.1761 15.8969L2.8001 12.6769V12.6779ZM19.4571 8.68589L13.4621 5.65589L6.7021 9.89989L4.5041 11.2989L10.5301 14.3389L19.4571 8.68689V8.68589ZM12.6141 7.33589C12.7278 7.11868 12.9173 6.95079 13.1467 6.86415C13.376 6.7775 13.6292 6.77812 13.8581 6.86589L13.9641 6.91389L16.0641 8.01389C16.2911 8.13173 16.4643 8.33208 16.5481 8.57372C16.632 8.81537 16.62 9.07994 16.5147 9.31304C16.4094 9.54613 16.2188 9.73003 15.9821 9.82691C15.7454 9.92379 15.4806 9.92629 15.2421 9.83389L15.1361 9.78589L13.0361 8.68589C12.9197 8.62497 12.8165 8.54173 12.7323 8.44091C12.6481 8.34009 12.5846 8.22367 12.5454 8.09831C12.5063 7.97294 12.4922 7.84109 12.5039 7.71027C12.5157 7.57945 12.5531 7.45224 12.6141 7.33589Z" fill="white"/>
</g>
<defs>
<clipPath id="clip0_10209_83613">
<rect width="24" height="24" fill="white"/>
</clipPath>
</defs>
</svg>
