<svg width="227" height="227" viewBox="0 0 227 227" fill="none" xmlns="http://www.w3.org/2000/svg">
<circle cx="113.5" cy="113.5" r="56.5" fill="#171A1F"/>
<circle cx="113.5" cy="113.5" r="71.5" stroke="url(#paint0_linear_4160_48796)" stroke-width="2" stroke-dasharray="1 5"/>
<circle opacity="0.5" cx="113.5" cy="113.5" r="93.5" stroke="url(#paint1_linear_4160_48796)" stroke-width="2" stroke-dasharray="1 10"/>
<circle opacity="0.5" cx="113.5" cy="113.5" r="112.5" stroke="url(#paint2_linear_4160_48796)" stroke-width="2" stroke-dasharray="1 15"/>
<path d="M124.281 117.812C123.709 117.812 123.161 118.04 122.757 118.444C122.352 118.848 122.125 119.397 122.125 119.969C122.125 120.541 122.352 121.089 122.757 121.493C123.161 121.898 123.709 122.125 124.281 122.125H130.75C131.322 122.125 131.87 121.898 132.275 121.493C132.679 121.089 132.906 120.541 132.906 119.969C132.906 119.397 132.679 118.848 132.275 118.444C131.87 118.04 131.322 117.812 130.75 117.812H124.281ZM85.4688 91.9375C85.4688 90.2219 86.1503 88.5765 87.3634 87.3634C88.5765 86.1503 90.2219 85.4688 91.9375 85.4688H128.055C129.913 85.4688 131.696 86.2071 133.01 87.5213C134.324 88.8355 135.063 90.618 135.063 92.4766V94.6458C138.832 95.9783 141.531 99.5728 141.531 103.797V131.828C141.531 134.402 140.509 136.87 138.689 138.689C136.87 140.509 134.402 141.531 131.828 141.531H95.1719C92.5985 141.531 90.1304 140.509 88.3107 138.689C86.491 136.87 85.4688 134.402 85.4688 131.828V92.4766H85.4903C85.4757 92.2972 85.4685 92.1174 85.4688 91.9375ZM131.828 98.4062H89.7813V131.828C89.7813 133.258 90.3492 134.629 91.3601 135.64C92.3711 136.651 93.7422 137.219 95.1719 137.219H131.828C133.258 137.219 134.629 136.651 135.64 135.64C136.651 134.629 137.219 133.258 137.219 131.828V103.797C137.219 102.367 136.651 100.996 135.64 99.9851C134.629 98.9742 133.258 98.4062 131.828 98.4062ZM130.75 92.4766C130.75 90.9887 129.543 89.7812 128.055 89.7812H91.9375C91.3656 89.7812 90.8172 90.0084 90.4128 90.4128C90.0084 90.8172 89.7813 91.3656 89.7813 91.9375C89.7813 92.5094 90.0084 93.0578 90.4128 93.4622C90.8172 93.8666 91.3656 94.0938 91.9375 94.0938H130.75V92.4766Z" fill="url(#paint3_linear_4160_48796)"/>
<defs>
<linearGradient id="paint0_linear_4160_48796" x1="41" y1="131.183" x2="226.702" y2="131.183" gradientUnits="userSpaceOnUse">
<stop stop-color="#BC2738"/>
<stop offset="1" stop-color="#6E1620"/>
</linearGradient>
<linearGradient id="paint1_linear_4160_48796" x1="19" y1="136.549" x2="261.053" y2="136.549" gradientUnits="userSpaceOnUse">
<stop stop-color="#BC2738"/>
<stop offset="1" stop-color="#6E1620"/>
</linearGradient>
<linearGradient id="paint2_linear_4160_48796" x1="-1.20958e-07" y1="141.183" x2="290.719" y2="141.183" gradientUnits="userSpaceOnUse">
<stop stop-color="#BC2738"/>
<stop offset="1" stop-color="#6E1620"/>
</linearGradient>
<linearGradient id="paint3_linear_4160_48796" x1="85.4687" y1="120.337" x2="157.268" y2="120.337" gradientUnits="userSpaceOnUse">
<stop stop-color="#BC2738"/>
<stop offset="1" stop-color="#6E1620"/>
</linearGradient>
</defs>
</svg>
