<svg width="25" height="24" viewBox="0 0 25 24" fill="none" xmlns="http://www.w3.org/2000/svg">
<path d="M19.9576 5.33005C18.6276 4.71005 17.1876 4.26005 15.6876 4.00005C15.6745 3.99963 15.6614 4.00209 15.6493 4.00728C15.6372 4.01246 15.6264 4.02023 15.6176 4.03005C15.4376 4.36005 15.2276 4.79005 15.0876 5.12005C13.4966 4.88005 11.8786 4.88005 10.2876 5.12005C10.1476 4.78005 9.93762 4.36005 9.74762 4.03005C9.73762 4.01005 9.70762 4.00005 9.67762 4.00005C8.17762 4.26005 6.74762 4.71005 5.40762 5.33005C5.39762 5.33005 5.38762 5.34005 5.37762 5.35005C2.65762 9.42005 1.90762 13.38 2.27762 17.3C2.27762 17.32 2.28762 17.34 2.30762 17.35C4.10762 18.67 5.83762 19.47 7.54762 20C7.57762 20.01 7.60762 20 7.61762 19.98C8.01762 19.43 8.37762 18.85 8.68762 18.24C8.70762 18.2 8.68762 18.16 8.64762 18.15C8.07762 17.93 7.53762 17.67 7.00762 17.37C6.96762 17.35 6.96762 17.29 6.99762 17.26C7.10762 17.18 7.21762 17.09 7.32762 17.01C7.34762 16.99 7.37762 16.99 7.39762 17C10.8376 18.57 14.5476 18.57 17.9476 17C17.9676 16.99 17.9976 16.99 18.0176 17.01C18.1276 17.1 18.2376 17.18 18.3476 17.27C18.3876 17.3 18.3876 17.36 18.3376 17.38C17.8176 17.69 17.2676 17.94 16.6976 18.16C16.6576 18.17 16.6476 18.22 16.6576 18.25C16.9776 18.86 17.3376 19.44 17.7276 19.99C17.7576 20 17.7876 20.01 17.8176 20C19.5376 19.47 21.2676 18.67 23.0676 17.35C23.0876 17.34 23.0976 17.32 23.0976 17.3C23.5376 12.77 22.3676 8.84005 19.9976 5.35005C19.9876 5.34005 19.9776 5.33005 19.9576 5.33005ZM9.20762 14.91C8.17762 14.91 7.31762 13.96 7.31762 12.79C7.31762 11.62 8.15762 10.67 9.20762 10.67C10.2676 10.67 11.1076 11.63 11.0976 12.79C11.0976 13.96 10.2576 14.91 9.20762 14.91ZM16.1776 14.91C15.1476 14.91 14.2876 13.96 14.2876 12.79C14.2876 11.62 15.1276 10.67 16.1776 10.67C17.2376 10.67 18.0776 11.63 18.0676 12.79C18.0676 13.96 17.2376 14.91 16.1776 14.91Z" fill="white"/>
</svg>
