<svg width="25" height="24" viewBox="0 0 25 24" fill="none" xmlns="http://www.w3.org/2000/svg">
<g clip-path="url(#clip0_3663_6960)">
<path fill-rule="evenodd" clip-rule="evenodd" d="M8.375 6C9.9663 6 11.4924 6.63214 12.6176 7.75736C13.7429 8.88258 14.375 10.4087 14.375 12C14.375 13.5913 13.7429 15.1174 12.6176 16.2426C11.4924 17.3679 9.9663 18 8.375 18C6.7837 18 5.25758 17.3679 4.13236 16.2426C3.00714 15.1174 2.375 13.5913 2.375 12C2.375 10.4087 3.00714 8.88258 4.13236 7.75736C5.25758 6.63214 6.7837 6 8.375 6ZM17.375 7C18.875 7 19.875 9.239 19.875 12C19.875 14.761 18.875 17 17.375 17C15.875 17 14.875 14.761 14.875 12C14.875 9.239 15.875 7 17.375 7ZM21.375 7.5C21.755 7.5 22.087 8.327 22.255 9.746L22.302 10.189L22.321 10.424L22.351 10.918L22.361 11.177L22.373 11.718L22.375 12L22.373 12.282L22.361 12.823L22.351 13.083L22.321 13.576L22.301 13.811L22.256 14.254C22.087 15.674 21.756 16.5 21.375 16.5C20.995 16.5 20.663 15.673 20.495 14.254L20.448 13.811C20.4411 13.7327 20.4348 13.6544 20.429 13.576L20.399 13.082C20.3951 12.9957 20.3918 12.9094 20.389 12.823L20.377 12.282V11.718L20.389 11.177L20.399 10.917L20.429 10.424L20.449 10.189L20.494 9.746C20.663 8.326 20.994 7.5 21.375 7.5ZM8.375 8C7.31413 8 6.29672 8.42143 5.54657 9.17157C4.79643 9.92172 4.375 10.9391 4.375 12C4.375 13.0609 4.79643 14.0783 5.54657 14.8284C6.29672 15.5786 7.31413 16 8.375 16C9.43587 16 10.4533 15.5786 11.2034 14.8284C11.9536 14.0783 12.375 13.0609 12.375 12C12.375 10.9391 11.9536 9.92172 11.2034 9.17157C10.4533 8.42143 9.43587 8 8.375 8ZM17.331 9.403C16.968 10.203 16.875 11.134 16.875 12C16.875 12.866 16.967 13.798 17.331 14.597C17.349 14.635 17.401 14.635 17.419 14.597C17.782 13.797 17.875 12.866 17.875 12C17.875 11.134 17.783 10.202 17.419 9.403C17.4153 9.39444 17.4091 9.38715 17.4013 9.38203C17.3935 9.37691 17.3843 9.37418 17.375 9.37418C17.3657 9.37418 17.3565 9.37691 17.3487 9.38203C17.3409 9.38715 17.3347 9.39444 17.331 9.403Z" fill="white"/>
</g>
<defs>
<clipPath id="clip0_3663_6960">
<rect width="24" height="24" fill="white" transform="translate(0.375)"/>
</clipPath>
</defs>
</svg>
