<svg width="25" height="24" viewBox="0 0 25 24" fill="none" xmlns="http://www.w3.org/2000/svg">
<path d="M11.0937 13.04C11.0937 12.47 10.6237 12 10.0537 12C9.48367 12 9.01367 12.47 9.01367 13.04C9.01367 13.3158 9.12324 13.5804 9.31828 13.7754C9.51332 13.9704 9.77785 14.08 10.0537 14.08C10.3295 14.08 10.594 13.9704 10.7891 13.7754C10.9841 13.5804 11.0937 13.3158 11.0937 13.04ZM14.4337 15.41C13.9837 15.86 13.0237 16.02 12.3437 16.02C11.6637 16.02 10.7037 15.86 10.2537 15.41C10.2293 15.384 10.1999 15.3632 10.1672 15.349C10.1346 15.3348 10.0993 15.3275 10.0637 15.3275C10.028 15.3275 9.99278 15.3348 9.9601 15.349C9.92741 15.3632 9.898 15.384 9.87367 15.41C9.84763 15.4343 9.82687 15.4637 9.81267 15.4964C9.79848 15.5291 9.79115 15.5644 9.79115 15.6C9.79115 15.6356 9.79848 15.6709 9.81267 15.7036C9.82687 15.7363 9.84763 15.7657 9.87367 15.79C10.5837 16.5 11.9437 16.56 12.3437 16.56C12.7437 16.56 14.1037 16.5 14.8137 15.79C14.8397 15.7657 14.8605 15.7363 14.8747 15.7036C14.8889 15.6709 14.8962 15.6356 14.8962 15.6C14.8962 15.5644 14.8889 15.5291 14.8747 15.4964C14.8605 15.4637 14.8397 15.4343 14.8137 15.41C14.7137 15.31 14.5437 15.31 14.4337 15.41ZM14.6337 12C14.0637 12 13.5937 12.47 13.5937 13.04C13.5937 13.61 14.0637 14.08 14.6337 14.08C15.2037 14.08 15.6737 13.61 15.6737 13.04C15.6737 12.47 15.2137 12 14.6337 12Z" fill="white"/>
<path d="M12.3438 2C6.82375 2 2.34375 6.48 2.34375 12C2.34375 17.52 6.82375 22 12.3438 22C17.8638 22 22.3438 17.52 22.3438 12C22.3438 6.48 17.8638 2 12.3438 2ZM18.1437 13.33C18.1637 13.47 18.1737 13.62 18.1737 13.77C18.1737 16.01 15.5638 17.83 12.3438 17.83C9.12375 17.83 6.51375 16.01 6.51375 13.77C6.51375 13.62 6.52375 13.47 6.54375 13.33C6.03375 13.1 5.68375 12.59 5.68375 12C5.68227 11.7132 5.76555 11.4324 5.92314 11.1929C6.08073 10.9533 6.3056 10.7656 6.56951 10.6534C6.83341 10.5413 7.12458 10.5096 7.40644 10.5623C7.68831 10.6151 7.94829 10.75 8.15375 10.95C9.16375 10.22 10.5638 9.76 12.1138 9.71L12.8538 6.22C12.8638 6.15 12.9037 6.09 12.9637 6.06C13.0238 6.02 13.0938 6.01 13.1637 6.02L15.5837 6.54C15.6658 6.37358 15.7909 6.23215 15.9461 6.13038C16.1013 6.02861 16.2808 5.9702 16.4662 5.96122C16.6515 5.95224 16.8359 5.99301 17.0001 6.07931C17.1644 6.1656 17.3026 6.29428 17.4004 6.45199C17.4982 6.60969 17.552 6.79069 17.5562 6.9762C17.5605 7.16171 17.515 7.34498 17.4245 7.507C17.3341 7.66901 17.2019 7.80388 17.0418 7.8976C16.8816 7.99132 16.6993 8.04049 16.5138 8.04C15.9537 8.04 15.5037 7.6 15.4738 7.05L13.3038 6.59L12.6438 9.71C14.1737 9.76 15.5438 10.23 16.5438 10.95C16.697 10.8036 16.8805 10.6925 17.0812 10.6244C17.2819 10.5563 17.4951 10.5329 17.7059 10.5558C17.9166 10.5787 18.1198 10.6474 18.3012 10.757C18.4826 10.8667 18.6378 11.0146 18.7561 11.1905C18.8744 11.3664 18.9528 11.5661 18.9858 11.7754C19.0188 11.9848 19.0058 12.1989 18.9474 12.4027C18.8891 12.6064 18.787 12.795 18.6481 12.9552C18.5093 13.1154 18.3372 13.2433 18.1437 13.33Z" fill="white"/>
</svg>
