<svg width="24" height="25" viewBox="0 0 24 25" fill="none" xmlns="http://www.w3.org/2000/svg">
<path d="M19.0002 7.75009H18.7502V5.50009C18.7476 5.03677 18.5624 4.59318 18.2348 4.26556C17.9072 3.93793 17.4636 3.75272 17.0002 3.75009C16.9209 3.73565 16.8396 3.73565 16.7602 3.75009L4.86024 7.75009H4.59024L4.42024 7.81009H4.28024L4.12024 7.90009L4.00024 8.07009L3.86024 8.19009L3.75024 8.29009L3.63024 8.44009C3.59825 8.46879 3.57122 8.50258 3.55024 8.54009C3.51313 8.59791 3.47973 8.65803 3.45024 8.72009L3.39024 8.83009C3.3624 8.90191 3.33902 8.97539 3.32024 9.05009C3.32474 9.08662 3.32474 9.12356 3.32024 9.16009C3.30992 9.27319 3.30992 9.38699 3.32024 9.50009V19.5001C3.32234 19.9516 3.49789 20.385 3.81058 20.7108C4.12327 21.0365 4.54919 21.2296 5.00024 21.2501H19.0002C19.4636 21.2475 19.9072 21.0623 20.2348 20.7346C20.5624 20.407 20.7476 19.9634 20.7502 19.5001V9.50009C20.7476 9.03677 20.5624 8.59318 20.2348 8.26556C19.9072 7.93793 19.4636 7.75272 19.0002 7.75009ZM17.0802 5.26009C17.1295 5.27826 17.1721 5.31091 17.2024 5.35374C17.2328 5.39658 17.2494 5.4476 17.2502 5.50009V7.75009H9.62024L17.0802 5.26009ZM19.2502 19.5001C19.2502 19.5664 19.2239 19.63 19.177 19.6769C19.1301 19.7238 19.0665 19.7501 19.0002 19.7501H5.00024C4.93394 19.7501 4.87035 19.7238 4.82347 19.6769C4.77658 19.63 4.75024 19.5664 4.75024 19.5001V9.50009C4.75024 9.43379 4.77658 9.3702 4.82347 9.32331C4.87035 9.27643 4.93394 9.25009 5.00024 9.25009H19.0002C19.0665 9.25009 19.1301 9.27643 19.177 9.32331C19.2239 9.3702 19.2502 9.43379 19.2502 9.50009V19.5001Z" fill="white"/>
<path d="M16.5 15.75C17.1904 15.75 17.75 15.1904 17.75 14.5C17.75 13.8096 17.1904 13.25 16.5 13.25C15.8096 13.25 15.25 13.8096 15.25 14.5C15.25 15.1904 15.8096 15.75 16.5 15.75Z" fill="white"/>
</svg>
