<?xml version="1.0" encoding="utf-8"?>
<!-- Generator: Adobe Illustrator 27.0.1, SVG Export Plug-In . SVG Version: 6.00 Build 0)  -->
<svg version="1.1" id="Layer_1" xmlns="http://www.w3.org/2000/svg" xmlns:xlink="http://www.w3.org/1999/xlink" x="0px" y="0px"
	 viewBox="0 0 128 128" style="enable-background:new 0 0 128 128;" xml:space="preserve">
<style type="text/css">
	.st0{fill:#F1F1F1;}
	.st1{fill:#231F20;}
</style>
<circle class="st0" cx="64" cy="64" r="63.5"/>
<g>
	<g>
		<path class="st1" d="M60.2,39.5H46.5c-2.3,0-4.1-1.8-4.1-4.1c0-2.3,1.8-4.1,4.1-4.1h13.7c2.3,0,4.1,1.8,4.1,4.1
			C64.3,37.6,62.4,39.5,60.2,39.5z"/>
	</g>
	<g>
		<path class="st1" d="M81.4,96.7H67.7c-2.3,0-4.1-1.8-4.1-4.1s1.8-4.1,4.1-4.1h13.7c2.3,0,4.1,1.8,4.1,4.1S83.7,96.7,81.4,96.7z"/>
	</g>
	<g>
		<path class="st1" d="M46.5,58.2c-1.6,0-3.2-1-3.8-2.6c-0.8-2.1,0.2-4.5,2.3-5.3l35-13.5c2.1-0.8,4.5,0.2,5.3,2.3
			c0.8,2.1-0.2,4.5-2.3,5.3L48,58C47.5,58.1,47,58.2,46.5,58.2z"/>
	</g>
	<g>
		<path class="st1" d="M46.5,74.9c-1.6,0-3.2-1-3.8-2.6c-0.8-2.1,0.2-4.5,2.3-5.3l35-13.5c2.1-0.8,4.5,0.2,5.3,2.3
			c0.8,2.1-0.2,4.5-2.3,5.3L48,74.6C47.5,74.8,47,74.9,46.5,74.9z"/>
	</g>
	<g>
		<path class="st1" d="M46.5,91.5c-1.6,0-3.2-1-3.8-2.6c-0.8-2.1,0.2-4.5,2.3-5.3l35-13.5c2.1-0.8,4.5,0.2,5.3,2.3
			c0.8,2.1-0.2,4.5-2.3,5.3L48,91.3C47.5,91.4,47,91.5,46.5,91.5z"/>
	</g>
</g>
</svg>
