<?xml version="1.0" encoding="UTF-8"?><svg id="Layer_1" xmlns="http://www.w3.org/2000/svg" xmlns:xlink="http://www.w3.org/1999/xlink" viewBox="0 0 128 128"><defs><style>.cls-1{fill:url(#linear-gradient);}.cls-2{fill:#222;}.cls-3{fill:url(#linear-gradient-2);}</style><linearGradient id="linear-gradient" x1="52.71" y1="-836.56" x2="77.39" y2="-901.25" gradientTransform="translate(0 -805.49) scale(1 -1)" gradientUnits="userSpaceOnUse"><stop offset="0" stop-color="#f8533d"/><stop offset="1" stop-color="#f71c4d"/></linearGradient><linearGradient id="linear-gradient-2" x1="46.82" y1="-827.64" x2="71.5" y2="-892.33" xlink:href="#linear-gradient"/></defs><circle class="cls-2" cx="64" cy="64" r="63.5"/><g id="BNX"><path class="cls-1" d="m96.46,88.49l-13.11,7.08-30.67-3.32,2.62-4.37-4.37-2.62c-2.18-1.31-1.4-12.67-1.4-12.67-14.59-20.53-6.73-33.73-6.73-33.73-3.41,15.82,18.96,23.16,18.96,23.16-4.46-10.05,1.66-15.38,1.66-15.38,4.89,11.8,10.57,12.23,10.57,12.23l5.68.44,7.43-7.51c-6.2-9.61,1.22-17.13,1.22-17.13,3.58,13.98,11.01,13.98,11.01,13.98l11.01.35L76.36,15c-4.89-4.89-12.84-4.89-17.83,0L18.87,54.67c-4.89,4.89-4.89,12.84,0,17.83l39.67,39.67c4.89,4.89,12.84,4.89,17.83,0l21.76-21.76-1.66-1.92Z"/><path class="cls-3" d="m59.51,65.11c1.66-.61,3.84-1.83,5.5-4.11.35-.52.96-.17,1.14.44.44,1.92,1.22,5.59-6.47,4.89-.61-.09-.79-.96-.17-1.22Z"/></g></svg>