<?xml version="1.0" encoding="utf-8"?>
<!-- Generator: Adobe Illustrator 24.3.0, SVG Export Plug-In . SVG Version: 6.00 Build 0)  -->
<svg version="1.1" id="Layer_1" xmlns="http://www.w3.org/2000/svg" xmlns:xlink="http://www.w3.org/1999/xlink" x="0px" y="0px"
	 viewBox="0 0 50 50" style="enable-background:new 0 0 50 50;" xml:space="preserve">
<style type="text/css">
	.st0{fill:url(#SVGID_1_);}
	.st1{fill:#FEFEFE;}
</style>
<linearGradient id="SVGID_1_" gradientUnits="userSpaceOnUse" x1="25" y1="49" x2="25" y2="1">
	<stop  offset="4.617229e-02" style="stop-color:#2B1C1A"/>
	<stop  offset="0.314" style="stop-color:#412B28"/>
	<stop  offset="1" style="stop-color:#4B3834"/>
</linearGradient>
<circle class="st0" cx="25" cy="25" r="24"/>
<g>
	<g>
		<path class="st1" d="M26.2,19C26.2,19,26.2,18.9,26.2,19C26.2,18.9,26.2,18.9,26.2,19C26.2,18.9,26.2,19,26.2,19z"/>
		<path class="st1" d="M34.3,12.4c-5.1,0-10.3,0-15.4,0c-0.5,0-0.6,0.1-0.6,0.6c0,7.6,0,15.3,0,22.9c0,0.2,0,0.3,0,0.5
			c0.4,0,0.9,0,1.3,0c0.2,0,0.5,0,0.7,0c0-0.2,0-0.4,0-0.5c0-2.4,0-4.9,0-7.3c0-0.3,0.1-0.5,0.4-0.5c1.7,0,3.4,0,5.1,0
			c1.6,0,1.6,0,2.2-1.5c0.1-0.1,0.1-0.3,0.2-0.5c-2.5,0-5,0-7.5,0c0.2-0.6,0.5-1.1,0.8-1.6c0.3-0.7,0.7-1.4,1.1-2
			c0.4-0.2,0.5-0.6,0.8-0.9c0.7-0.9,1.3-0.9,2.1-0.1c0.1,0.1,0.2,0.2,0.3,0.3c0.4,0.3,0.8,0.7,1.4,0.7c0.6,0.1,1.3,0.2,1.9,0
			c0.8-0.4,1.3-1.1,1.8-1.8c0.4-0.6,0.7-1.3,1.1-1.9c0.4-0.8,0.7-1.5,1.1-2.3c0.3-0.7,0.6-1.5,0.9-2.2c0.2-0.6,0.5-1.2,0.7-1.8
			C34.7,12.3,34.5,12.4,34.3,12.4z M30.9,16.7c-0.3,0.8-0.7,1.6-1.2,2.4c-0.2,0.4-0.4,0.8-0.7,1.1c-0.4,0.5-0.7,0.5-1.2,0.2
			c-0.3-0.2-0.5-0.4-0.7-0.6c-0.5-0.4-1-0.7-1.6-1c-0.7-0.1-1.3-0.1-2,0.1c-1.2,0.6-1.9,1.7-2.6,2.7c-0.1,0.2-0.2,0.3-0.3,0.5
			c0,0.1,0,0.2-0.1,0.1c-0.1-0.1,0-0.2,0-0.3c0-2.3,0-4.7,0-7c0-0.3,0-0.5,0.4-0.5c3.7,0,7.3,0,11.1,0C31.6,15.2,31.3,16,30.9,16.7z
			"/>
	</g>
</g>
</svg>
