<?xml version="1.0" encoding="UTF-8"?><svg id="Layer_1" xmlns="http://www.w3.org/2000/svg" viewBox="0 0 128 128"><defs><style>.cls-1{fill:#fff;}.cls-2{fill:#583b92;}</style></defs><circle class="cls-2" cx="64" cy="64" r="63.5"/><g id="MBL"><path class="cls-1" d="m24.89,30.69c.82.17,1.65.34,2.47.5,1.46.28,2.92.56,4.38.83,2.17.4,4.34.79,6.51,1.2,1.39.26,2.78.55,4.17.81,3.26.62,6.52,1.22,9.78,1.84,3.81.72,7.62,1.44,11.43,2.16,1.5.28,3,.55,4.5.83.12.02.24.06.37.16-.85.17-1.69.36-2.54.52-1.72.33-3.44.64-5.16.96-1.84.35-3.68.7-5.52,1.04-1.49.28-2.99.49-4.45.84-.74.18-1.42.08-2.13-.05-2.57-.49-5.14-.99-7.72-1.48-1.86-.35-3.73-.69-5.6-1.04-1-.19-2-.38-2.99-.57-.45-.09-.48-.07-.49.4,0,.75,0,1.5,0,2.25,0,15.42,0,30.84,0,46.26,0,.08,0,.16,0,.24.02.45.07.5.5.41,2.53-.49,5.06-1,7.6-1.48,2.96-.56,5.93-1.04,8.87-1.67,1.12-.24,2.12.05,3.16.23,2.7.47,5.39.98,8.09,1.49,1.41.26,2.81.55,4.21.83,1.33.26,2.65.52,3.98.78.06.01.12.04.3.1-1.01.18-1.9.34-2.79.51-2.08.39-4.15.8-6.23,1.19-1.58.3-3.16.58-4.73.87-2.21.41-4.41.84-6.62,1.26-1.71.32-3.41.65-5.12.97-1.64.31-3.28.62-4.92.93-2.56.48-5.12.97-7.69,1.44-1.5.28-3,.53-4.5.78-.32.05-.66,0-.98,0l-.02.1c.29.06.58.12.87.18h-.97c0-22.21,0-44.41,0-66.62Z"/><path class="cls-1" d="m103.11,37.47v53.09c-.23-.04-.43-.06-.64-.1-1.97-.36-3.94-.72-5.91-1.09-1.71-.32-3.41-.65-5.12-.97-1.72-.32-3.44-.64-5.16-.97-1.69-.32-3.39-.64-5.08-.96-1.73-.33-3.47-.65-5.2-.97-1.69-.32-3.39-.64-5.08-.96-1.71-.32-3.41-.65-5.12-.97-2.85-.54-5.7-1.07-8.55-1.61-1.72-.32-3.44-.65-5.16-.97-.55-.1-1.1-.21-1.65-.31-.28-.05-.41-.17-.38-.48.03-.32,0-.64,0-.96,0-10.45,0-20.89-.01-31.34,0-.42.14-.56.52-.62,2.47-.45,4.95-.91,7.42-1.37,1.39-.26,2.78-.55,4.18-.81,2.29-.43,4.58-.85,6.86-1.28,3.59-.67,7.18-1.34,10.77-2.01,2.17-.41,4.33-.84,6.5-1.25,2.68-.51,5.36-1.02,8.04-1.52,2.8-.52,5.6-1.04,8.4-1.55.12-.02.24-.01.4-.02Z"/></g></svg>