<?xml version="1.0" encoding="UTF-8"?><svg id="Layer_1" xmlns="http://www.w3.org/2000/svg" xmlns:xlink="http://www.w3.org/1999/xlink" viewBox="0 0 128 128"><defs><style>.cls-1{fill:url(#linear-gradient);}.cls-1,.cls-2{stroke-width:0px;}.cls-2{fill:#fff;}</style><linearGradient id="linear-gradient" x1="64" y1="127.5" x2="64" y2=".5" gradientUnits="userSpaceOnUse"><stop offset="0" stop-color="#3f5fff"/><stop offset=".52" stop-color="#6b66ff"/><stop offset="1" stop-color="#966ffe"/></linearGradient></defs><circle class="cls-1" cx="64" cy="64" r="63.5"/><g id="NFP"><path class="cls-2" d="m71.93,25.9c.1.12.2.24.3.36.04.82-.62,1.03-1.18,1.2-3.85,1.22-7.6,2.74-11.4,4.1-2.89,1.04-5.83,1.94-8.68,3.1-1,.41-2.02.74-3.08.96-.6.13-1.21.32-1.74-.18,4.36-4.47,9.67-7.18,15.69-8.63,1.41-.34,2.92-.21,4.24-.92h1.23c.38.3.82.1,1.23.16.41-.06.85.14,1.23-.16.72,0,1.43,0,2.15,0Z"/><path class="cls-2" d="m69.78,25.9c-.33.48-.81.26-1.24.28-.1-.06-.13-.13-.09-.19.03-.06.07-.09.1-.09h1.23Z"/><path class="cls-2" d="m68.55,25.9c0,.09,0,.18,0,.28-.43-.01-.9.21-1.22-.28h1.23Z"/><path class="cls-2" d="m86.74,86.58c-.78,1.13-1.35,2.4-2.37,3.35-3.04.47-5.74,1.91-8.53,3.06-1.04.43-2.12.81-3.17,1.07-2.69.65-5.17,1.82-7.73,2.78-.29.11-.59.15-.9.18-.93.06-1.65.62-2.43,1.02-.24.14-.49.26-.75.35-1.05-.01-1.95.37-2.78.98-.7.33-1.44.52-2.21.61-.5-.11-.83.17-1.15.49-.19.09-.38.12-.59.09-.37-.13-.74-.28-1.04.14-.22.26-.5.42-.82.53-1.76.04-3.33-.63-4.92-1.25-.34-1.19.68-1.36,1.35-1.64,1.7-.69,3.51-1.09,5.21-1.78,2.24-.91,4.52-1.52,6.95-1.39,5.52-.49,10.45-2.45,14.76-5.95,1.36-.06,2.52-.77,3.75-1.23,2.01-.75,4.07-1.34,6.15-1.85.45-.11,1.11-.49,1.23.45Z"/><path class="cls-2" d="m46.16,35.45c2.51-.04,4.66-1.37,7-1.99,2.69-.72,5.23-1.88,7.86-2.76,2.57-.86,5.17-1.76,7.65-2.89,1.18-.54,2.67-.36,3.56-1.55,1.7.03,3.36.29,4.97.86-.64.71-1.5,1.05-2.37,1.34-6.59,2.19-13.01,4.87-19.63,6.99-3.11.99-6.12,2.28-9.2,3.39-.97.35-1.95,1.02-3.03.27.85-1.41,1.91-2.63,3.19-3.66Z"/><path class="cls-2" d="m42.97,39.11c1.77.17,3.26-.79,4.81-1.35,4.43-1.6,8.96-2.95,13.3-4.71,5.13-2.08,10.55-3.38,15.51-5.87.17-.09.4-.05.61-.07,1.1.07,2.11.41,3.07.93-.85.94-1.98,1.44-3.14,1.74-2.17.56-4.14,1.67-6.32,2.2-.48.12-.85.34-.74.94-6.54-.15-12.37,1.84-17.53,5.86-2.69.7-5.32,1.56-7.84,2.73-.69.32-1.39.61-2.15.75-.54.09-1.12.28-1.46-.39.49-1.01,1.07-1.95,1.88-2.75Z"/><path class="cls-2" d="m81.8,92.69c-4.73,4.86-10.52,7.69-17.14,8.87-2.87.51-5.79.75-8.71.29-.09-.88.62-1.06,1.2-1.34,1.39-.65,2.85-1.1,4.31-1.56,3.59-1.14,7.05-2.65,10.61-3.85,2.78-.94,5.55-1.85,8.22-3.06.65-.29,1.42-.51,1.51.65Z"/><path class="cls-2" d="m51.92,48.96c.6-1.04,1.27-2.01,2.24-2.74,3.13-1.21,6.25-2.42,9.34-3.71.48-.2.96-.34,1.49-.31.75.04,1.52-.12,2.03-.57,1-.87,2.21-.95,3.38-1.21,1.62.07,3.18.41,4.64,1.12.14.85-.55,1.01-1.08,1.14-1.18.3-2.22.99-3.38,1.29-.98.25-.1.66-.2.96-3.44-.26-6.75.21-9.84,1.84-2.25.62-4.34,1.7-6.61,2.24-.67.16-1.35.57-2.01-.03Z"/><path class="cls-2" d="m81.8,92.69c-.26-.62-.68-.67-1.24-.39-4.15,2.11-8.72,3.12-12.99,4.88-3.44,1.41-7.05,2.3-10.46,3.75-.51.22-.89.46-1.15.92-1.28.09-2.52-.07-3.69-.62.2-.2.41-.39.61-.59.32-.44.84-.12,1.23-.31h.61c.62.26.49-.6.92-.62.82-.21,1.64-.41,2.46-.62.89-.39,1.77-.83,2.77-.92.13-.25.36-.3.61-.31.82-.4,1.69-.73,2.46-1.23,1.44.01,2.61-.81,3.83-1.36,2.07-.92,4.27-1.34,6.38-2.08,1.95-.69,3.82-1.55,5.8-2.2,1.04-.34,2.18-.82,3.26-1.25.46-.18.79.04,1.16.18-.78.99-1.53,2.01-2.57,2.76Z"/><path class="cls-2" d="m59.64,85.61c3.63-.12,6.91-1.22,9.8-3.43,2.02-.74,4.12-1.26,6.1-2.1.45-.19.94-.46,1.41-.01-.62,1.31-1.44,2.47-2.5,3.47-2.6.69-5.11,1.55-7.51,2.82-.92.49-2.07.73-3.13,1.04-2.45.72-4.76,1.83-7.25,2.42-1.29-.08-2.5-.46-3.68-.95.04-1.17,1.13-1.18,1.79-1.37,1.72-.5,3.3-1.3,4.97-1.89Z"/><path class="cls-2" d="m60.85,95.17c-.13.07-.27.21-.4.21-4.3-.04-7.84,2.52-11.86,3.43-.55.12-1.21.37-1.25,1.17-1.61-.55-3.21-1.13-4.61-2.15-.39-1.1.54-1.21,1.15-1.38,1.98-.55,3.88-1.26,5.67-2.27.9-.51,1.66.32,2.51.27,2.91.55,5.84.8,8.8.72Z"/><path class="cls-2" d="m56.56,89.81c.11-.22.25-.64.33-.63,1.43.23,2.44-.88,3.72-1.16,1.47-.32,2.84-1.05,4.28-1.52,3.01-1,5.84-2.5,8.94-3.25.31-.07.48.04.62.28-2.89,3.29-6.48,5.38-10.78,6.19-.59.11-1.21.12-1.81.18-1.38.21-2.76.21-4.14,0l-1.15-.09Z"/><path class="cls-2" d="m43.33,55.12c-.02,8.49-.03,16.97-.05,25.46,0,.45.09.93-.23,1.33-.56-.52-.42-1.22-.47-1.86-.05-1.11.02-2.21,0-3.32-.05-.64.03-1.28,0-1.92-.03-.73,0-1.46,0-2.19-.05-1.01,0-2.02,0-3.03-.03-.92,0-1.84.01-2.76-.04-.91-.02-1.81-.02-2.72.04-1.02-.02-2.04.03-3.05.1-2.3.09-2.32-2.14-1.48-.99.37-1.96.79-2.99,1.05-.37.09-.92.48-1.05-.33.01-1.06-.01-2.12.01-3.18.1-.33.37-.48.67-.58,1.51-.47,3.03-.88,4.49-1.53.55-.24,1.19-.38,1.74.11Z"/><path class="cls-2" d="m89.84,80.05c-.49,1.52-.96,3.05-1.88,4.39-1.8.21-3.22,1.4-4.9,1.95-1.74.57-3.45.94-5.27.74.91-1.13,1.81-2.27,2.72-3.4,1.52-1.75,3.88-1.29,5.75-2.18,1.16-.55,2.17-1.53,3.58-1.5Z"/><path class="cls-2" d="m70.4,40.41c-2.07.45-3.56,2.24-5.93,2.22-1.39-.02-2.92.84-4.15,1.48-1.54.8-3.37.94-4.71,2.11-.48.42-.97.05-1.45.01,3.49-3.71,7.81-5.63,12.87-5.89,1.12-.06,2.24.04,3.37.07Z"/><path class="cls-2" d="m48.92,56.05c.28-1.75.81-3.42,1.7-4.96,1.49-.76,3.09-1.18,4.69-1.59.56-.14,1.14-.24,1.22.61-1.04,1.5-1.94,3.07-2.7,4.73-1.11.75-2.48.8-3.65,1.41-.41.22-.89.18-1.26-.2Z"/><path class="cls-2" d="m84.9,52.05c0-1.23,0-2.46,0-3.69.33-.46.73-.98,1.27-.99,1.8-.03,3.06-1.11,4.39-2.09.22-.16.46-.19.68.01.49,1.41.49,2.85.35,4.31-1.16,1.24-2.89,1.14-4.3,1.81-.71.33-1.44,1.07-2.4.65Z"/><path class="cls-2" d="m76.83,33.99c-1.53-.33-3.06-.66-4.59-1-.12-.56.32-.73.68-.86,2.89-1,5.77-2.01,8.61-3.14.28-.11.61-.02.91-.1,1.15.31,2.2.82,3.12,1.58-.88,1-2.15,1.14-3.32,1.45-1.88.5-3.57,1.47-5.41,2.06Z"/><path class="cls-2" d="m35.62,92.41c-1.2-1.53-1.19-3.26.03-4.52,1.3-1.35,3.18-1.48,4.67-.28.75.6,1.42,1.3,2.13,1.95-2.16,1.22-4.62,1.73-6.82,2.85Z"/><path class="cls-2" d="m52.06,94.46c-1.49-.61-2.68.38-3.92.84-1.56.57-3.03,1.37-4.69,1.67-.46.08-.69.4-.72.87-1.02-.44-1.96-1.02-2.78-1.77-.39-.68.15-.94.59-1.13.87-.39,1.71-.88,2.69-1,1.38-.16,2.62-.72,3.83-1.37,1.67.63,3.33,1.26,5,1.9Z"/><path class="cls-2" d="m89.84,80.05c-2.75,2.14-6.24,2.39-9.32,3.67.74-1.33,1.48-2.66,2.23-3.99,2.03-.59,4.06-1.13,6-2,.54-.24,1.37-.57,1.65.49-.11.63-.2,1.27-.55,1.83Z"/><path class="cls-2" d="m91.59,63.43c0,1.13,0,2.26,0,3.38-2.16.88-4.21,2.13-6.69,1.84,0-1.23,0-2.45,0-3.68,1.88-.85,3.87-1.35,5.86-1.83.31-.07.6.08.83.29Z"/><path class="cls-2" d="m92.84,36.36c.79,1.64.49,3.25-.77,4.22-1.31,1.01-3.11,1.01-4.39-.06-.59-.49-1.1-1.06-1.65-1.6-.18-.43.07-.73.41-.83,1.88-.56,3.64-1.48,5.55-1.94.31-.07.6,0,.85.2Z"/><path class="cls-2" d="m37.56,49.89c.17-.97.48-1.89.92-2.77,2.12-1.34,4.63-1.72,6.86-2.79.54-.26,1.12-.45,1.69-.66.31-.11.75-.22.63.41-.71,1.25-1.42,2.5-2.14,3.74-.51-.22-1,0-1.42.2-1.62.77-3.38,1.16-5.01,1.9-.54.25-1.03.43-1.54-.03Z"/><path class="cls-2" d="m76.83,33.99c.65-1.08,1.99-1.51,2.89-1.74,1.97-.52,3.85-1.35,5.84-1.77.95.3,1.73.89,2.46,1.54-1.79,1.43-4.14,1.54-6.13,2.52-.51.25-1.08.55-1.68.67-1.13-.41-2.25-.81-3.38-1.22Z"/><path class="cls-2" d="m47.67,44.09c-1.2.31-2.41.57-3.55,1.1-1.8.85-3.69,1.46-5.63,1.94.28-.97.67-1.91,1.21-2.77.93-.78,2.12-.93,3.22-1.29,1.97-.64,3.89-1.42,5.84-2.09.42-.15.97-.46,1.08.38-.72.91-1.45,1.82-2.17,2.73Z"/><path class="cls-2" d="m59.64,85.61c-1.13,1.14-2.62,1.54-4.09,1.94-.99.27-1.88.66-2.67,1.31-1.21-.43-2.38-.91-3.42-1.69.64-1.43,2.02-2.43,3.34-2.34.49.03.9-.13,1.33-.26,1.79.57,3.63.89,5.5,1.04Z"/><path class="cls-2" d="m83.67,77.27c.27-1.03.55-2.06.82-3.09,1.47-1.18,3.28-1.64,4.98-2.3,1.31-.5,2.01.27,1.85,1.75.01.64.06,1.28-.28,1.86-1.89.72-3.91,1.02-5.79,1.8-.5.2-1.06.44-1.57-.02Z"/><path class="cls-2" d="m91.59,63.43c-1.36-.01-2.67.37-3.83.93-.96.46-1.86.63-2.86.61,0-.92,0-1.85,0-2.77,1.15-.5,2.06-1.52,3.42-1.55.21,0,.39-.13.5-.31.81-1.25,1.77-.89,2.77-.29,0,1.13,0,2.25,0,3.38Z"/><path class="cls-2" d="m76.95,80.06c-1.81.79-3.83,1.01-5.58,2.01-.57.32-1.27.31-1.93.1,1.2-1.11,2.29-2.32,3.23-3.67,1.03-.64,1.97-1.47,3.24-1.61.58-.06.66-.57.95-.9.28-.33.66-.53,1.09-.38.5.18.73.54.46,1.08-.41,1.16-.68,2.37-1.46,3.37Z"/><path class="cls-2" d="m44.65,49.91c-.33,1.13-.65,2.26-.98,3.39-1.73.63-3.41,1.37-5.08,2.13-.66.3-1.34.56-2,0-.09-.95.05-1.87.35-2.78.19-.75.95-.76,1.45-.96,1.87-.75,3.84-1.25,5.72-1.98.19-.07.4.05.54.2Z"/><path class="cls-2" d="m49.84,41.35c-.97-.41-1.8.21-2.56.53-2.46,1.06-5,1.81-7.58,2.47.35-.9.75-1.77,1.41-2.5,2.15.44,3.78-.95,5.57-1.67,1.56-.63,3.27-.77,4.75-1.61.32-.18.81-.16,1.13.21-.9.86-1.81,1.72-2.71,2.57Z"/><path class="cls-2" d="m35.62,92.41c1.05-.98,2.21-1.76,3.71-1.78.57,0,.92-.34,1.33-.62.54-.38,1.08-.73,1.78-.44.82.59,1.65,1.18,2.47,1.78.16.36-.12.42-.34.52-2.28,1.01-4.62,1.82-7.07,2.32-.73-.48-1.36-1.07-1.88-1.77Z"/><path class="cls-2" d="m84.9,52.05c2.14-1.08,4.41-1.8,6.7-2.46,0,.92,0,1.85,0,2.77-.39.82-1.22,1.07-1.95,1.33-1.53.56-3.04,1.3-4.75,1.13v-2.77Z"/><path class="cls-2" d="m43,80.05c.02.62.04,1.24.06,1.86-.47,1.72-1.57,2.68-3.15,2.75-1.65.07-2.79-.75-3.35-2.44-.09-.13-.11-.26-.03-.4,1.87-.6,3.5-1.89,5.58-1.89.3,0,.61-.06.89.12Z"/><path class="cls-2" d="m82.43,28.89c-2.67,1.3-5.46,2.31-8.29,3.2-.66.21-1.43.27-1.9.9-.72-.02-1.44-.05-2.16-.07-.71-.34-.99-.76-.04-1.1,2.19-.78,4.42-1.47,6.61-2.25,1.23-.44,2.42-1.01,3.63-1.52.64.49,1.58.21,2.16.85Z"/><path class="cls-2" d="m83.67,77.27c1.85-.57,3.7-1.17,5.57-1.68.56-.15,1.17-.71,1.8-.1-.02.96-.2,1.87-.64,2.73-1.25-.9-2.18.2-3.17.58-1.46.55-2.88,1.14-4.48.94.31-.82.62-1.64.93-2.46Z"/><path class="cls-2" d="m37.5,94.18c.34-1.17,1.45-.46,2.17-.84,1.64-.87,3.49-1.36,5.25-2,.71.41,1.43.81,2.14,1.22-.8,1.5-2.38,1.39-3.7,1.77-1.26.37-2.62.46-3.41,1.73-.94-.47-1.71-1.15-2.45-1.88Z"/><path class="cls-2" d="m91.6,60.05c-.49.31-.9-.24-1.4-.13-.25.05-.63-.21-.81.13-.83,1.58-2.74,1.12-3.89,2.1-.12.11-.39.04-.6.06,0-1.03,0-2.05,0-3.08,1.71-.98,3.63-1.44,5.41-2.25.48-.22,1-.18,1.28.4,0,.92,0,1.85,0,2.77Z"/><path class="cls-2" d="m91.24,45.28c-1.79,1.7-4.13,2.25-6.34,3.07,0-.76-.12-1.56.05-2.28.33-1.41,1.3-2.33,2.74-2.56,1.55-.25,2.79.33,3.55,1.77Z"/><path class="cls-2" d="m44.65,49.91c-2.5,1.12-5.26,1.51-7.72,2.74.05-.96.33-1.86.63-2.76.92.19,1.57-.49,2.36-.7,1.79-.46,3.39-1.44,5.22-1.83.81-.17.16.42.39.46-.22.72-.44,1.45-.88,2.08Z"/><path class="cls-2" d="m91.32,73.63c-.17-1.45-.96-1.87-2.23-1.26-1.49.71-2.97,1.45-4.6,1.8.02-.93.1-1.85.37-2.75,2.05-1.34,4.22-2.29,6.74-2.15.04,1.46.21,2.93-.28,4.35Z"/><path class="cls-2" d="m54.13,84.57c-.22.39-.5,1.04-.95.77-1.26-.76-1.88,0-2.47.86-.33.48-1.11.3-1.26.97-1.26-.65-2.39-1.48-3.35-2.52-.12-.45.2-.69.49-.85,1.18-.62,2.33-1.39,3.76-1.3,1.11.95,2.57,1.28,3.77,2.07Z"/><path class="cls-2" d="m80.2,35.21c.44-1.32,1.82-1.02,2.73-1.47,1.59-.79,3.38-1.17,5.08-1.72.8.38,1.49.92,2.09,1.57-2.4,1.41-5.07,2.09-7.73,2.82-.72-.4-1.45-.8-2.17-1.19Z"/><path class="cls-2" d="m53.22,57.04c-.03,6.17-.06,12.34-.11,18.51,0,.6.16,1.23-.2,1.79-.71-.7-.44-1.6-.48-2.43-.02-.47-.04-.93,0-1.4-.03-1.21-.04-2.42,0-3.62-.05-1.2,0-2.4,0-3.6-.03-1.04,0-2.07.02-3.11.01-.7.07-1.41.03-2.12-.06-1.3-.33-1.49-1.44-.9-.79.42-1.59.58-2.46.49.02-.93.03-1.85.05-2.78.99-1.28,2.43-1.43,3.88-1.52.36-.02.85.07.71.68Z"/><path class="cls-2" d="m77.8,87.12c1.86-.5,3.8-.47,5.64-1.37,1.06-.52,2.19-1.05,3.34-1.47.43-.16.86-.42,1.19.15-.45.7-.58,1.57-1.23,2.15-.31-.56-.71-.18-1.06-.1-3.12.76-6.16,1.75-9.1,3.07-.45.2-.89.46-.97-.34.66-.77,1.31-1.56,2.19-2.1Z"/><path class="cls-2" d="m75.03,54.82c-.02-.3-.06-.61-.05-.91.03-1.65.91-2.71,2.27-2.71,1.28,0,2.32,1.14,2.33,2.72.02,5.77,0,11.53,0,17.3,0,.41.02.82-.23,1.18-.56-.52-.46-1.2-.47-1.86-.03-.92-.03-1.84,0-2.75-.03-.81-.02-1.63,0-2.44-.04-.54,0-1.08,0-1.61-.03-.8-.02-1.6,0-2.4-.01-.61-.03-1.22,0-1.83-.01-.74,0-1.48,0-2.21.02-.4.03-.81.04-1.22.03-1.89.02-1.9-1.83-1.27-.69.24-1.37.83-2.07.03Z"/><path class="cls-2" d="m75.94,46.79c-1.14-.47-2.28-.94-3.41-1.42-.43-.47-.71-1.15.07-1.3,1.78-.35,3.4-1.34,5.27-1.29,1.02.46,1.96,1.03,2.73,1.86-.79,1.56-2.59,1.13-3.78,1.9-.24.15-.59.13-.87.25Z"/><path class="cls-2" d="m84.9,54.81c2.24-.8,4.61-1.23,6.69-2.46,0,1.02,0,2.05,0,3.07-1.81.94-3.84,1.3-5.71,2.09-.34.14-.7.02-.99-.24,0-.82,0-1.64,0-2.46Z"/><path class="cls-2" d="m91.6,69.27c-2.32.5-4.5,1.42-6.74,2.15.01-.93.03-1.85.04-2.78,1.3-.35,2.61-.53,3.86-1.2.74-.39,1.85-.57,2.83-.64,0,.82,0,1.64,0,2.46Z"/><path class="cls-2" d="m48.58,60.66c1.07-.43,2.12-.91,3.21-1.28.69-.24,1.07.14,1.07.85,0,.87-.01,1.73-.02,2.6-.99,1.62-2.7,1.55-4.26,1.83,0-1.33,0-2.67,0-4Z"/><path class="cls-2" d="m78.41,76.69c-.06-.42-.14-.89-.67-.85-.46.04-.91.25-.83.87.04.27.05.6-.3.52-1.57-.33-2.53,1.16-3.94,1.26.72-1.28,1.29-2.63,1.79-4.02,1.1-1,2.56-1.21,3.87-1.75.39-.16.78.09.95.53-.1,1.19-.29,2.36-.86,3.43Z"/><path class="cls-2" d="m82.37,36.4c.24-.78,1.03-.56,1.54-.75,2.04-.76,4.12-1.39,6.19-2.07.52.37,1.12.65,1.43,1.25-.69.95-1.83,1.07-2.8,1.46-1.37.55-2.75,1.1-4.17,1.51-.73-.47-1.46-.94-2.19-1.4Z"/><path class="cls-2" d="m56.53,50.11c-1.22-.88-2.2.26-3.29.42-.87.13-1.67.71-2.62.56.34-.76.71-1.51,1.29-2.12,2.44-.23,4.62-1.36,6.94-2.03.53-.15,1.07-.72,1.69-.18-1.74.64-2.62,2.29-4.01,3.35Z"/><path class="cls-2" d="m52.84,69.89c0,1.23,0,2.45,0,3.68-.91.27-1.84.4-2.71.83-.49.24-1.08.23-1.54-.21,0-1.03,0-2.05,0-3.08,1.28-.89,2.56-1.8,4.26-1.23Z"/><path class="cls-2" d="m48.58,64.65c1.33-.83,3.05-.73,4.26-1.83,0,1.13,0,2.26,0,3.39-1.12,1.31-2.65,1.65-4.26,1.83,0-1.13,0-2.26,0-3.39Z"/><path class="cls-2" d="m48.59,68.04c1.42-.61,2.84-1.22,4.26-1.83,0,1.23,0,2.45,0,3.68-1.55-.05-2.78,1.02-4.26,1.23,0-1.03,0-2.05,0-3.08Z"/><path class="cls-2" d="m75.03,54.82c1.51.27,2.69-.87,4.27-.97v3.13c-1.3.84-2.69,1.36-4.27,1.22,0-1.13,0-2.25,0-3.38Z"/><path class="cls-2" d="m84.56,37.8c.38-.82,1.23-.77,1.91-1.03,1.69-.65,3.37-1.29,5.06-1.93.62.35,1.1.82,1.3,1.52-1.68.32-3.29.88-4.78,1.67-.67.36-1.71-.16-2.04.89-.49-.38-.97-.75-1.46-1.13Z"/><path class="cls-2" d="m77.86,42.78c-1.62.55-3.13,1.41-4.92,1.45-.77.02-.61.63-.42,1.13-.71-.15-1.43-.3-2.14-.45-.34-.47-1-.04-1.51-.68,1.51-.6,2.95-1.17,4.4-1.74.63-.25,1.44-.19,1.77-.98.97.35,2,.58,2.82,1.26Z"/><path class="cls-2" d="m81.67,45.61c1.27,1.27,1.47,2.43.58,3.43-1,1.13-2.19,1.08-3.6-.16-.3-.26-.6-.54-.89-.81-.32-.47-.06-.82.32-.98,1.2-.49,2.26-1.31,3.59-1.49Z"/><path class="cls-2" d="m52.84,74.81c.03.84.05,1.69.08,2.53-.26,1.46-1.28,1.96-2.57,1.72-1.4-.27-2.02-1.26-1.76-2.71,1.39-.6,2.56-1.78,4.25-1.53Z"/><path class="cls-2" d="m50.36,82.5c-1.35.86-3.1.9-4.26,2.15-1.11-1.23-1.24-2.59-.34-3.49.85-.85,2.25-.79,3.39.27.4.37,1.06.44,1.21,1.07Z"/><path class="cls-2" d="m84.9,57.28c1.9-.16,3.48-1.38,5.35-1.64.45-.06.9-.14,1.35-.2,0,.61,0,1.23,0,1.84-.92-.49-1.66.1-2.41.46-1.37.65-2.76,1.24-4.29,1.39,0-.62,0-1.23,0-1.85Z"/><path class="cls-2" d="m79.27,73.26c-.45-.31-.95-.39-1.39-.05-1.02.78-2.26.91-3.43,1.28.18-.92.36-1.84.54-2.76,1.26-1.04,2.61-1.73,4.3-1.23.01.63.03,1.26.04,1.89-.02.29-.05.58-.07.87Z"/><path class="cls-2" d="m79.3,70.5c-1.52.11-2.88.8-4.3,1.23.01-.92.02-1.85.03-2.77,1.31-.78,2.59-1.69,4.27-1.23,0,.92,0,1.85,0,2.77Z"/><path class="cls-2" d="m36.58,55.43c2.02.07,3.5-1.37,5.31-1.88.58-.16,1.1-.8,1.78-.25-.09.61-.44,1.17-.33,1.82-2.11,0-3.82,1.42-5.86,1.7-.3.04-.59.1-.89.15-.25-.42-.22-.85-.03-1.28-.04-.09-.03-.18.02-.26Z"/><path class="cls-2" d="m79.3,61.28c0,.82,0,1.64,0,2.47-1.27.95-2.67,1.44-4.27,1.22,0-.82,0-1.64,0-2.46,1.34-.69,2.57-1.79,4.27-1.23Z"/><path class="cls-2" d="m75.03,58.19c1.42-.41,2.85-.82,4.27-1.22,0,.82,0,1.64,0,2.46-1.38.51-2.67,1.44-4.27.92,0-.72,0-1.44,0-2.16Z"/><path class="cls-2" d="m79.29,67.73c-1.51.12-2.78,1.05-4.27,1.23,0-.72,0-1.44,0-2.15,1.33-.76,2.57-1.79,4.27-1.54,0,.82,0,1.64,0,2.46Z"/><path class="cls-2" d="m75.03,60.35c1.48-.07,2.74-1.12,4.27-.92,0,.62,0,1.23,0,1.85-1.55-.04-2.73,1.24-4.27,1.23,0-.72,0-1.44,0-2.15Z"/><path class="cls-2" d="m52.84,74.81c-1.48.35-2.64,1.57-4.25,1.53,0-.72,0-1.44,0-2.15.8.03,1.6.05,2.29-.46.63-.47,1.29-.43,1.97-.16,0,.41,0,.83,0,1.24Z"/><path class="cls-2" d="m81.67,45.61c-.87.69-1.85,1.16-2.89,1.53-.47.17-.97.3-1.02.94-.61-.43-1.22-.86-1.83-1.29.65-.91,1.74-1,2.66-1.24.75-.2,1.37-.52,2-.91.46.22.84.51,1.08.97Z"/><path class="cls-2" d="m53.22,57.04c-.96-.87-1.88-.04-2.79.11-.62.11-1.2.47-1.8.72.1-.61.19-1.22.29-1.83,1.32.02,2.41-.76,3.64-1.08.44-.11.81-.43,1.27-.14-.2.73-.41,1.47-.61,2.2Z"/><path class="cls-2" d="m79.29,65.28c-1.5.29-2.72,1.37-4.27,1.54,0-.62,0-1.23,0-1.85,1.42-.41,2.85-.82,4.27-1.22,0,.51,0,1.02,0,1.53Z"/><path class="cls-2" d="m36.56,55.69c0,.43.02.85.03,1.28,0,1.23,0,2.46,0,3.69.57.6.4,1.35.42,2.07-.02.8.11,1.61-.23,2.38-.1.18-.25.24-.44.17.03-3.19-.34-6.4.23-9.58Z"/><path class="cls-2" d="m36.34,65.27c.08,0,.16,0,.24,0,.14.12.24.27.31.45.22.98.12,1.98.13,2.97.02,1.07.04,2.14,0,3.21-.02.79.11,1.6-.23,2.36-.1.16-.25.24-.44.24,0-3.08,0-6.15,0-9.23Z"/><path class="cls-2" d="m36.33,74.5c.08,0,.16,0,.24,0,.06.06.12.13.18.19.33.66.22,1.38.25,2.08.05.8.01,1.61.01,2.41,0,.92.2,1.87-.41,2.7-.02.11-.03.23-.05.34-.59-2.56-.18-5.15-.22-7.73Z"/><path class="cls-2" d="m57.71,89.9c1.38,0,2.76,0,4.14,0-1.38.37-2.76.38-4.14,0Z"/><path class="cls-2" d="m60.87,98.18c-.91.34-1.71,1.02-2.77.92.72-.91,1.66-1.17,2.77-.92Z"/><path class="cls-2" d="m63.94,96.65c-.62.81-1.47,1.17-2.46,1.23.66-.73,1.5-1.11,2.46-1.23Z"/><path class="cls-2" d="m54.1,100.34c-.32.45-.81.26-1.23.31.21-.91.65-.89,1.23-.31Z"/><path class="cls-2" d="m55.64,99.72c-.23.33-.23.99-.92.62.04-.6.25-.95.92-.62Z"/><path class="cls-2" d="m36.58,68.66c0-1.03,0-2.05,0-3.08,1.59-1.02,3.51-1.22,5.17-2.07.47-.24,1-.03,1.25.53,0,.93,0,1.85,0,2.78-1.73,1.14-3.71,1.66-5.67,2.22-.34.1-.59-.08-.75-.38Z"/><path class="cls-2" d="m43,64.04c-.63-.38-1.16-.28-1.83.09-1.42.79-2.98,1.24-4.6,1.45,0-.1,0-.21,0-.31,0-.82,0-1.64,0-2.46,1.92-1.38,3.99-2.31,6.42-2.15,0,1.12,0,2.25,0,3.37Z"/><path class="cls-2" d="m36.6,81.88c0-.92-.02-1.85-.02-2.77.86-.93,2.06-1.26,3.2-1.6,1.06-.31,2.19-.38,3.22-.85,0,1.13,0,2.26,0,3.38-2.27.12-4.16,1.59-6.39,1.83Z"/><path class="cls-2" d="m36.58,68.66c1.01.26,1.84-.32,2.71-.62,1.23-.42,2.43-.97,3.72-1.22,0,.93,0,1.85,0,2.78-.19.38-.46.68-.87.8-1.57.43-3.07,1.03-4.55,1.7-.33.15-.68.23-1-.05,0-1.13,0-2.25,0-3.38Z"/><path class="cls-2" d="m36.58,72.04c2.14-.82,4.28-1.63,6.42-2.45,0,1.02,0,2.04,0,3.07-2.07.86-4.07,1.94-6.42,1.84,0,0,0,0,0,0,0-.82,0-1.64,0-2.46Z"/><path class="cls-2" d="m36.58,74.5c2.17-.52,4.16-1.63,6.42-1.84,0,.72,0,1.44,0,2.16-1.37,1.28-5.14,2.36-6.42,1.83,0-.72,0-1.44,0-2.15Z"/><path class="cls-2" d="m43.01,60.66c-2.22.47-4.3,1.38-6.42,2.15,0-.72,0-1.44,0-2.15,1.96-.76,3.92-1.52,5.89-2.28.43-.17.54.12.55.45.01.61,0,1.22-.01,1.83Z"/><path class="cls-2" d="m36.58,76.65c2.36.15,4.2-1.52,6.42-1.83,0,.62,0,1.23,0,1.85-.57.56-1.19.92-2.04,1-1.55.15-2.92.96-4.37,1.45,0-.82,0-1.64,0-2.46Z"/></g></svg>