<?xml version="1.0" encoding="utf-8"?>
<!-- Generator: Adobe Illustrator 26.5.0, SVG Export Plug-In . SVG Version: 6.00 Build 0)  -->
<svg version="1.1" id="Layer_1" xmlns="http://www.w3.org/2000/svg" xmlns:xlink="http://www.w3.org/1999/xlink" x="0px" y="0px"
	 viewBox="0 0 128 128" style="enable-background:new 0 0 128 128;" xml:space="preserve">
<style type="text/css">
	.st0{opacity:0.9;fill:#FFFFFF;enable-background:new    ;}
	.st1{fill:url(#SVGID_1_);}
	.st2{fill-rule:evenodd;clip-rule:evenodd;fill:url(#SVGID_00000176041133404516285010000010789820079321021079_);}
</style>
<g>
	<circle class="st0" cx="64" cy="64" r="63.5"/>
	
		<linearGradient id="SVGID_1_" gradientUnits="userSpaceOnUse" x1="70.2768" y1="97.2262" x2="70.0519" y2="-17.0422" gradientTransform="matrix(1 0 0 -1 0 130)">
		<stop  offset="0" style="stop-color:#FF2E72"/>
		<stop  offset="0.9349" style="stop-color:#4A125E"/>
	</linearGradient>
	<path class="st1" d="M79.1,60.7c-1.9,1.7-5,2.6-9.5,2.6H49.8v30.3h8.3V71.2h12.6c4,0,7.4-0.7,10.4-2.2l0,0c3-1.5,5.4-3.6,7.1-6.3
		c1.7-2.7,2.5-6,2.5-9.7c0-3.7-0.8-7.4-2.5-10.2c-1.7-2.7-4.1-4.8-7.1-6.3c-3-1.5-6.4-2.2-10.4-2.2h-21v7.9h19.9
		c4.5,0,7.6,0.9,9.5,2.6c1.9,1.7,2.9,4.7,2.9,8.2C82.1,56.4,81.1,59,79.1,60.7z"/>
	
		<linearGradient id="SVGID_00000061461545955422293370000010082331340334646439_" gradientUnits="userSpaceOnUse" x1="64.0615" y1="97.2384" x2="63.8366" y2="-17.03" gradientTransform="matrix(1 0 0 -1 0 130)">
		<stop  offset="0" style="stop-color:#FF2E72"/>
		<stop  offset="0.9349" style="stop-color:#4A125E"/>
	</linearGradient>
	<path style="fill-rule:evenodd;clip-rule:evenodd;fill:url(#SVGID_00000061461545955422293370000010082331340334646439_);" d="
		M127.5,64c0,35.1-28.4,63.5-63.5,63.5C28.9,127.5,0.5,99.1,0.5,64C0.5,28.9,28.9,0.5,64,0.5C99.1,0.5,127.5,28.9,127.5,64z
		 M119.2,64c0,30.5-24.7,55.2-55.2,55.2S8.8,94.5,8.8,64C8.8,33.5,33.5,8.8,64,8.8S119.2,33.5,119.2,64z"/>
</g>
</svg>
