<?xml version="1.0" encoding="utf-8"?>
<!-- Generator: Adobe Illustrator 25.4.1, SVG Export Plug-In . SVG Version: 6.00 Build 0)  -->
<svg version="1.1" id="Layer_1" xmlns="http://www.w3.org/2000/svg" xmlns:xlink="http://www.w3.org/1999/xlink" x="0px" y="0px"
	 width="128px" height="128px" viewBox="0 0 128 128" style="enable-background:new 0 0 128 128;" xml:space="preserve">
<style type="text/css">
	.st0{fill:#EEF4F4;}
	.st1{fill:url(#SVGID_1_);}
	.st2{fill:url(#SVGID_00000146468752947907774810000007975714804078974358_);}
	.st3{fill:url(#SVGID_00000064328811825093751310000009118274894386351021_);}
	.st4{fill:url(#SVGID_00000135685356743748412720000008600283427507459975_);}
</style>
<circle class="st0" cx="64" cy="64" r="63.5"/>
<g>
	
		<linearGradient id="SVGID_1_" gradientUnits="userSpaceOnUse" x1="109.6693" y1="83.2631" x2="18.253" y2="46.706" gradientTransform="matrix(1 0 0 -1 0 129)">
		<stop  offset="0" style="stop-color:#C200FB"/>
		<stop  offset="0.4897" style="stop-color:#3772FF"/>
		<stop  offset="0.4898" style="stop-color:#3773FE"/>
		<stop  offset="1" style="stop-color:#5AC4BE"/>
	</linearGradient>
	<path class="st1" d="M102.6,51.6v34.7L64,108.6L25.4,86.3V41.7L64,19.4l29.7,17.1l4.5-2.6L64,14.2L20.9,39.1v49.8L64,113.8
		l43.1-24.9V49L102.6,51.6z"/>
	
		<linearGradient id="SVGID_00000155128005650971771680000004969646913766089894_" gradientUnits="userSpaceOnUse" x1="107.9044" y1="87.6764" x2="16.4881" y2="51.1192" gradientTransform="matrix(1 0 0 -1 0 129)">
		<stop  offset="0" style="stop-color:#C200FB"/>
		<stop  offset="0.4897" style="stop-color:#3772FF"/>
		<stop  offset="0.4898" style="stop-color:#3773FE"/>
		<stop  offset="1" style="stop-color:#5AC4BE"/>
	</linearGradient>
	<path style="fill:url(#SVGID_00000155128005650971771680000004969646913766089894_);" d="M53.2,86.3h-6.5V64.7h21.5
		c2,0,4-0.8,5.4-2.3c1.4-1.4,2.2-3.4,2.2-5.4c0-1-0.2-2-0.6-2.9c-0.4-0.9-1-1.8-1.7-2.5c-0.7-0.7-1.5-1.3-2.5-1.7
		c-0.9-0.4-1.9-0.6-2.9-0.6H46.7v-6.6h21.6c3.8,0,7.4,1.5,10.1,4.2c2.7,2.7,4.2,6.3,4.2,10.1c0,2.9-0.9,5.7-2.5,8.1
		c-1.5,2.3-3.7,4-6.2,5.1c-2.5,0.8-5.1,1.2-7.7,1.2H53.2L53.2,86.3z"/>
	
		<linearGradient id="SVGID_00000093169215638932527150000016932153049657561511_" gradientUnits="userSpaceOnUse" x1="117.0453" y1="64.8183" x2="25.629" y2="28.2612" gradientTransform="matrix(1 0 0 -1 0 129)">
		<stop  offset="0" style="stop-color:#C200FB"/>
		<stop  offset="0.4897" style="stop-color:#3772FF"/>
		<stop  offset="0.4898" style="stop-color:#3773FE"/>
		<stop  offset="1" style="stop-color:#5AC4BE"/>
	</linearGradient>
	<path style="fill:url(#SVGID_00000093169215638932527150000016932153049657561511_);" d="M82.4,85.8h-7.5L69,75.6
		c2.3-0.1,4.6-0.6,6.7-1.4L82.4,85.8z"/>
	
		<linearGradient id="SVGID_00000012432848389119446510000015648867631016117685_" gradientUnits="userSpaceOnUse" x1="107.2926" y1="89.1878" x2="15.8763" y2="52.6307" gradientTransform="matrix(1 0 0 -1 0 129)">
		<stop  offset="0" style="stop-color:#C200FB"/>
		<stop  offset="0.4897" style="stop-color:#3772FF"/>
		<stop  offset="0.4898" style="stop-color:#3773FE"/>
		<stop  offset="1" style="stop-color:#5AC4BE"/>
	</linearGradient>
	<path style="fill:url(#SVGID_00000012432848389119446510000015648867631016117685_);" d="M98.1,44.4l4.5,2.5l4.5-2.5v-5.2l-4.5-2.6
		l-4.5,2.6V44.4z"/>
</g>
</svg>
