<?xml version="1.0" encoding="utf-8"?>
<!-- Generator: Adobe Illustrator 26.0.2, SVG Export Plug-In . SVG Version: 6.00 Build 0)  -->
<svg version="1.1" id="Layer_1" xmlns="http://www.w3.org/2000/svg" xmlns:xlink="http://www.w3.org/1999/xlink" x="0px" y="0px"
	 width="128px" height="128px" viewBox="0 0 128 128" style="enable-background:new 0 0 128 128;" xml:space="preserve">
<style type="text/css">
	.st0{fill:#383A3C;}
	.st1{fill:#FFFFFF;}
</style>
<circle class="st0" cx="64" cy="64" r="63.5"/>
<g>
	<path class="st1" d="M68.8,102.7c0-0.6,0-1.1,0-1.7c0-11.9,0-23.8,0-35.7c0-2.3,0.2-2.5,2.5-2.5c5.4,0,10.8,0,16.3,0
		c1.5,0,2.3,0.7,3,1.9c2.7,5.1,3,10.4,1.6,15.9c-2.5,10-8.6,17-18.4,20.5c-1.5,0.6-3.1,1.1-4.6,1.6
		C69.2,102.8,69.1,102.7,68.8,102.7z"/>
	<path class="st1" d="M59.2,102.5c-17.5-4-24.8-17.4-24.2-30.4c0.1-2.9,1.1-5.7,2.7-8.2c0.5-0.9,1.3-1.4,2.3-1.4
		c5.8,0,11.7,0,17.5-0.1c1.1,0,1.5,0.6,1.5,1.6c0,1.2,0.1,2.5,0.1,3.7c0,11,0.1,21.9,0.1,32.9C59.2,101.3,59.2,101.8,59.2,102.5z"/>
	<path class="st1" d="M40,59.1c0.5-2.9,2.3-4.8,5.3-4.8c12.1,0.1,24.1,0,36.2-0.1c2.8,0,5,1.7,6,4.6c-0.7,0-1.4,0.1-2,0.1
		c-6,0-12,0.1-18,0c-1.2,0-1.4,0.4-1.4,1.5c0,13.2,0,26.4,0,39.5c0,2.5-0.8,3.2-3.3,2.6c-0.3-0.1-0.6-0.6-0.7-0.9
		c-0.1-0.3,0-0.7,0-1c0-13.2,0-26.4,0-39.7c0-1.8,0-1.9-1.9-1.9c-6.1,0-12.3,0-18.4,0C41.1,59.1,40.6,59.1,40,59.1z"/>
	<path class="st1" d="M63.5,42c-4.6,0-9.6-4.4-10.1-9c-0.1-0.7,0.1-1.5,0.3-2.1c1.6-3.6,3.4-7.2,5-10.8c1-2.1,2.7-3,4.8-3
		c2.3,0,4.5,0.8,5.6,3.2c1.5,3.2,3,6.4,4.4,9.6c0.4,0.9,0.5,1.9,0.4,2.9C73.3,37.8,68.4,42,63.5,42z"/>
	<path class="st1" d="M97.7,102.6c-1.7,0-3.4-0.1-5.1,0c-1.4,0.1-2.2-0.7-2.8-1.9c-1.9-3.9-0.6-9.1,2.8-11.9
		c1.9-1.6,4.2-2.5,6.7-2.5c0.7,0,1.8,0.5,2.1,1.1c1.7,3.3,3.5,6.7,4.9,10.1c1.1,2.8-0.5,4.9-3.5,5
		C101.1,102.6,99.4,102.6,97.7,102.6C97.7,102.6,97.7,102.6,97.7,102.6z"/>
	<path class="st1" d="M29.8,102.7c-1.6,0-3.2,0-4.7,0c-2.8,0-4.6-2.2-3.5-4.8c1.4-3.4,3.1-6.6,4.8-9.9c0.2-0.4,1-0.8,1.6-0.9
		c6.3-0.1,11.5,6.3,10.1,12.3c-0.6,2.6-1.3,3.2-3.9,3.2C32.7,102.7,31.3,102.7,29.8,102.7C29.8,102.7,29.8,102.7,29.8,102.7z"/>
	<path class="st1" d="M79,51c-10.7,0-21.5,0-32.2,0c1.3-1.9,9.7-5.3,14-5.5C67.6,45,73.9,46.1,79,51z"/>
	<path class="st1" d="M81.9,47.4c-3.3-1.5-6.5-3-10-4.7c1.6-2.2,3.1-4.3,4.7-6.6c1.9,3.8,3.7,7.4,5.5,11.1
		C82,47.3,81.9,47.3,81.9,47.4z"/>
	<path class="st1" d="M50.8,36.8c1.6,2.1,3.1,3.9,4.7,6c-3.1,1.4-6.1,2.7-9.1,4.1c-0.1-0.1-0.2-0.1-0.3-0.2
		C47.7,43.4,49.2,40.2,50.8,36.8z"/>
	<path class="st1" d="M85.8,96.9c0.5,2,0.9,3.7,1.3,5.5c-2.9,0-5.6,0-8.3,0c0-0.1-0.1-0.2-0.1-0.2C81,100.5,83.3,98.8,85.8,96.9z"/>
	<path class="st1" d="M99.3,82.7c-1.9,0.5-3.6,1-5.6,1.6c0.6-3.2,1.2-6,1.7-8.9c0.1,0,0.2,0,0.3,0C96.9,77.8,98,80.1,99.3,82.7z"/>
	<path class="st1" d="M48.6,102.5c-2.6,0-5.2,0-8,0c0.3-1.8,0.6-3.6,0.9-5.6c2.6,1.9,4.9,3.6,7.3,5.4
		C48.7,102.4,48.6,102.4,48.6,102.5z"/>
	<path class="st1" d="M32,76.6c0.6,2.8,1.2,5.5,1.9,8.6c-2-0.5-3.7-1-5.6-1.5c1.2-2.5,2.3-4.8,3.3-7.1C31.7,76.6,31.9,76.6,32,76.6z
		"/>
</g>
</svg>
