<?xml version="1.0" encoding="UTF-8"?><svg id="Layer_1" xmlns="http://www.w3.org/2000/svg" xmlns:xlink="http://www.w3.org/1999/xlink" viewBox="0 0 128 128"><defs><style>.cls-1{clip-path:url(#clippath);}.cls-2{fill:none;}.cls-2,.cls-3,.cls-4,.cls-5,.cls-6{stroke-width:0px;}.cls-3{fill:#125462;filter:url(#drop-shadow-3);}.cls-4{fill:#29aad1;filter:url(#drop-shadow-2);}.cls-5{fill:#1c1c1c;}.cls-6{fill:#fff;}</style><clipPath id="clippath"><circle class="cls-2" cx="65.15" cy="-81.93" r="63.5"/></clipPath><filter id="drop-shadow-2" filterUnits="userSpaceOnUse"><feOffset dx="-3" dy="0"/><feGaussianBlur result="blur" stdDeviation="2"/><feFlood flood-color="#000" flood-opacity=".04"/><feComposite in2="blur" operator="in"/><feComposite in="SourceGraphic"/></filter><filter id="drop-shadow-3" filterUnits="userSpaceOnUse"><feOffset dx="-3" dy="0"/><feGaussianBlur result="blur-2" stdDeviation="3"/><feFlood flood-color="#000" flood-opacity=".15"/><feComposite in2="blur-2" operator="in"/><feComposite in="SourceGraphic"/></filter></defs><circle class="cls-5" cx="64" cy="64" r="63.5"/><g class="cls-1"><polygon class="cls-4" points="132.12 -149.05 48.08 9.11 142.43 2.99 132.12 -149.05"/><polygon class="cls-3" points="146.63 -134.53 62.59 23.62 156.95 17.51 146.63 -134.53"/></g><g id="TOKEN"><path class="cls-6" d="m72.22,59.06c-.37.13-.75.07-1.13.07-4.61,0-9.23,0-13.85,0-.15,0-.31-.02-.46,0-.58.07-.86-.13-.8-.77.05-.54,0-1.08,0-1.63,0-2.75,0-5.5,0-8.25,0-1.25.12-1.09-1.12-1.09-5.87,0-11.75-.02-17.62,0-2.02,0-3.46-.8-4.35-2.74-1.69-3.68-3.51-7.31-5.27-10.96-.12-.24-.24-.48-.35-.73-.48-1.14-.07-1.91,1.14-2.06.34-.04.68-.02,1.03-.02h69.12c.46,0,.92-.05,1.36.09.89.27,1.2.91.87,1.8-.07.18-.16.35-.25.52-1.86,3.86-3.75,7.7-5.58,11.58-.83,1.76-2.2,2.51-4.02,2.51-5.61.02-11.21.01-16.82.02-.23,0-.46,0-.69,0-1.23.01-1.1-.15-1.1,1.11,0,3.25,0,6.51,0,9.76,0,.27.06.54-.11.8h0Z"/><path class="cls-6" d="m64.2,75.68c2.4,0,4.8,0,7.21,0,.89,0,.91.01.91.85,0,4.3,0,8.6,0,12.89,0,.79-.19,1.52-.54,2.23-1.96,4.02-3.9,8.05-5.86,12.08-.32.65-.6,1.38-1.51,1.39-.91.01-1.21-.7-1.53-1.36-2.15-4.4-4.29-8.81-6.44-13.21-.31-.64-.43-1.32-.43-2.02,0-4.03,0-8.05-.03-12.08,0-.64.21-.79.79-.78,2.48.03,4.96.01,7.43.01h0Z"/><path class="cls-6" d="m72.34,67.32c0-2.44,0-4.88,0-7.32,0-.82.02-.84.8-.84,4.31,0,8.62,0,12.93,0,.19,0,.38.01.57.02,1.07.05,1.87.83,1.2,2.18-1.64,3.28-3.2,6.6-4.8,9.9-.34.7-.69,1.38-1.01,2.08-.63,1.41-1.77,2.16-3.22,2.25-1.98.11-3.96.04-5.94.07-.62,0-.52-.41-.52-.78,0-2.52,0-5.03,0-7.55h0Z"/></g></svg>