<svg id="Layer_1" data-name="Layer 1" xmlns="http://www.w3.org/2000/svg" viewBox="0 0 128 128"><defs><style>.cls-1{fill:#005bcd;}.cls-2{fill:#fefefe;}.cls-3{fill:#a8c9ee;}.cls-4{fill:#77abe4;}.cls-5{fill:#65a0e1;}.cls-6{fill:#eef4fb;}.cls-7{fill:#6aa4e2;}.cls-8{fill:#99c0eb;}.cls-9{fill:#d3e4f6;}.cls-10{fill:#c6dbf3;}.cls-11{fill:#74a9e5;}.cls-12{fill:#a0c4ed;}.cls-13{fill:#bbd5f1;}.cls-14{fill:#a5c8ed;}.cls-15{fill:#8cb8e9;}.cls-16{fill:#b6d1f1;}.cls-17{fill:#80b1e6;}.cls-18{fill:#92bcea;}.cls-19{fill:#005bcc;}.cls-20{fill:#7aaee5;}.cls-21{fill:#87b5e8;}.cls-22{fill:#076ad1;}.cls-23{fill:#3986d9;}.cls-24{fill:#bbd6f2;}.cls-25{fill:#8eb9ea;}.cls-26{fill:#629ee1;}.cls-27{fill:#89b6e9;}.cls-28{fill:#a4c7ed;}.cls-29{fill:#7aade6;}.cls-30{fill:#4f93dd;}</style></defs><circle class="cls-1" cx="64" cy="64" r="63.5"/><path class="cls-2" d="M42.33,29.76c2.19-.06,4-1.41,6.05-1.89,3.14-.71,5.5-3,8.4-4.23a3.8,3.8,0,0,0,1.35-1.08c2.64-3.24,6.25-2.69,9.09-.06a21.62,21.62,0,0,0,7.72,4.59c1.72.59,3.29,1.56,5.09,1.91.34.33.83.38,1.21.64l2.12.14c.55.5,1.41.1,2,.65,3.47.12,7,.43,10.42.31,3.13-.11,4.57,2.32,4.83,4.94a22.74,22.74,0,0,1,0,2.61c-.67,2.53-.14,5.11-.31,7.66-.15,2,.34,4-.31,5.89q-.26,6.7-.49,13.41c-.51.69-.26,1.48-.32,2.22s.19,1.6-.34,2.32l-.09,1.45c-.5.57-.16,1.41-.62,2L98,75.35a7.23,7.23,0,0,0-.63,1.24L97.19,78a8.44,8.44,0,0,0-.62,1.24c-.49,5-2.7,9-5.88,12.8a28.32,28.32,0,0,1-6.17,5.35c-2.74,1.85-5.81,3.19-8.66,4.87-4,2.36-7.89,4.83-11.83,7.25a2.81,2.81,0,0,1-2.7,0A16.08,16.08,0,0,1,56,106.31c-1.85-1.48-4-2.3-6-3.52-3.23-2.05-6.93-3.41-10-5.67s-6-4.43-7.72-8.05c-1.15-2.41-3-4.48-3.16-7.31-.34-.33-.36-.84-.67-1.19l-.1-1.41c-.3-.36-.35-.85-.63-1.21l-.15-2.09A7.32,7.32,0,0,0,27,74.6l-.1-1.42c-.66-.79,0-1.91-.66-2.7l-.47-8.55c-.65-1.5-.17-3.09-.32-4.63s.31-3-.31-4.39c-.25-5.57-.54-11.15-.71-16.72-.1-3.28,2.05-5.33,5.3-5.41,3.54-.08,7.07-.24,10.61-.37C40.93,29.89,41.79,30.29,42.33,29.76Z"/><path class="cls-3" d="M99.92,45.84c0-2,0-4.08,0-6.12,0-.56,0-1.13.62-1.43v7.49A.39.39,0,0,1,99.92,45.84Z"/><path class="cls-4" d="M99.92,45.84l.62-.06c-.14,2,.65,4.15-.62,6.06Z"/><path class="cls-5" d="M25.82,57.13v4.8c-1.26-1.51-.59-3.28-.63-5C25.44,56.82,25.67,56.8,25.82,57.13Z"/><path class="cls-6" d="M25.82,57.13,25.18,57V52.91C26.48,54.15,25.68,55.72,25.82,57.13Z"/><path class="cls-7" d="M98.77,69.79l0-2.58c.16-.3.39-.29.64-.11C99.48,68.06,99.79,69.08,98.77,69.79Z"/><path class="cls-8" d="M26.28,70.48c1,.71.72,1.73.66,2.7C25.87,72.49,26.29,71.43,26.28,70.48Z"/><path class="cls-2" d="M61.33,109.47H64C63.12,110.57,62.22,110.64,61.33,109.47Z"/><path class="cls-9" d="M99.43,67.1l-.64.11c-.05-.74-.29-1.54.64-2Z"/><path class="cls-10" d="M98.06,73.24c-.13-.77-.31-1.56.62-2C98.64,72,99.09,72.83,98.06,73.24Z"/><path class="cls-11" d="M85.31,30.43c-.72,0-1.59.42-2-.65C84.11,29.7,84.85,29.63,85.31,30.43Z"/><path class="cls-12" d="M42.33,29.76c-.4.95-1.18.77-1.95.65C40.8,29.5,41.62,29.78,42.33,29.76Z"/><path class="cls-13" d="M27,74.6a1,1,0,0,1,.61,1.26C26.8,75.76,27,75.15,27,74.6Z"/><path class="cls-14" d="M97.32,76.59A.92.92,0,0,1,98,75.35C98,75.87,98.18,76.51,97.32,76.59Z"/><path class="cls-15" d="M27.8,78c.71.14.7.66.63,1.21C27.73,79,27.65,78.54,27.8,78Z"/><path class="cls-16" d="M96.57,79.21A.93.93,0,0,1,97.19,78C97.26,78.52,97.39,79.11,96.57,79.21Z"/><path class="cls-17" d="M28.53,80.57c.69.14.72.64.67,1.19C28.64,81.55,28.34,81.2,28.53,80.57Z"/><path class="cls-18" d="M81.24,29.64A.88.88,0,0,1,80,29C80.55,29,81.15,28.82,81.24,29.64Z"/><path class="cls-19" d="M34.52,52.91l-.12-3.69a25.48,25.48,0,0,1,0-9l6.7-.43c.38-.27.86-.35,1.25-.59L44.51,39c.35-.3.86-.33,1.19-.66,3.23-.89,6.51-1.57,9.47-3.33,1.68-1,3.9-1.23,5.2-2.71,1.92-2.17,3.08-.76,4.78.26,2.86,1.71,5.75,3.49,9.08,4.22,1.06.23,2,1.07,3.14.83.36.3.86.34,1.21.65l.7.09c.34.32.84.35,1.19.67l2.12.09c.56.51,1.41.13,2,.63,1.73.11,3.46.31,5.2.3,1.21,0,1.58.39,1.51,1.6-.36,6.31-.66,12.63-1,18.94-.08,1.55-.14,3.1-.22,4.66-.63.81,0,1.91-.62,2.73l-.14,3.23c-.49.56-.1,1.41-.64,2l-.09,1.43A8.92,8.92,0,0,0,88,75.84c-.76,3.36-1.55,6.56-3.91,9.42-2.54,3.07-5.78,4.73-9,6.69-2.54,1.55-5.35,2.65-7.7,4.56C66,97.58,64.11,97.7,63,99.16a.89.89,0,0,1-.87,0c-3.28-2.8-7.38-4.22-10.92-6.57-1.42-.95-3-1.61-4.48-2.52-3.8-2.39-7.22-5.06-8.26-9.85-.33-1.49-1.41-2.8-1.43-4.44-.29-.36-.35-.85-.62-1.22l-.14-2.15c-.5-.56-.11-1.41-.63-2l-.48-9.27c-.64-1.49-.17-3.06-.32-4.59C34.7,55.37,35.13,54.1,34.52,52.91Z"/><path class="cls-20" d="M34.44,40.17l0,9c-.56-.24-.59-.74-.6-1.25,0-2.22-.1-4.45-.12-6.68C33.67,40.78,33.51,40.08,34.44,40.17Z"/><path class="cls-21" d="M35.16,56.38v4.81c-1.26-1.52-.58-3.28-.63-4.95C34.78,56.07,35,56.05,35.16,56.38Z"/><path class="cls-22" d="M35.16,56.38l-.64-.14V52.91C35.79,53.87,35,55.21,35.16,56.38Z"/><path class="cls-23" d="M89.46,68c-.07-1-.51-2,.62-2.73C90,66.18,90.58,67.28,89.46,68Z"/><path class="cls-24" d="M84.56,39.75c-.73,0-1.55.33-2-.63C83.35,39,84.13,38.83,84.56,39.75Z"/><path class="cls-25" d="M35.63,70.46c.9.43.66,1.23.63,2C35.24,72,35.58,71.2,35.63,70.46Z"/><path class="cls-26" d="M88.68,73.17c-.05-.74-.37-1.57.64-2C89.43,72,89.48,72.71,88.68,73.17Z"/><path class="cls-8" d="M42.39,39.15c-.12.82-.69.69-1.25.59C41.31,39,41.84,39.06,42.39,39.15Z"/><path class="cls-5" d="M80.47,39c-.58.09-1-.05-1.19-.67A.86.86,0,0,1,80.47,39Z"/><path class="cls-27" d="M45.7,38.35a.85.85,0,0,1-1.19.66C44.66,38.35,45.15,38.3,45.7,38.35Z"/><path class="cls-28" d="M78.58,38.27c-.58.12-1.08.09-1.21-.65C77.94,37.53,78.39,37.65,78.58,38.27Z"/><path class="cls-29" d="M36.4,74.57c.77.12.68.68.62,1.22C36.31,75.64,36.26,75.15,36.4,74.57Z"/><path class="cls-30" d="M88,75.84c-.13-.58,0-1,.61-1.24C88.66,75.15,88.8,75.74,88,75.84Z"/></svg>