<?xml version="1.0" encoding="utf-8"?>
<!-- Generator: Adobe Illustrator 27.7.0, SVG Export Plug-In . SVG Version: 6.00 Build 0)  -->
<svg version="1.1" id="Layer_1" xmlns="http://www.w3.org/2000/svg" xmlns:xlink="http://www.w3.org/1999/xlink" x="0px" y="0px"
	 viewBox="0 0 128 128" style="enable-background:new 0 0 128 128;" xml:space="preserve">
<style type="text/css">
	.st0{fill:#7CF5A0;}
	.st1{fill:#FFFFFF;}
</style>
<circle class="st0" cx="64" cy="64" r="63.5"/>
<path d="M64.9,50.4l13.3,13.3v18.7L64.9,95.6H46.1L32.9,82.4V63.6l13.3-13.3H64.9z M68.1,42.5H42.8L25,60.4v25.3l17.9,17.9h25.3
	L86,85.7V60.4L68.1,42.5z"/>
<path class="st1" d="M82.9,32.4l13.3,13.3v18.7L82.9,77.6H64.1L50.9,64.4V45.6l13.3-13.3H82.9z M86.2,24.5H60.9L43,42.3v25.3
	l17.9,17.9h25.3L104,67.6V42.3L86.2,24.5L86.2,24.5z"/>
</svg>
