<?xml version="1.0" encoding="utf-8"?>
<!-- Generator: Adobe Illustrator 27.2.0, SVG Export Plug-In . SVG Version: 6.00 Build 0)  -->
<svg version="1.1" id="Layer_1" xmlns="http://www.w3.org/2000/svg" xmlns:xlink="http://www.w3.org/1999/xlink" x="0px" y="0px"
	 viewBox="0 0 128 128" style="enable-background:new 0 0 128 128;" xml:space="preserve">
<style type="text/css">
	.st0{fill:#F2F2F2;}
	.st1{fill:url(#SVGID_1_);}
	.st2{fill:url(#SVGID_00000038390389433924548600000003891891703657140391_);}
	.st3{fill:url(#SVGID_00000063628974530561816430000005461131757212748682_);}
	.st4{fill:url(#SVGID_00000146494991471150358510000009864705217464178090_);}
	.st5{fill:url(#SVGID_00000018954295262887363370000011998679417420234932_);}
	.st6{fill:url(#SVGID_00000051376509859961500550000011514199100405730495_);}
	.st7{fill:url(#SVGID_00000145759955737601424290000009865979172582055301_);}
	.st8{fill:none;stroke:#A6884A;stroke-width:0.1715;stroke-miterlimit:10;}
	.st9{fill:#A78140;}
	.st10{fill:#F5DE80;}
	.st11{fill:#A3944A;}
	.st12{fill:#CF9F55;}
	.st13{fill:url(#SVGID_00000116951549241332041240000014959694565975299476_);}
	.st14{fill:url(#SVGID_00000092439236616542645480000014845619263963312019_);}
	.st15{fill:url(#SVGID_00000124863089923312596420000002384300490438855064_);}
	.st16{fill:url(#SVGID_00000019646394081428854930000012621245498943911593_);}
	.st17{fill:url(#SVGID_00000047774329971331228100000014660331379313467288_);}
	.st18{fill:url(#SVGID_00000098902997998296529670000009495880910728350349_);}
	.st19{fill:url(#SVGID_00000105424112011486541230000002217357725775475900_);}
	.st20{fill:url(#SVGID_00000059269850508200798380000014624277570127224717_);}
	.st21{fill:url(#SVGID_00000142176081249924101470000001271899815931810458_);}
	.st22{fill:url(#SVGID_00000085252687141411425530000011505205423731689603_);}
	.st23{fill:#4293D0;}
	.st24{fill:url(#SVGID_00000060715156088899691850000008261397900269511846_);}
	.st25{fill:url(#SVGID_00000062910353148187911320000007254041161997855114_);}
	.st26{fill:url(#SVGID_00000105404999900255143660000013489328928326225341_);}
	.st27{fill:#2C67A4;}
	.st28{fill:url(#SVGID_00000096781602770102628130000016539249911201963437_);}
	.st29{fill:url(#SVGID_00000041286063512459279720000000503771659183315593_);}
	.st30{fill:url(#SVGID_00000051368218109166083640000015033308361416796554_);}
	.st31{fill:url(#SVGID_00000134971420553299483430000004499773158459468730_);}
	.st32{fill:url(#SVGID_00000152241650474779268240000003607601727936440484_);}
	.st33{fill:url(#SVGID_00000145762274815463117450000015785430854959622832_);}
	.st34{fill:url(#SVGID_00000111906373975652531620000003887302758702588091_);}
	.st35{fill:url(#SVGID_00000122681882240200340400000007137630385334390429_);}
	.st36{fill:url(#SVGID_00000072974979583989610130000002277088727065070993_);}
	.st37{fill:url(#SVGID_00000093165080970879553620000004874931045539905706_);}
	.st38{fill:url(#SVGID_00000028300241068135840020000012477706548039472014_);}
	.st39{fill:url(#SVGID_00000013168368211959777930000011200479657925050505_);}
	.st40{fill:url(#SVGID_00000083799315712733504900000005167237235319883196_);}
	.st41{fill:url(#SVGID_00000091694669479645391220000004683989571564638080_);}
	.st42{fill:url(#SVGID_00000101816438018734836830000012306103255211799199_);}
	.st43{fill:url(#SVGID_00000137830785142404412830000011804513927067887785_);}
	.st44{fill:url(#SVGID_00000137134226334001765290000010197942013218191744_);}
	.st45{fill:url(#SVGID_00000124136306811856942160000012185458266512491447_);}
	.st46{fill:url(#SVGID_00000134934214379623863890000015024494643598112912_);}
	.st47{fill:url(#SVGID_00000124857022879002921600000002754215378041222036_);}
	.st48{fill:url(#SVGID_00000078763995108222873600000016278174060045485696_);}
	.st49{fill:url(#SVGID_00000122698259377715388310000011523098392239270064_);}
	.st50{fill:url(#SVGID_00000124122715189837696310000010297786693103020167_);}
	.st51{fill:url(#SVGID_00000106844369736194407520000005816774129858090402_);}
	.st52{fill:url(#SVGID_00000106825625198225534770000013728516346580483717_);}
	.st53{fill:url(#SVGID_00000081648529087386927600000007077924363862512565_);}
	.st54{fill:url(#SVGID_00000103238143932965945200000002250394977591130010_);}
	.st55{fill:url(#SVGID_00000056414210358651251020000003336763068141873078_);}
	.st56{fill:url(#SVGID_00000031919557631887504820000000588982308679421597_);}
	.st57{fill:url(#SVGID_00000096748497861323395760000004041124027249830805_);}
	.st58{fill:url(#SVGID_00000077286837877002773610000004771898018740292286_);}
	.st59{fill:url(#SVGID_00000000183107938269053110000008804049330428362937_);}
	.st60{fill:url(#SVGID_00000101813422609133174840000014409875488338573486_);}
	.st61{fill:url(#SVGID_00000119110771241491832860000013337556776863130758_);}
	.st62{fill:url(#SVGID_00000124121214548415348380000003937780837963693211_);}
	.st63{fill:url(#SVGID_00000121241332642869498090000013126298973922462137_);}
	.st64{fill:url(#SVGID_00000160880701892571078380000005258638387740983447_);}
	.st65{fill:url(#SVGID_00000078003717728077284220000004663396545082553498_);}
	.st66{fill:url(#SVGID_00000167387470049218821260000013410694368060771470_);}
	.st67{fill:url(#SVGID_00000044874398363525357680000010279883331225322644_);}
	.st68{fill:url(#SVGID_00000134217737442860795590000012297705652988126880_);}
	.st69{fill:url(#SVGID_00000011007465689753961190000015659969097478544287_);}
	.st70{fill:url(#SVGID_00000069375522098445010850000001956352661808958084_);}
	.st71{fill:url(#SVGID_00000168826692567419132030000011682443072708693690_);}
	.st72{fill:url(#SVGID_00000061459868270210514990000011440264856195657382_);}
	.st73{fill:url(#SVGID_00000104668973787166927240000008361193813793503379_);}
	.st74{fill:url(#SVGID_00000042733015942094010950000018001835875305999001_);}
	.st75{fill:url(#SVGID_00000088851985997342426080000002759535819967616179_);}
	.st76{fill:url(#SVGID_00000153703206698196772650000003587012715263858830_);}
	.st77{fill:url(#SVGID_00000149360712914692249230000009595608726085171606_);}
</style>
<circle class="st0" cx="64" cy="64" r="63.5"/>
<g>
	<linearGradient id="SVGID_1_" gradientUnits="userSpaceOnUse" x1="34.915" y1="88.0187" x2="91.5013" y2="31.4324">
		<stop  offset="3.690426e-02" style="stop-color:#C79B42"/>
		<stop  offset="0.1899" style="stop-color:#FBEA80"/>
		<stop  offset="0.3327" style="stop-color:#F4E07A"/>
		<stop  offset="0.5722" style="stop-color:#E1C669"/>
		<stop  offset="0.7552" style="stop-color:#D0AE59"/>
		<stop  offset="1" style="stop-color:#EDD472"/>
	</linearGradient>
	<path class="st1" d="M61.2,108.5c-6-2.1-11.5-5.6-16.2-10.4c-3.8-3.8-7.1-8.4-9.8-13.7c-2.1-4.1-3.8-9-5-14.4
		c-0.9-4.2-1.6-8.8-1.9-13.7c-0.6-8.3-0.1-14.6-0.1-14.7l0.3-4l35-17.1l34.1,17l0.4,3.9c0,0.2,0.5,5.1,0.2,12
		c-0.3,6.4-1.3,16-4.6,25.2c-1.9,5.3-4.5,10.2-7.7,14.5c-2.6,3.5-5.7,6.5-9.1,9.2c-5.7,4.4-10.4,6-11.2,6.3l-2.2,0.7L61.2,108.5z"/>
	<path d="M62.4,103.9c-5.5-1.9-10.6-5.1-14.9-9.4c-3.5-3.5-6.6-7.7-9.1-12.5c-2-3.8-3.6-8.2-4.7-13.2c-0.9-3.9-1.5-8.3-1.9-12.8
		c-0.6-7.8-0.1-13.7-0.1-13.8l0.2-2l31.7-15.2l30.9,15l0.2,1.9c0,0.2,0.5,4.7,0.2,11.3c-0.3,6-1.2,15-4.4,23.5
		c-1.7,4.8-4.2,9.3-7.2,13.2c-2.4,3.1-5.3,5.9-8.5,8.3c-5.3,4-9.7,5.5-10.2,5.7l-1.1,0.3L62.4,103.9z"/>
	
		<linearGradient id="SVGID_00000174602758495295978730000012287764398481062292_" gradientUnits="userSpaceOnUse" x1="34.2256" y1="83.6292" x2="80.9656" y2="48.8694">
		<stop  offset="3.690426e-02" style="stop-color:#C79B42"/>
		<stop  offset="0.3379" style="stop-color:#FBEA80"/>
		<stop  offset="0.4201" style="stop-color:#F4E07A"/>
		<stop  offset="0.5579" style="stop-color:#E1C669"/>
		<stop  offset="0.6632" style="stop-color:#D0AE59"/>
	</linearGradient>
	<path style="fill:url(#SVGID_00000174602758495295978730000012287764398481062292_);" d="M63.2,101.5c-5.2-1.8-9.9-4.7-14-8.8
		c-3.3-3.3-6.3-7.3-8.7-11.9c-1.9-3.6-3.4-7.8-4.5-12.6c-0.9-3.8-1.5-8-1.8-12.5c-0.6-7.6-0.1-13.3-0.1-13.4l0-0.5l29.2-14L92,41.9
		l0,0.5c0,0.2,0.4,4.5,0.2,10.9C91.9,59.1,91,67.8,88,76c-1.6,4.6-3.9,8.8-6.8,12.5c-2.3,3-5,5.6-8,7.8c-5.1,3.8-9.3,5.2-9.5,5.3
		l-0.3,0.1L63.2,101.5z"/>
	
		<linearGradient id="SVGID_00000108995418383604637730000017273394344823445941_" gradientUnits="userSpaceOnUse" x1="61.1085" y1="87.7994" x2="61.1085" y2="42.4772">
		<stop  offset="0.1867" style="stop-color:#002476"/>
		<stop  offset="0.4556" style="stop-color:#032A80"/>
		<stop  offset="0.9067" style="stop-color:#0A3B9A"/>
		<stop  offset="1" style="stop-color:#0C3FA0"/>
	</linearGradient>
	<polygon style="fill:url(#SVGID_00000108995418383604637730000017273394344823445941_);" points="61.1,45.3 57.1,41.5 56.3,42.8 
		64.5,59.7 65.9,55.5 	"/>
	
		<linearGradient id="SVGID_00000071546777385033701030000006610601416350202261_" gradientUnits="userSpaceOnUse" x1="67.6193" y1="89.5437" x2="67.6193" y2="41.7982">
		<stop  offset="0.1867" style="stop-color:#002476"/>
		<stop  offset="0.4556" style="stop-color:#032A80"/>
		<stop  offset="0.9067" style="stop-color:#0A3B9A"/>
		<stop  offset="1" style="stop-color:#0C3FA0"/>
	</linearGradient>
	<path style="fill:url(#SVGID_00000071546777385033701030000006610601416350202261_);" d="M80.1,41.8l2.2,3.4L70.7,68.8v13.7
		c0,0,0,2.4,0.6,3.3c0.6,0.9,2.2,3.7,2.2,3.7l-17.7-0.1l-2.9-3.6l5.7-3.2l7.8-16.5L80.1,41.8z"/>
	
		<linearGradient id="SVGID_00000136396691129879013030000000994137438445842344_" gradientUnits="userSpaceOnUse" x1="40.9149" y1="76.2135" x2="90.8807" y2="49.7649">
		<stop  offset="3.690426e-02" style="stop-color:#C79B42"/>
		<stop  offset="0.1899" style="stop-color:#FBEA80"/>
		<stop  offset="0.3144" style="stop-color:#F5E07A"/>
		<stop  offset="0.5238" style="stop-color:#E6C669"/>
		<stop  offset="0.7552" style="stop-color:#D0A251"/>
	</linearGradient>
	<path style="fill:url(#SVGID_00000136396691129879013030000000994137438445842344_);" d="M63.5,29L35.1,42.5c0,0-1.8,22.7,6.3,38
		c4.2,7.9,11.1,16.4,22.2,20.2c0,0,16.6-5.3,23.7-25c5.8-15.6,4-33.3,4-33.3L63.5,29z"/>
	
		<linearGradient id="SVGID_00000137111316153019296480000013384461226677632392_" gradientUnits="userSpaceOnUse" x1="42.4768" y1="81.1457" x2="83.9308" y2="39.6917">
		<stop  offset="3.690426e-02" style="stop-color:#C79B42"/>
		<stop  offset="0.1899" style="stop-color:#FBEA80"/>
		<stop  offset="0.3327" style="stop-color:#F4E07A"/>
		<stop  offset="0.5722" style="stop-color:#E1C669"/>
		<stop  offset="0.7552" style="stop-color:#D0AE59"/>
	</linearGradient>
	<path style="fill:url(#SVGID_00000137111316153019296480000013384461226677632392_);" d="M63.7,36.6L60,33.7L37.4,44.5
		c0,0-4.8,41,26,53c0,0,28-7.6,25.5-52.9l-22.2-11L63.7,36.6z"/>
	
		<linearGradient id="SVGID_00000046297543623222994210000001443645370931652538_" gradientUnits="userSpaceOnUse" x1="38.0162" y1="65.5689" x2="88.2589" y2="65.5689">
		<stop  offset="0.1867" style="stop-color:#002480"/>
		<stop  offset="0.4378" style="stop-color:#01278A"/>
		<stop  offset="0.8589" style="stop-color:#0230A4"/>
		<stop  offset="1" style="stop-color:#0333AE"/>
	</linearGradient>
	<path style="fill:url(#SVGID_00000046297543623222994210000001443645370931652538_);" d="M63.7,37.9l-3.8-3.4L38.2,45.1
		c0,0-4.1,40.8,25.2,51.6c0,0,26.7-7.1,24.8-51.4L66.9,34.5L63.7,37.9z"/>
	<line class="st8" x1="66.7" y1="33.7" x2="66.1" y2="30.2"/>
	<line class="st8" x1="60" y1="33.7" x2="60.6" y2="30.3"/>
	<path class="st9" d="M83.9,83.4c0,0-3.1,5.6-8,10l-3.1-1.8L72.3,88c0,0,2.7-2.6,5.4-7l3.6,0.4L83.9,83.4z"/>
	<path class="st10" d="M84.5,83.5c0,0-3.1,5.6-8,10l-3.1-1.8l-0.5-3.7c0,0,2.7-2.6,5.4-7l3.6,0.4L84.5,83.5z"/>
	<path class="st11" d="M42.8,83.5c0,0,3.1,5.6,8,10l3.1-1.8l0.5-3.7c0,0-2.7-2.6-5.4-7l-3.6,0.4L42.8,83.5z"/>
	<path class="st12" d="M42.2,83.6c0,0,3.1,5.6,8,10l3.1-1.8l0.5-3.7c0,0-2.7-2.6-5.4-7l-3.6,0.4L42.2,83.6z"/>
	
		<linearGradient id="SVGID_00000052803906559611525660000001554720607838295481_" gradientUnits="userSpaceOnUse" x1="43.6294" y1="79.584" x2="80.9911" y2="42.2224">
		<stop  offset="3.690426e-02" style="stop-color:#C79B42"/>
		<stop  offset="0.1899" style="stop-color:#FBEA80"/>
		<stop  offset="0.3327" style="stop-color:#F4E07A"/>
		<stop  offset="0.5722" style="stop-color:#E1C669"/>
		<stop  offset="0.7552" style="stop-color:#D0AE59"/>
		<stop  offset="1" style="stop-color:#EDD472"/>
	</linearGradient>
	<path style="fill:url(#SVGID_00000052803906559611525660000001554720607838295481_);" d="M37.6,40.5l20.1-0.2l4.7,4.1l3.4,7.4
		c0,0,1-1.5,2.4-4.7c0,0,0.3-1.2-0.1-2s-1.1-1.7-2.5-2.9c-0.4-0.4-0.7-0.8-0.8-1c0-0.2,0.6-0.8,0.6-0.8l15.6,0l3.6,5.3l-12,24.1
		l0.1,13.9c0,0,0,2,2.3,4.9s2,2.7,2,2.7l-0.2,0.3H54.9l-4.3-5.7c0,0,2-2.1,2.3-2.4c0.2-0.3,0.8-1.1,0.8-1.5c0-0.4,0-15.4,0-15.4
		L43.5,47.3c0,0-1.3-2.4-3.9-4.5c-1-0.9-1.5-1.2-1.8-1.5C37.6,41.1,37.6,40.5,37.6,40.5z"/>
	
		<linearGradient id="SVGID_00000159459748444506731670000005380611077119731596_" gradientUnits="userSpaceOnUse" x1="60.8205" y1="85.8764" x2="60.8205" y2="41.461">
		<stop  offset="0.1867" style="stop-color:#104FB8"/>
		<stop  offset="0.3848" style="stop-color:#1A58BF"/>
		<stop  offset="0.7168" style="stop-color:#346FD2"/>
		<stop  offset="1" style="stop-color:#4F87E6"/>
	</linearGradient>
	<path style="fill:url(#SVGID_00000159459748444506731670000005380611077119731596_);" d="M41.5,41.5h15.5v0.6l7.7,15.7l5.6-11.3
		c0,0,0.2-2.2-0.5-3.2S68.6,42,68.6,42l-0.1-0.3l11.7,0.2l-12,24.3v13.2c0,0-0.2,3.3,3.2,6.5H52.9c0,0,1.5-1.2,2-2.1
		s0.8-1.4,0.8-1.8c0-0.4,0-16.3,0-16.3L45.6,46.4c0,0-1.2-2.3-3.1-4C42.1,42.1,41.5,41.5,41.5,41.5z"/>
	<g>
		
			<linearGradient id="SVGID_00000036955948852630215880000015360015553267503794_" gradientUnits="userSpaceOnUse" x1="0.5" y1="64" x2="127.5" y2="64">
			<stop  offset="3.690426e-02" style="stop-color:#C79B42"/>
			<stop  offset="0.1899" style="stop-color:#FBEA80"/>
			<stop  offset="0.3327" style="stop-color:#F4E07A"/>
			<stop  offset="0.5722" style="stop-color:#E1C669"/>
			<stop  offset="0.7552" style="stop-color:#D0AE59"/>
			<stop  offset="1" style="stop-color:#EDD472"/>
		</linearGradient>
		<path style="fill:url(#SVGID_00000036955948852630215880000015360015553267503794_);" d="M64,127.5c-8.6,0-16.9-1.7-24.7-5
			c-7.6-3.2-14.4-7.8-20.2-13.6S8.7,96.3,5.5,88.7c-3.3-7.8-5-16.1-5-24.7s1.7-16.9,5-24.7c3.2-7.6,7.8-14.4,13.6-20.2
			c5.8-5.8,12.6-10.4,20.2-13.6c7.8-3.3,16.1-5,24.7-5s16.9,1.7,24.7,5c7.6,3.2,14.4,7.8,20.2,13.6c5.8,5.8,10.4,12.6,13.6,20.2
			c3.3,7.8,5,16.1,5,24.7s-1.7,16.9-5,24.7c-3.2,7.6-7.8,14.4-13.6,20.2s-12.6,10.4-20.2,13.6C80.9,125.8,72.6,127.5,64,127.5z
			 M64,3.9c-8.1,0-16,1.6-23.4,4.7c-7.2,3-13.6,7.4-19.1,12.9S11.7,33.5,8.7,40.6C5.5,48,3.9,55.9,3.9,64c0,8.1,1.6,16,4.7,23.4
			c3,7.2,7.4,13.6,12.9,19.1c5.5,5.5,11.9,9.8,19.1,12.9c7.4,3.1,15.3,4.7,23.4,4.7c8.1,0,16-1.6,23.4-4.7c7.2-3,13.6-7.4,19.1-12.9
			c5.5-5.5,9.8-11.9,12.9-19.1c3.1-7.4,4.7-15.3,4.7-23.4c0-8.1-1.6-16-4.7-23.4c-3-7.2-7.4-13.6-12.9-19.1
			C101,16,94.5,11.7,87.4,8.7C80,5.5,72.1,3.9,64,3.9z"/>
	</g>
	<g>
		<g>
			<g>
				
					<linearGradient id="SVGID_00000170966838073578612780000015603347649146951558_" gradientUnits="userSpaceOnUse" x1="62.0551" y1="33.716" x2="65.056" y2="33.716">
					<stop  offset="0" style="stop-color:#8CFBFC"/>
					<stop  offset="1" style="stop-color:#3677B9"/>
				</linearGradient>
				<polygon style="fill:url(#SVGID_00000170966838073578612780000015603347649146951558_);" points="63.6,35.2 62.1,33.7 
					63.6,32.2 65.1,33.7 				"/>
				
					<linearGradient id="SVGID_00000131350571501158700760000004091067673958381196_" gradientUnits="userSpaceOnUse" x1="62.4174" y1="33.716" x2="64.6935" y2="33.716">
					<stop  offset="0" style="stop-color:#FFFFFF"/>
					<stop  offset="0.5031" style="stop-color:#8CFBFC"/>
					<stop  offset="1" style="stop-color:#3677B9"/>
				</linearGradient>
				<polygon style="fill:url(#SVGID_00000131350571501158700760000004091067673958381196_);" points="63.6,34.9 62.4,33.7 
					63.6,32.6 64.7,33.7 				"/>
				
					<linearGradient id="SVGID_00000101102053576389933310000001873336882921321383_" gradientUnits="userSpaceOnUse" x1="62.1446" y1="33.7159" x2="64.3376" y2="33.7159">
					<stop  offset="0" style="stop-color:#84EFF6"/>
					<stop  offset="1" style="stop-color:#3677B9"/>
				</linearGradient>
				<polygon style="fill:url(#SVGID_00000101102053576389933310000001873336882921321383_);" points="63.6,34.5 62.8,33.7 
					63.6,32.9 64.4,33.7 				"/>
				
					<linearGradient id="SVGID_00000004507542108320840370000007298575290292573373_" gradientUnits="userSpaceOnUse" x1="63.5555" y1="34.4662" x2="65.056" y2="34.4662">
					<stop  offset="0" style="stop-color:#84EFF6"/>
					<stop  offset="1" style="stop-color:#3677B9"/>
				</linearGradient>
				<polygon style="fill:url(#SVGID_00000004507542108320840370000007298575290292573373_);" points="64.7,33.7 65.1,33.7 
					63.6,35.2 63.6,34.9 				"/>
				
					<linearGradient id="SVGID_00000149356787816954156950000009750994465493868195_" gradientUnits="userSpaceOnUse" x1="62.0551" y1="32.9658" x2="63.5555" y2="32.9658">
					<stop  offset="0" style="stop-color:#84EFF6"/>
					<stop  offset="1" style="stop-color:#3677B9"/>
				</linearGradient>
				<polygon style="fill:url(#SVGID_00000149356787816954156950000009750994465493868195_);" points="63.6,32.2 63.6,32.6 
					62.4,33.7 62.1,33.7 				"/>
				
					<linearGradient id="SVGID_00000015314320579050487800000007758027184311722171_" gradientUnits="userSpaceOnUse" x1="62.0551" y1="34.4662" x2="63.5555" y2="34.4662">
					<stop  offset="0" style="stop-color:#FFFFFF"/>
					<stop  offset="0.5031" style="stop-color:#8CFBFC"/>
					<stop  offset="1" style="stop-color:#3677B9"/>
				</linearGradient>
				<polygon style="fill:url(#SVGID_00000015314320579050487800000007758027184311722171_);" points="62.1,33.7 62.4,33.7 
					63.6,34.9 63.6,35.2 				"/>
				
					<linearGradient id="SVGID_00000132806900849391860760000016070633932072334224_" gradientUnits="userSpaceOnUse" x1="63.5555" y1="32.9658" x2="65.056" y2="32.9658">
					<stop  offset="0" style="stop-color:#FFFFFF"/>
					<stop  offset="0.5031" style="stop-color:#8CFBFC"/>
					<stop  offset="1" style="stop-color:#3677B9"/>
				</linearGradient>
				<polygon style="fill:url(#SVGID_00000132806900849391860760000016070633932072334224_);" points="63.6,32.2 65.1,33.7 
					64.7,33.7 63.6,32.6 				"/>
				<polygon class="st23" points="64.4,33.7 64.7,33.7 63.6,34.9 63.6,34.5 				"/>
				
					<linearGradient id="SVGID_00000016775321242797508940000009237954635600171195_" gradientUnits="userSpaceOnUse" x1="62.4174" y1="34.285" x2="63.5555" y2="34.285">
					<stop  offset="0" style="stop-color:#84EFF6"/>
					<stop  offset="1" style="stop-color:#3677B9"/>
				</linearGradient>
				<polygon style="fill:url(#SVGID_00000016775321242797508940000009237954635600171195_);" points="62.8,33.7 63.6,34.5 
					63.6,34.9 62.4,33.7 				"/>
				
					<linearGradient id="SVGID_00000033326649041102154030000015421084093524940170_" gradientUnits="userSpaceOnUse" x1="62.4174" y1="33.147" x2="63.5556" y2="33.147">
					<stop  offset="0" style="stop-color:#FFFFFF"/>
					<stop  offset="0.5031" style="stop-color:#8CFBFC"/>
					<stop  offset="1" style="stop-color:#3677B9"/>
				</linearGradient>
				<polygon style="fill:url(#SVGID_00000033326649041102154030000015421084093524940170_);" points="62.8,33.7 63.6,32.9 
					63.6,32.6 62.4,33.7 				"/>
				
					<linearGradient id="SVGID_00000172406616415860557040000017018941354914697088_" gradientUnits="userSpaceOnUse" x1="63.5555" y1="33.147" x2="64.6935" y2="33.147">
					<stop  offset="0" style="stop-color:#84EFF6"/>
					<stop  offset="1" style="stop-color:#3677B9"/>
				</linearGradient>
				<polygon style="fill:url(#SVGID_00000172406616415860557040000017018941354914697088_);" points="63.6,32.6 64.7,33.7 
					64.4,33.7 63.6,32.9 				"/>
			</g>
			<g>
				<polygon class="st27" points="65.1,33.7 64,34 64.7,34.1 				"/>
			</g>
			<g>
				<polygon class="st27" points="63.6,35.2 63.9,34.2 63.9,34.8 				"/>
			</g>
			<g>
				<polygon class="st27" points="63.6,32.2 63.2,33.2 63.2,32.6 				"/>
				
					<linearGradient id="SVGID_00000096026619399151373030000008283890898263574445_" gradientUnits="userSpaceOnUse" x1="62.0555" y1="33.5231" x2="63.0799" y2="33.5231">
					<stop  offset="0" style="stop-color:#84EFF6"/>
					<stop  offset="1" style="stop-color:#6AC0D9"/>
				</linearGradient>
				<polygon style="fill:url(#SVGID_00000096026619399151373030000008283890898263574445_);" points="62.1,33.7 63.1,33.4 
					62.4,33.3 				"/>
			</g>
			<g>
				<polygon class="st27" points="63.6,35.2 63.2,34.2 63.2,34.8 				"/>
				
					<linearGradient id="SVGID_00000142881545549426661330000012500641878783525266_" gradientUnits="userSpaceOnUse" x1="62.0555" y1="33.9091" x2="63.0799" y2="33.9091">
					<stop  offset="0" style="stop-color:#FFFFFF"/>
					<stop  offset="0.5031" style="stop-color:#8CFBFC"/>
					<stop  offset="1" style="stop-color:#3677B9"/>
				</linearGradient>
				<polygon style="fill:url(#SVGID_00000142881545549426661330000012500641878783525266_);" points="62.1,33.7 63.1,34 62.4,34.1 
									"/>
			</g>
			<g>
				
					<linearGradient id="SVGID_00000052103324117597738510000013540121176775571074_" gradientUnits="userSpaceOnUse" x1="64.0316" y1="33.523" x2="65.056" y2="33.523">
					<stop  offset="0" style="stop-color:#FFFFFF"/>
					<stop  offset="0.5031" style="stop-color:#8CFBFC"/>
					<stop  offset="1" style="stop-color:#3677B9"/>
				</linearGradient>
				<polygon style="fill:url(#SVGID_00000052103324117597738510000013540121176775571074_);" points="65.1,33.7 64,33.4 64.7,33.3 
									"/>
				<polygon class="st23" points="63.6,32.2 63.9,33.2 63.9,32.6 				"/>
			</g>
		</g>
		<g>
			
				<linearGradient id="SVGID_00000178903849475518074580000004471733443406505125_" gradientUnits="userSpaceOnUse" x1="64.3602" y1="33.9092" x2="65.056" y2="33.9092">
				<stop  offset="0" style="stop-color:#FFFFFF;stop-opacity:0"/>
				<stop  offset="1" style="stop-color:#FFFFFF"/>
			</linearGradient>
			<polygon style="fill:url(#SVGID_00000178903849475518074580000004471733443406505125_);" points="65.1,33.7 64.4,33.7 64.7,34.1 
							"/>
		</g>
		<g>
			
				<linearGradient id="SVGID_00000088819037776619444920000005689369698034633620_" gradientUnits="userSpaceOnUse" x1="63.2274" y1="34.7042" x2="63.942" y2="34.7042">
				<stop  offset="0" style="stop-color:#FFFFFF;stop-opacity:0"/>
				<stop  offset="1" style="stop-color:#FFFFFF"/>
			</linearGradient>
			<polygon style="fill:url(#SVGID_00000088819037776619444920000005689369698034633620_);" points="63.6,35.2 63.2,34.2 63.9,34.8 
							"/>
		</g>
		<g>
			
				<linearGradient id="SVGID_00000096756076331456428670000008509903715260140952_" gradientUnits="userSpaceOnUse" x1="64.283" y1="34.1517" x2="64.6695" y2="34.1517">
				<stop  offset="0" style="stop-color:#FFFFFF;stop-opacity:0"/>
				<stop  offset="1" style="stop-color:#FFFFFF"/>
			</linearGradient>
			<polygon style="fill:url(#SVGID_00000096756076331456428670000008509903715260140952_);" points="64.3,34.5 64.4,33.8 64.7,34.1 
							"/>
		</g>
		
			<linearGradient id="SVGID_00000160159705148303484070000018441183040816787609_" gradientUnits="userSpaceOnUse" x1="62.0555" y1="33.9091" x2="62.751" y2="33.9091">
			<stop  offset="0" style="stop-color:#FFFFFF;stop-opacity:0"/>
			<stop  offset="1" style="stop-color:#FFFFFF"/>
		</linearGradient>
		<polygon style="fill:url(#SVGID_00000160159705148303484070000018441183040816787609_);" points="62.1,33.7 62.8,33.7 62.4,34.1 
					"/>
		
			<linearGradient id="SVGID_00000101804673793169450530000016679452416801152177_" gradientUnits="userSpaceOnUse" x1="63.5555" y1="32.5636" x2="63.942" y2="32.5636">
			<stop  offset="0" style="stop-color:#FFFFFF;stop-opacity:0"/>
			<stop  offset="1" style="stop-color:#FFFFFF"/>
		</linearGradient>
		<polygon style="fill:url(#SVGID_00000101804673793169450530000016679452416801152177_);" points="63.6,32.2 63.6,32.9 63.9,32.6 
					"/>
		
			<linearGradient id="SVGID_00000057117080802899393370000002569658030399731611_" gradientUnits="userSpaceOnUse" x1="62.5738" y1="33.7159" x2="64.5373" y2="33.7159">
			<stop  offset="0" style="stop-color:#FFFFFF;stop-opacity:0"/>
			<stop  offset="1" style="stop-color:#FFFFFF"/>
		</linearGradient>
		<polygon style="fill:url(#SVGID_00000057117080802899393370000002569658030399731611_);" points="63.6,34.7 62.6,33.7 63.6,32.7 
			64.5,33.7 		"/>
	</g>
	<g>
		<g>
			<g>
				
					<linearGradient id="SVGID_00000138569915393596178830000010055139201290832011_" gradientUnits="userSpaceOnUse" x1="-858.2943" y1="-1393.9956" x2="-853.1245" y2="-1393.9956" gradientTransform="matrix(0.6508 0.7593 -0.7593 0.6508 -453.1463 1643.7137)">
					<stop  offset="0" style="stop-color:#8CFBFC"/>
					<stop  offset="1" style="stop-color:#3677B9"/>
				</linearGradient>
				<polygon style="fill:url(#SVGID_00000138569915393596178830000010055139201290832011_);" points="47.2,87.8 46.7,84.9 
					49.6,85.8 50.1,88.8 				"/>
				
					<linearGradient id="SVGID_00000010287596157211816050000006387999714343515823_" gradientUnits="userSpaceOnUse" x1="-857.67" y1="-1393.9956" x2="-853.749" y2="-1393.9956" gradientTransform="matrix(0.6508 0.7593 -0.7593 0.6508 -453.1463 1643.7137)">
					<stop  offset="0" style="stop-color:#FFFFFF"/>
					<stop  offset="0.5031" style="stop-color:#8CFBFC"/>
					<stop  offset="1" style="stop-color:#3677B9"/>
				</linearGradient>
				<polygon style="fill:url(#SVGID_00000010287596157211816050000006387999714343515823_);" points="47.5,87.6 47.1,85.3 
					49.3,86.1 49.7,88.3 				"/>
				
					<linearGradient id="SVGID_00000084523500026664359810000017288131413610818991_" gradientUnits="userSpaceOnUse" x1="-858.1401" y1="-1393.9956" x2="-854.3621" y2="-1393.9956" gradientTransform="matrix(0.6508 0.7593 -0.7593 0.6508 -453.1463 1643.7137)">
					<stop  offset="0" style="stop-color:#84EFF6"/>
					<stop  offset="1" style="stop-color:#3677B9"/>
				</linearGradient>
				<polygon style="fill:url(#SVGID_00000084523500026664359810000017288131413610818991_);" points="47.8,87.4 47.5,85.8 49,86.3 
					49.3,87.9 				"/>
				
					<linearGradient id="SVGID_00000141453583138154498290000014003613101131835834_" gradientUnits="userSpaceOnUse" x1="-855.7095" y1="-1393.2241" x2="-853.1245" y2="-1393.2241" gradientTransform="matrix(0.6508 0.7593 -0.7593 0.6508 -453.1463 1643.7137)">
					<stop  offset="0" style="stop-color:#84EFF6"/>
					<stop  offset="1" style="stop-color:#3677B9"/>
				</linearGradient>
				<polygon style="fill:url(#SVGID_00000141453583138154498290000014003613101131835834_);" points="49.7,88.3 50.1,88.8 
					47.2,87.8 47.5,87.6 				"/>
				
					<linearGradient id="SVGID_00000090973630646502540900000006190941491595214254_" gradientUnits="userSpaceOnUse" x1="-858.2943" y1="-1394.767" x2="-855.7095" y2="-1394.767" gradientTransform="matrix(0.6508 0.7593 -0.7593 0.6508 -453.1463 1643.7137)">
					<stop  offset="0" style="stop-color:#84EFF6"/>
					<stop  offset="1" style="stop-color:#3677B9"/>
				</linearGradient>
				<polygon style="fill:url(#SVGID_00000090973630646502540900000006190941491595214254_);" points="49.6,85.8 49.3,86.1 
					47.1,85.3 46.7,84.9 				"/>
				
					<linearGradient id="SVGID_00000083055866470350050990000003273303019899864718_" gradientUnits="userSpaceOnUse" x1="-858.2943" y1="-1393.2241" x2="-855.7095" y2="-1393.2241" gradientTransform="matrix(0.6508 0.7593 -0.7593 0.6508 -453.1463 1643.7137)">
					<stop  offset="0" style="stop-color:#FFFFFF"/>
					<stop  offset="0.5031" style="stop-color:#8CFBFC"/>
					<stop  offset="1" style="stop-color:#3677B9"/>
				</linearGradient>
				<polygon style="fill:url(#SVGID_00000083055866470350050990000003273303019899864718_);" points="46.7,84.9 47.1,85.3 
					47.5,87.6 47.2,87.8 				"/>
				
					<linearGradient id="SVGID_00000038387742684431933930000009825710941797786013_" gradientUnits="userSpaceOnUse" x1="-855.7095" y1="-1394.767" x2="-853.1245" y2="-1394.767" gradientTransform="matrix(0.6508 0.7593 -0.7593 0.6508 -453.1463 1643.7137)">
					<stop  offset="0" style="stop-color:#FFFFFF"/>
					<stop  offset="0.5031" style="stop-color:#8CFBFC"/>
					<stop  offset="1" style="stop-color:#3677B9"/>
				</linearGradient>
				<polygon style="fill:url(#SVGID_00000038387742684431933930000009825710941797786013_);" points="49.6,85.8 50.1,88.8 
					49.7,88.3 49.3,86.1 				"/>
				<polygon class="st23" points="49.3,87.9 49.7,88.3 47.5,87.6 47.8,87.4 				"/>
				
					<linearGradient id="SVGID_00000159448021797762569250000013887423307387147676_" gradientUnits="userSpaceOnUse" x1="-857.67" y1="-1393.4105" x2="-855.7095" y2="-1393.4105" gradientTransform="matrix(0.6508 0.7593 -0.7593 0.6508 -453.1463 1643.7137)">
					<stop  offset="0" style="stop-color:#84EFF6"/>
					<stop  offset="1" style="stop-color:#3677B9"/>
				</linearGradient>
				<polygon style="fill:url(#SVGID_00000159448021797762569250000013887423307387147676_);" points="47.5,85.8 47.8,87.4 
					47.5,87.6 47.1,85.3 				"/>
				
					<linearGradient id="SVGID_00000147920780880829381320000012901891912720060083_" gradientUnits="userSpaceOnUse" x1="-857.67" y1="-1394.5807" x2="-855.7094" y2="-1394.5807" gradientTransform="matrix(0.6508 0.7593 -0.7593 0.6508 -453.1463 1643.7137)">
					<stop  offset="0" style="stop-color:#FFFFFF"/>
					<stop  offset="0.5031" style="stop-color:#8CFBFC"/>
					<stop  offset="1" style="stop-color:#3677B9"/>
				</linearGradient>
				<polygon style="fill:url(#SVGID_00000147920780880829381320000012901891912720060083_);" points="47.5,85.8 49,86.3 49.3,86.1 
					47.1,85.3 				"/>
				
					<linearGradient id="SVGID_00000080176208840110645720000017438316472021684664_" gradientUnits="userSpaceOnUse" x1="-855.7095" y1="-1394.5807" x2="-853.749" y2="-1394.5807" gradientTransform="matrix(0.6508 0.7593 -0.7593 0.6508 -453.1463 1643.7137)">
					<stop  offset="0" style="stop-color:#84EFF6"/>
					<stop  offset="1" style="stop-color:#3677B9"/>
				</linearGradient>
				<polygon style="fill:url(#SVGID_00000080176208840110645720000017438316472021684664_);" points="49.3,86.1 49.7,88.3 
					49.3,87.9 49,86.3 				"/>
			</g>
			<g>
				<polygon class="st27" points="50.1,88.8 48.7,87.7 49.4,88.5 				"/>
			</g>
			<g>
				<polygon class="st27" points="47.2,87.8 48.4,87.6 48,88.1 				"/>
			</g>
			<g>
				<polygon class="st27" points="49.6,85.8 48.4,86.1 48.8,85.6 				"/>
				
					<linearGradient id="SVGID_00000084488385868844788270000017455216982817323961_" gradientUnits="userSpaceOnUse" x1="-858.2935" y1="-1394.1938" x2="-856.5289" y2="-1394.1938" gradientTransform="matrix(0.6508 0.7593 -0.7593 0.6508 -453.1463 1643.7137)">
					<stop  offset="0" style="stop-color:#84EFF6"/>
					<stop  offset="1" style="stop-color:#6AC0D9"/>
				</linearGradient>
				<polygon style="fill:url(#SVGID_00000084488385868844788270000017455216982817323961_);" points="46.7,84.9 48.1,86 47.5,85.1 
									"/>
			</g>
			<g>
				<polygon class="st27" points="47.2,87.8 47.7,86.7 47.1,87.1 				"/>
				
					<linearGradient id="SVGID_00000171693063316510960250000006799984287171347876_" gradientUnits="userSpaceOnUse" x1="-858.2935" y1="-1393.797" x2="-856.5289" y2="-1393.797" gradientTransform="matrix(0.6508 0.7593 -0.7593 0.6508 -453.1463 1643.7137)">
					<stop  offset="0" style="stop-color:#FFFFFF"/>
					<stop  offset="0.5031" style="stop-color:#8CFBFC"/>
					<stop  offset="1" style="stop-color:#3677B9"/>
				</linearGradient>
				<polygon style="fill:url(#SVGID_00000171693063316510960250000006799984287171347876_);" points="46.7,84.9 47.6,86.4 
					46.9,85.6 				"/>
			</g>
			<g>
				
					<linearGradient id="SVGID_00000163052560921420936230000014721150084580340124_" gradientUnits="userSpaceOnUse" x1="-854.8893" y1="-1394.194" x2="-853.1245" y2="-1394.194" gradientTransform="matrix(0.6508 0.7593 -0.7593 0.6508 -453.1463 1643.7137)">
					<stop  offset="0" style="stop-color:#FFFFFF"/>
					<stop  offset="0.5031" style="stop-color:#8CFBFC"/>
					<stop  offset="1" style="stop-color:#3677B9"/>
				</linearGradient>
				<polygon style="fill:url(#SVGID_00000163052560921420936230000014721150084580340124_);" points="50.1,88.8 49.2,87.2 50,88 
									"/>
				<polygon class="st23" points="49.6,85.8 49.2,86.9 49.7,86.6 				"/>
			</g>
		</g>
		<g>
			
				<linearGradient id="SVGID_00000158006331366746593850000010054775438304540814_" gradientUnits="userSpaceOnUse" x1="-854.3232" y1="-1393.7969" x2="-853.1245" y2="-1393.7969" gradientTransform="matrix(0.6508 0.7593 -0.7593 0.6508 -453.1463 1643.7137)">
				<stop  offset="0" style="stop-color:#FFFFFF;stop-opacity:0"/>
				<stop  offset="1" style="stop-color:#FFFFFF"/>
			</linearGradient>
			<polygon style="fill:url(#SVGID_00000158006331366746593850000010054775438304540814_);" points="50.1,88.8 49.3,87.9 49.4,88.5 
							"/>
		</g>
		<g>
			
				<linearGradient id="SVGID_00000096045257472795412080000001660290365928224695_" gradientUnits="userSpaceOnUse" x1="-856.2747" y1="-1392.9794" x2="-855.0437" y2="-1392.9794" gradientTransform="matrix(0.6508 0.7593 -0.7593 0.6508 -453.1463 1643.7137)">
				<stop  offset="0" style="stop-color:#FFFFFF;stop-opacity:0"/>
				<stop  offset="1" style="stop-color:#FFFFFF"/>
			</linearGradient>
			<polygon style="fill:url(#SVGID_00000096045257472795412080000001660290365928224695_);" points="47.2,87.8 47.7,86.7 48,88.1 
							"/>
		</g>
		<g>
			
				<linearGradient id="SVGID_00000076595832349628242900000003189479648908363909_" gradientUnits="userSpaceOnUse" x1="-854.4562" y1="-1393.5476" x2="-853.7905" y2="-1393.5476" gradientTransform="matrix(0.6508 0.7593 -0.7593 0.6508 -453.1463 1643.7137)">
				<stop  offset="0" style="stop-color:#FFFFFF;stop-opacity:0"/>
				<stop  offset="1" style="stop-color:#FFFFFF"/>
			</linearGradient>
			<polygon style="fill:url(#SVGID_00000076595832349628242900000003189479648908363909_);" points="48.6,88.3 49.3,88 49.4,88.5 
							"/>
		</g>
		
			<linearGradient id="SVGID_00000023967174227617560360000005228554980017832582_" gradientUnits="userSpaceOnUse" x1="-858.2935" y1="-1393.797" x2="-857.0955" y2="-1393.797" gradientTransform="matrix(0.6508 0.7593 -0.7593 0.6508 -453.1463 1643.7137)">
			<stop  offset="0" style="stop-color:#FFFFFF;stop-opacity:0"/>
			<stop  offset="1" style="stop-color:#FFFFFF"/>
		</linearGradient>
		<polygon style="fill:url(#SVGID_00000023967174227617560360000005228554980017832582_);" points="46.7,84.9 47.5,85.8 46.9,85.6 
					"/>
		
			<linearGradient id="SVGID_00000093156472071275386810000006054677911121405331_" gradientUnits="userSpaceOnUse" x1="-855.7095" y1="-1395.1805" x2="-855.0437" y2="-1395.1805" gradientTransform="matrix(0.6508 0.7593 -0.7593 0.6508 -453.1463 1643.7137)">
			<stop  offset="0" style="stop-color:#FFFFFF;stop-opacity:0"/>
			<stop  offset="1" style="stop-color:#FFFFFF"/>
		</linearGradient>
		<polygon style="fill:url(#SVGID_00000093156472071275386810000006054677911121405331_);" points="49.6,85.8 49,86.3 49.7,86.6 		
			"/>
		
			<linearGradient id="SVGID_00000126301472247763393550000001909402931561196724_" gradientUnits="userSpaceOnUse" x1="-857.4006" y1="-1393.9956" x2="-854.0181" y2="-1393.9956" gradientTransform="matrix(0.6508 0.7593 -0.7593 0.6508 -453.1463 1643.7137)">
			<stop  offset="0" style="stop-color:#FFFFFF;stop-opacity:0"/>
			<stop  offset="1" style="stop-color:#FFFFFF"/>
		</linearGradient>
		<polygon style="fill:url(#SVGID_00000126301472247763393550000001909402931561196724_);" points="47.6,87.5 47.3,85.5 49.2,86.2 
			49.5,88.1 		"/>
	</g>
	<g>
		<g>
			<g>
				
					<linearGradient id="SVGID_00000079486067396027744350000001320682869407220373_" gradientUnits="userSpaceOnUse" x1="-3158.5925" y1="1290.2446" x2="-3153.4226" y2="1290.2446" gradientTransform="matrix(-0.6508 0.7593 0.7593 0.6508 -2955.6633 1643.7137)">
					<stop  offset="0" style="stop-color:#8CFBFC"/>
					<stop  offset="1" style="stop-color:#3677B9"/>
				</linearGradient>
				<polygon style="fill:url(#SVGID_00000079486067396027744350000001320682869407220373_);" points="79,88.1 79.5,85.1 76.6,86.1 
					76.1,89 				"/>
				
					<linearGradient id="SVGID_00000079448749680162344890000006742149944335061647_" gradientUnits="userSpaceOnUse" x1="-3157.968" y1="1290.2446" x2="-3154.0471" y2="1290.2446" gradientTransform="matrix(-0.6508 0.7593 0.7593 0.6508 -2955.6633 1643.7137)">
					<stop  offset="0" style="stop-color:#FFFFFF"/>
					<stop  offset="0.5031" style="stop-color:#8CFBFC"/>
					<stop  offset="1" style="stop-color:#3677B9"/>
				</linearGradient>
				<polygon style="fill:url(#SVGID_00000079448749680162344890000006742149944335061647_);" points="78.7,87.8 79.1,85.6 
					76.9,86.3 76.5,88.6 				"/>
				
					<linearGradient id="SVGID_00000081615215391032645380000000998238206355784078_" gradientUnits="userSpaceOnUse" x1="-3158.4382" y1="1290.2446" x2="-3154.6602" y2="1290.2446" gradientTransform="matrix(-0.6508 0.7593 0.7593 0.6508 -2955.6633 1643.7137)">
					<stop  offset="0" style="stop-color:#84EFF6"/>
					<stop  offset="1" style="stop-color:#3677B9"/>
				</linearGradient>
				<polygon style="fill:url(#SVGID_00000081615215391032645380000000998238206355784078_);" points="78.4,87.6 78.7,86 77.2,86.5 
					76.9,88.1 				"/>
				
					<linearGradient id="SVGID_00000041288294092887491090000005835493214239839908_" gradientUnits="userSpaceOnUse" x1="-3156.0076" y1="1291.0161" x2="-3153.4226" y2="1291.0161" gradientTransform="matrix(-0.6508 0.7593 0.7593 0.6508 -2955.6633 1643.7137)">
					<stop  offset="0" style="stop-color:#84EFF6"/>
					<stop  offset="1" style="stop-color:#3677B9"/>
				</linearGradient>
				<polygon style="fill:url(#SVGID_00000041288294092887491090000005835493214239839908_);" points="76.5,88.6 76.1,89 79,88.1 
					78.7,87.8 				"/>
				
					<linearGradient id="SVGID_00000131327032796731530520000013515152134925993125_" gradientUnits="userSpaceOnUse" x1="-3158.5925" y1="1289.4733" x2="-3156.0076" y2="1289.4733" gradientTransform="matrix(-0.6508 0.7593 0.7593 0.6508 -2955.6633 1643.7137)">
					<stop  offset="0" style="stop-color:#84EFF6"/>
					<stop  offset="1" style="stop-color:#3677B9"/>
				</linearGradient>
				<polygon style="fill:url(#SVGID_00000131327032796731530520000013515152134925993125_);" points="76.6,86.1 76.9,86.3 
					79.1,85.6 79.5,85.1 				"/>
				
					<linearGradient id="SVGID_00000181786539827256699680000006062662694901319085_" gradientUnits="userSpaceOnUse" x1="-3158.5925" y1="1291.0161" x2="-3156.0076" y2="1291.0161" gradientTransform="matrix(-0.6508 0.7593 0.7593 0.6508 -2955.6633 1643.7137)">
					<stop  offset="0" style="stop-color:#FFFFFF"/>
					<stop  offset="0.5031" style="stop-color:#8CFBFC"/>
					<stop  offset="1" style="stop-color:#3677B9"/>
				</linearGradient>
				<polygon style="fill:url(#SVGID_00000181786539827256699680000006062662694901319085_);" points="79.5,85.1 79.1,85.6 
					78.7,87.8 79,88.1 				"/>
				
					<linearGradient id="SVGID_00000070110328944543617380000014971995245300343191_" gradientUnits="userSpaceOnUse" x1="-3156.0076" y1="1289.4733" x2="-3153.4226" y2="1289.4733" gradientTransform="matrix(-0.6508 0.7593 0.7593 0.6508 -2955.6633 1643.7137)">
					<stop  offset="0" style="stop-color:#FFFFFF"/>
					<stop  offset="0.5031" style="stop-color:#8CFBFC"/>
					<stop  offset="1" style="stop-color:#3677B9"/>
				</linearGradient>
				<polygon style="fill:url(#SVGID_00000070110328944543617380000014971995245300343191_);" points="76.6,86.1 76.1,89 76.5,88.6 
					76.9,86.3 				"/>
				<polygon class="st23" points="76.9,88.1 76.5,88.6 78.7,87.8 78.4,87.6 				"/>
				
					<linearGradient id="SVGID_00000055706342927154978150000010974732321006596516_" gradientUnits="userSpaceOnUse" x1="-3157.968" y1="1290.8298" x2="-3156.0076" y2="1290.8298" gradientTransform="matrix(-0.6508 0.7593 0.7593 0.6508 -2955.6633 1643.7137)">
					<stop  offset="0" style="stop-color:#84EFF6"/>
					<stop  offset="1" style="stop-color:#3677B9"/>
				</linearGradient>
				<polygon style="fill:url(#SVGID_00000055706342927154978150000010974732321006596516_);" points="78.7,86 78.4,87.6 78.7,87.8 
					79.1,85.6 				"/>
				
					<linearGradient id="SVGID_00000067198415059735177920000014509820976593104024_" gradientUnits="userSpaceOnUse" x1="-3157.968" y1="1289.6595" x2="-3156.0073" y2="1289.6595" gradientTransform="matrix(-0.6508 0.7593 0.7593 0.6508 -2955.6633 1643.7137)">
					<stop  offset="0" style="stop-color:#FFFFFF"/>
					<stop  offset="0.5031" style="stop-color:#8CFBFC"/>
					<stop  offset="1" style="stop-color:#3677B9"/>
				</linearGradient>
				<polygon style="fill:url(#SVGID_00000067198415059735177920000014509820976593104024_);" points="78.7,86 77.2,86.5 76.9,86.3 
					79.1,85.6 				"/>
				
					<linearGradient id="SVGID_00000169522416733514414160000013110497819650809020_" gradientUnits="userSpaceOnUse" x1="-3156.0076" y1="1289.6595" x2="-3154.0471" y2="1289.6595" gradientTransform="matrix(-0.6508 0.7593 0.7593 0.6508 -2955.6633 1643.7137)">
					<stop  offset="0" style="stop-color:#84EFF6"/>
					<stop  offset="1" style="stop-color:#3677B9"/>
				</linearGradient>
				<polygon style="fill:url(#SVGID_00000169522416733514414160000013110497819650809020_);" points="76.9,86.3 76.5,88.6 
					76.9,88.1 77.2,86.5 				"/>
			</g>
			<g>
				<polygon class="st27" points="76.1,89 77.5,87.9 76.9,88.8 				"/>
			</g>
			<g>
				<polygon class="st27" points="79,88.1 77.8,87.8 78.3,88.3 				"/>
			</g>
			<g>
				<polygon class="st27" points="76.6,86.1 77.8,86.3 77.4,85.8 				"/>
				
					<linearGradient id="SVGID_00000054260606324032177130000014392141682607196037_" gradientUnits="userSpaceOnUse" x1="-3158.5916" y1="1290.0464" x2="-3156.8269" y2="1290.0464" gradientTransform="matrix(-0.6508 0.7593 0.7593 0.6508 -2955.6633 1643.7137)">
					<stop  offset="0" style="stop-color:#84EFF6"/>
					<stop  offset="1" style="stop-color:#6AC0D9"/>
				</linearGradient>
				<polygon style="fill:url(#SVGID_00000054260606324032177130000014392141682607196037_);" points="79.5,85.1 78.1,86.2 
					78.8,85.4 				"/>
			</g>
			<g>
				<polygon class="st27" points="79,88.1 78.6,87 79.1,87.3 				"/>
				
					<linearGradient id="SVGID_00000176021877786747602030000014249861548183256229_" gradientUnits="userSpaceOnUse" x1="-3158.5916" y1="1290.4432" x2="-3156.8269" y2="1290.4432" gradientTransform="matrix(-0.6508 0.7593 0.7593 0.6508 -2955.6633 1643.7137)">
					<stop  offset="0" style="stop-color:#FFFFFF"/>
					<stop  offset="0.5031" style="stop-color:#8CFBFC"/>
					<stop  offset="1" style="stop-color:#3677B9"/>
				</linearGradient>
				<polygon style="fill:url(#SVGID_00000176021877786747602030000014249861548183256229_);" points="79.5,85.1 78.6,86.7 
					79.4,85.9 				"/>
			</g>
			<g>
				
					<linearGradient id="SVGID_00000173147904508610796490000011421808979482351495_" gradientUnits="userSpaceOnUse" x1="-3155.1875" y1="1290.0463" x2="-3153.4226" y2="1290.0463" gradientTransform="matrix(-0.6508 0.7593 0.7593 0.6508 -2955.6633 1643.7137)">
					<stop  offset="0" style="stop-color:#FFFFFF"/>
					<stop  offset="0.5031" style="stop-color:#8CFBFC"/>
					<stop  offset="1" style="stop-color:#3677B9"/>
				</linearGradient>
				<polygon style="fill:url(#SVGID_00000173147904508610796490000011421808979482351495_);" points="76.1,89 77,87.5 76.3,88.3 
									"/>
				<polygon class="st23" points="76.7,86.1 77.1,87.2 76.5,86.8 				"/>
			</g>
		</g>
		<g>
			
				<linearGradient id="SVGID_00000102514715425101037890000017921753492532710570_" gradientUnits="userSpaceOnUse" x1="-3154.6213" y1="1290.4434" x2="-3153.4226" y2="1290.4434" gradientTransform="matrix(-0.6508 0.7593 0.7593 0.6508 -2955.6633 1643.7137)">
				<stop  offset="0" style="stop-color:#FFFFFF;stop-opacity:0"/>
				<stop  offset="1" style="stop-color:#FFFFFF"/>
			</linearGradient>
			<polygon style="fill:url(#SVGID_00000102514715425101037890000017921753492532710570_);" points="76.1,89 76.9,88.1 76.9,88.8 
							"/>
		</g>
		<g>
			
				<linearGradient id="SVGID_00000083061973932931586460000001510608385521301684_" gradientUnits="userSpaceOnUse" x1="-3156.5728" y1="1291.2609" x2="-3155.3418" y2="1291.2609" gradientTransform="matrix(-0.6508 0.7593 0.7593 0.6508 -2955.6633 1643.7137)">
				<stop  offset="0" style="stop-color:#FFFFFF;stop-opacity:0"/>
				<stop  offset="1" style="stop-color:#FFFFFF"/>
			</linearGradient>
			<polygon style="fill:url(#SVGID_00000083061973932931586460000001510608385521301684_);" points="79,88.1 78.6,87 78.3,88.3 			
				"/>
		</g>
		<g>
			
				<linearGradient id="SVGID_00000018199162095892701700000018155753914842644099_" gradientUnits="userSpaceOnUse" x1="-3154.7544" y1="1290.6926" x2="-3154.0886" y2="1290.6926" gradientTransform="matrix(-0.6508 0.7593 0.7593 0.6508 -2955.6633 1643.7137)">
				<stop  offset="0" style="stop-color:#FFFFFF;stop-opacity:0"/>
				<stop  offset="1" style="stop-color:#FFFFFF"/>
			</linearGradient>
			<polygon style="fill:url(#SVGID_00000018199162095892701700000018155753914842644099_);" points="77.6,88.6 76.9,88.3 76.9,88.8 
							"/>
		</g>
		
			<linearGradient id="SVGID_00000165919979497572783650000000862125208908010138_" gradientUnits="userSpaceOnUse" x1="-3158.5916" y1="1290.4432" x2="-3157.3936" y2="1290.4432" gradientTransform="matrix(-0.6508 0.7593 0.7593 0.6508 -2955.6633 1643.7137)">
			<stop  offset="0" style="stop-color:#FFFFFF;stop-opacity:0"/>
			<stop  offset="1" style="stop-color:#FFFFFF"/>
		</linearGradient>
		<polygon style="fill:url(#SVGID_00000165919979497572783650000000862125208908010138_);" points="79.5,85.1 78.7,86 79.4,85.9 		
			"/>
		
			<linearGradient id="SVGID_00000145054796289238466960000011431839206530992267_" gradientUnits="userSpaceOnUse" x1="-3156.0076" y1="1289.0597" x2="-3155.3418" y2="1289.0597" gradientTransform="matrix(-0.6508 0.7593 0.7593 0.6508 -2955.6633 1643.7137)">
			<stop  offset="0" style="stop-color:#FFFFFF;stop-opacity:0"/>
			<stop  offset="1" style="stop-color:#FFFFFF"/>
		</linearGradient>
		<polygon style="fill:url(#SVGID_00000145054796289238466960000011431839206530992267_);" points="76.7,86.1 77.2,86.5 76.5,86.8 
					"/>
		
			<linearGradient id="SVGID_00000165214296896561264510000017548222310104368058_" gradientUnits="userSpaceOnUse" x1="-3157.6987" y1="1290.2446" x2="-3154.3162" y2="1290.2446" gradientTransform="matrix(-0.6508 0.7593 0.7593 0.6508 -2955.6633 1643.7137)">
			<stop  offset="0" style="stop-color:#FFFFFF;stop-opacity:0"/>
			<stop  offset="1" style="stop-color:#FFFFFF"/>
		</linearGradient>
		<polygon style="fill:url(#SVGID_00000165214296896561264510000017548222310104368058_);" points="78.6,87.7 78.9,85.8 77.1,86.4 
			76.7,88.4 		"/>
	</g>
	
		<radialGradient id="SVGID_00000088845246033805780880000012778139499123509433_" cx="78.5606" cy="86.4225" r="7.0394" gradientUnits="userSpaceOnUse">
		<stop  offset="0" style="stop-color:#00FFDC"/>
		<stop  offset="8.775363e-02" style="stop-color:#00D5B7"/>
		<stop  offset="0.2324" style="stop-color:#009580"/>
		<stop  offset="0.3707" style="stop-color:#006053"/>
		<stop  offset="0.4988" style="stop-color:#00362F"/>
		<stop  offset="0.6143" style="stop-color:#001915"/>
		<stop  offset="0.7134" style="stop-color:#000606"/>
		<stop  offset="0.7845" style="stop-color:#000000"/>
	</radialGradient>
	<circle style="fill:url(#SVGID_00000088845246033805780880000012778139499123509433_);" cx="78.6" cy="86.4" r="7"/>
	
		<radialGradient id="SVGID_00000142897880750001621840000015202215929852304049_" cx="47.6332" cy="86.4225" r="7.0394" gradientUnits="userSpaceOnUse">
		<stop  offset="0" style="stop-color:#00FFDC"/>
		<stop  offset="8.775363e-02" style="stop-color:#00D5B7"/>
		<stop  offset="0.2324" style="stop-color:#009580"/>
		<stop  offset="0.3707" style="stop-color:#006053"/>
		<stop  offset="0.4988" style="stop-color:#00362F"/>
		<stop  offset="0.6143" style="stop-color:#001915"/>
		<stop  offset="0.7134" style="stop-color:#000606"/>
		<stop  offset="0.7845" style="stop-color:#000000"/>
	</radialGradient>
	<circle style="fill:url(#SVGID_00000142897880750001621840000015202215929852304049_);" cx="47.6" cy="86.4" r="7"/>
	
		<radialGradient id="SVGID_00000067222503867131489630000000690448803499637916_" cx="62.9865" cy="32.9658" r="5.1162" gradientUnits="userSpaceOnUse">
		<stop  offset="0" style="stop-color:#00FFDC"/>
		<stop  offset="8.775363e-02" style="stop-color:#00D5B7"/>
		<stop  offset="0.2324" style="stop-color:#009580"/>
		<stop  offset="0.3707" style="stop-color:#006053"/>
		<stop  offset="0.4988" style="stop-color:#00362F"/>
		<stop  offset="0.6143" style="stop-color:#001915"/>
		<stop  offset="0.7134" style="stop-color:#000606"/>
		<stop  offset="0.7845" style="stop-color:#000000"/>
	</radialGradient>
	<circle style="fill:url(#SVGID_00000067222503867131489630000000690448803499637916_);" cx="63" cy="33" r="5.1"/>
</g>
</svg>
