<svg width="36" height="35" viewBox="0 0 36 35" fill="none" xmlns="http://www.w3.org/2000/svg">
<g clip-path="url(#clip0_2919_27796)">
<path fill-rule="evenodd" clip-rule="evenodd" d="M17.9974 5.83268C15.3684 5.83155 12.816 6.71841 10.7542 8.34949C8.6923 9.98058 7.24178 12.2603 6.63777 14.819C6.03375 17.3776 6.31166 20.0653 7.42644 22.4463C8.54121 24.8273 10.4275 26.7619 12.7795 27.9366C13.1254 28.1099 13.3884 28.4135 13.5105 28.7807C13.6326 29.1479 13.6039 29.5485 13.4306 29.8945C13.2573 30.2404 12.9537 30.5034 12.5866 30.6255C12.2194 30.7476 11.8188 30.7189 11.4728 30.5456C9.05056 29.3338 7.01362 27.4715 5.59025 25.1672C4.16689 22.8629 3.41334 20.2078 3.41406 17.4993C3.41406 9.44497 9.94302 2.91602 17.9974 2.91602C26.0518 2.91602 32.5807 9.44497 32.5807 17.4993C32.5814 20.2078 31.8279 22.8629 30.4045 25.1672C28.9812 27.4715 26.9442 29.3338 24.522 30.5456C24.3507 30.6314 24.1641 30.6826 23.973 30.6963C23.7819 30.71 23.59 30.686 23.4082 30.6255C23.2264 30.565 23.0583 30.4694 22.9135 30.3439C22.7687 30.2185 22.65 30.0658 22.5642 29.8945C22.4784 29.7231 22.4272 29.5366 22.4134 29.3455C22.3997 29.1544 22.4238 28.9625 22.4843 28.7807C22.5447 28.5989 22.6404 28.4308 22.7658 28.286C22.8913 28.1411 23.044 28.0224 23.2153 27.9366C25.5673 26.7619 27.4536 24.8273 28.5684 22.4463C29.6831 20.0653 29.961 17.3776 29.357 14.819C28.753 12.2603 27.3025 9.98058 25.2406 8.34949C23.1788 6.71841 20.6264 5.83155 17.9974 5.83268ZM17.9974 11.666C16.6826 11.6651 15.4061 12.1084 14.3749 12.924C13.3436 13.7396 12.6181 14.8796 12.3161 16.1592C12.0141 17.4388 12.1531 18.783 12.7108 19.9736C13.2685 21.1643 14.212 22.1316 15.3884 22.7187C15.7253 22.8969 15.979 23.1999 16.0953 23.5628C16.2115 23.9258 16.1811 24.3198 16.0105 24.6605C15.84 25.0013 15.5428 25.2618 15.1826 25.3862C14.8224 25.5106 14.4278 25.4891 14.0832 25.3262C12.3206 24.4444 10.9073 22.9933 10.0722 21.208C9.2372 19.4227 9.02938 17.4077 9.48242 15.4896C9.93547 13.5714 11.0228 11.8624 12.5684 10.6393C14.114 9.41629 16.0272 8.75087 17.9981 8.75087C19.9691 8.75087 21.8823 9.41629 23.4278 10.6393C24.9734 11.8624 26.0608 13.5714 26.5138 15.4896C26.9669 17.4077 26.759 19.4227 25.924 21.208C25.089 22.9933 23.6757 24.4444 21.913 25.3262C21.5677 25.496 21.1692 25.5223 20.8045 25.3995C20.4398 25.2768 20.1384 25.0148 19.966 24.6708C19.7936 24.3267 19.7642 23.9285 19.8841 23.5629C20.0041 23.1972 20.2637 22.8938 20.6064 22.7187C21.7827 22.1316 22.7263 21.1643 23.284 19.9736C23.8416 18.783 23.9807 17.4388 23.6787 16.1592C23.3766 14.8796 22.6512 13.7396 21.6199 12.924C20.5887 12.1084 19.3122 11.6651 17.9974 11.666ZM15.0807 17.4993C15.0807 16.7258 15.388 15.9839 15.935 15.437C16.482 14.89 17.2238 14.5827 17.9974 14.5827C18.7709 14.5827 19.5128 14.89 20.0598 15.437C20.6068 15.9839 20.9141 16.7258 20.9141 17.4993C20.9141 18.2729 20.6068 19.0148 20.0598 19.5617C19.5128 20.1087 18.7709 20.416 17.9974 20.416C17.2238 20.416 16.482 20.1087 15.935 19.5617C15.388 19.0148 15.0807 18.2729 15.0807 17.4993Z" fill="url(#paint0_linear_2919_27796)"/>
</g>
<defs>
<linearGradient id="paint0_linear_2919_27796" x1="17.9974" y1="2.91602" x2="17.9974" y2="30.7001" gradientUnits="userSpaceOnUse">
<stop stop-color="#FF0420"/>
<stop offset="1" stop-color="#BD2738"/>
</linearGradient>
<clipPath id="clip0_2919_27796">
<rect width="35" height="35" fill="white" transform="translate(0.5)"/>
</clipPath>
</defs>
</svg>
