<svg width="20" height="20" viewBox="0 0 20 20" fill="none" xmlns="http://www.w3.org/2000/svg">
<path d="M9.1665 12.5003H10.8332V14.167H9.1665V12.5003ZM9.1665 5.83366H10.8332V10.8337H9.1665V5.83366ZM9.99984 1.66699C5.3915 1.66699 1.6665 5.41699 1.6665 10.0003C1.6665 12.2105 2.54448 14.3301 4.10728 15.8929C4.8811 16.6667 5.79976 17.2805 6.81081 17.6993C7.82185 18.1181 8.90549 18.3337 9.99984 18.3337C12.21 18.3337 14.3296 17.4557 15.8924 15.8929C17.4552 14.3301 18.3332 12.2105 18.3332 10.0003C18.3332 8.90598 18.1176 7.82234 17.6988 6.8113C17.28 5.80025 16.6662 4.88159 15.8924 4.10777C15.1186 3.33395 14.1999 2.72012 13.1889 2.30133C12.1778 1.88254 11.0942 1.66699 9.99984 1.66699ZM9.99984 16.667C8.23173 16.667 6.53603 15.9646 5.28579 14.7144C4.03555 13.4641 3.33317 11.7684 3.33317 10.0003C3.33317 8.23222 4.03555 6.53652 5.28579 5.28628C6.53603 4.03604 8.23173 3.33366 9.99984 3.33366C11.7679 3.33366 13.4636 4.03604 14.7139 5.28628C15.9641 6.53652 16.6665 8.23222 16.6665 10.0003C16.6665 11.7684 15.9641 13.4641 14.7139 14.7144C13.4636 15.9646 11.7679 16.667 9.99984 16.667Z" fill="url(#paint0_linear_7868_45406)"/>
<defs>
<linearGradient id="paint0_linear_7868_45406" x1="9.99984" y1="1.66699" x2="9.99984" y2="18.3337" gradientUnits="userSpaceOnUse">
<stop stop-color="#FF0420"/>
<stop offset="1" stop-color="#BD2738"/>
</linearGradient>
</defs>
</svg>
