<svg width="173" height="172" viewBox="0 0 173 172" fill="none" xmlns="http://www.w3.org/2000/svg">
<g filter="url(#filter0_b_5909_26425)">
<circle cx="86.2637" cy="86" r="42.8106" fill="#232933"/>
</g>
<path d="M101 71C99.6729 71.004 98.3851 71.4479 97.3379 72.2622C96.2907 73.0766 95.5432 74.2153 95.2125 75.5H88.8945C88.6148 73.2728 87.7157 71.1687 86.2995 69.4272C84.8832 67.6856 83.0067 66.3765 80.8833 65.6486C78.7598 64.9207 76.4747 64.8033 74.2879 65.3098C72.1011 65.8162 70.1002 66.9262 68.513 68.5135C66.9257 70.1007 65.8157 72.1015 65.3093 74.2884C64.8028 76.4752 64.9202 78.7603 65.6481 80.8837C66.376 83.0072 67.6851 84.8837 69.4267 86.3C71.1683 87.7162 73.2723 88.6153 75.4995 88.895V95.213C74.0855 95.5781 72.8532 96.4464 72.0336 97.655C71.214 98.8637 70.8633 100.33 71.0474 101.779C71.2314 103.227 71.9374 104.559 73.0332 105.525C74.1289 106.49 75.5392 107.022 76.9995 107.022C78.4599 107.022 79.8701 106.49 80.9659 105.525C82.0616 104.559 82.7677 103.227 82.9517 101.779C83.1357 100.33 82.7851 98.8637 81.9654 97.655C81.1458 96.4464 79.9135 95.5781 78.4995 95.213V88.8965C80.6319 88.6281 82.6521 87.7885 84.3465 86.4665L89.85 91.9715C89.299 92.886 89.0052 93.9324 88.9995 95C88.9995 96.1867 89.3514 97.3467 90.0107 98.3334C90.67 99.3201 91.6071 100.089 92.7034 100.543C93.7998 100.997 95.0062 101.116 96.1701 100.885C97.334 100.653 98.4031 100.082 99.2422 99.2427C100.081 98.4035 100.653 97.3344 100.884 96.1706C101.116 95.0067 100.997 93.8003 100.543 92.7039C100.089 91.6076 99.3196 90.6705 98.333 90.0112C97.3463 89.3519 96.1862 89 94.9995 89C93.9319 89.0056 92.8855 89.2995 91.971 89.8505L86.466 84.3455C87.7884 82.6517 88.6285 80.632 88.8975 78.5H95.214C95.4965 79.5839 96.0773 80.5669 96.8904 81.3373C97.7034 82.1077 98.7163 82.6347 99.8138 82.8584C100.911 83.082 102.05 82.9935 103.099 82.6027C104.149 82.212 105.068 81.5347 105.752 80.6478C106.437 79.7609 106.858 78.7 106.97 77.5854C107.081 76.4709 106.878 75.3474 106.383 74.3426C105.888 73.3378 105.121 72.492 104.169 71.9011C103.218 71.3103 102.12 70.9981 101 71ZM79.9995 101C79.9995 101.593 79.8236 102.173 79.4939 102.667C79.1643 103.16 78.6958 103.545 78.1476 103.772C77.5994 103.999 76.9962 104.058 76.4143 103.942C75.8323 103.827 75.2978 103.541 74.8782 103.121C74.4587 102.702 74.1729 102.167 74.0572 101.585C73.9414 101.003 74.0008 100.4 74.2279 99.852C74.455 99.3038 74.8395 98.8353 75.3328 98.5056C75.8262 98.176 76.4062 98 76.9995 98C77.7949 98.0008 78.5575 98.3171 79.12 98.8796C79.6824 99.442 79.9987 100.205 79.9995 101ZM76.9995 86C75.2195 86 73.4794 85.4722 71.9994 84.4832C70.5194 83.4943 69.3658 82.0887 68.6846 80.4442C68.0034 78.7996 67.8252 76.99 68.1725 75.2442C68.5197 73.4984 69.3769 71.8947 70.6356 70.6361C71.8942 69.3774 73.4979 68.5202 75.2437 68.173C76.9895 67.8257 78.7991 68.0039 80.4437 68.6851C82.0882 69.3663 83.4938 70.5198 84.4828 71.9999C85.4717 73.4799 85.9995 75.22 85.9995 77C85.9968 79.3861 85.0476 81.6737 83.3604 83.3609C81.6732 85.0481 79.3856 85.9972 76.9995 86ZM97.9995 95C97.9995 95.5934 97.8236 96.1734 97.4939 96.6667C97.1643 97.1601 96.6958 97.5446 96.1476 97.7717C95.5994 97.9987 94.9962 98.0581 94.4143 97.9424C93.8323 97.8266 93.2978 97.5409 92.8782 97.1213C92.4587 96.7018 92.1729 96.1672 92.0572 95.5853C91.9414 95.0033 92.0008 94.4001 92.2279 93.852C92.455 93.3038 92.8395 92.8353 93.3328 92.5056C93.8262 92.176 94.4062 92 94.9995 92C95.7949 92.0008 96.5575 92.3171 97.12 92.8796C97.6824 93.442 97.9987 94.2046 97.9995 95ZM101 80C100.406 80 99.8262 79.8241 99.3328 79.4944C98.8395 79.1648 98.455 78.6962 98.2279 78.1481C98.0008 77.5999 97.9414 76.9967 98.0572 76.4147C98.1729 75.8328 98.4587 75.2983 98.8782 74.8787C99.2978 74.4591 99.8323 74.1734 100.414 74.0577C100.996 73.9419 101.599 74.0013 102.148 74.2284C102.696 74.4554 103.164 74.84 103.494 75.3333C103.824 75.8267 104 76.4067 104 77C103.999 77.7954 103.682 78.558 103.12 79.1205C102.558 79.6829 101.795 79.9992 101 80Z" fill="url(#paint0_linear_5909_26425)"/>
<circle cx="86.262" cy="86" r="53.9339" stroke="url(#paint1_linear_5909_26425)" stroke-width="2" stroke-dasharray="1 5"/>
<circle opacity="0.5" cx="86.2676" cy="86" r="70.6035" stroke="url(#paint2_linear_5909_26425)" stroke-width="2" stroke-dasharray="1 10"/>
<circle opacity="0.5" cx="86.2656" cy="86" r="85" stroke="url(#paint3_linear_5909_26425)" stroke-width="2" stroke-dasharray="1 15"/>
<defs>
<filter id="filter0_b_5909_26425" x="33.4531" y="33.1895" width="105.625" height="105.621" filterUnits="userSpaceOnUse" color-interpolation-filters="sRGB">
<feFlood flood-opacity="0" result="BackgroundImageFix"/>
<feGaussianBlur in="BackgroundImageFix" stdDeviation="5"/>
<feComposite in2="SourceAlpha" operator="in" result="effect1_backgroundBlur_5909_26425"/>
<feBlend mode="normal" in="SourceGraphic" in2="effect1_backgroundBlur_5909_26425" result="shape"/>
</filter>
<linearGradient id="paint0_linear_5909_26425" x1="65" y1="91.1361" x2="118.789" y2="91.1361" gradientUnits="userSpaceOnUse">
<stop stop-color="#BC2738"/>
<stop offset="1" stop-color="#6E1620"/>
</linearGradient>
<linearGradient id="paint1_linear_5909_26425" x1="31.3281" y1="99.3985" x2="172.036" y2="99.3985" gradientUnits="userSpaceOnUse">
<stop stop-color="#BC2738"/>
<stop offset="1" stop-color="#6E1620"/>
</linearGradient>
<linearGradient id="paint2_linear_5909_26425" x1="14.6641" y1="103.464" x2="198.07" y2="103.464" gradientUnits="userSpaceOnUse">
<stop stop-color="#BC2738"/>
<stop offset="1" stop-color="#6E1620"/>
</linearGradient>
<linearGradient id="paint3_linear_5909_26425" x1="0.265625" y1="106.976" x2="220.546" y2="106.976" gradientUnits="userSpaceOnUse">
<stop stop-color="#BC2738"/>
<stop offset="1" stop-color="#6E1620"/>
</linearGradient>
</defs>
</svg>
