<svg width="35" height="35" viewBox="0 0 35 35" fill="none" xmlns="http://www.w3.org/2000/svg">
<g clip-path="url(#clip0_3149_13830)">
<path d="M20.4141 4.375C21.1876 4.375 21.9295 4.68229 22.4765 5.22927C23.0234 5.77625 23.3307 6.51812 23.3307 7.29167V11.6667H29.1641C29.9376 11.6667 30.6795 11.974 31.2265 12.5209C31.7734 13.0679 32.0807 13.8098 32.0807 14.5833V27.7083C32.0807 28.4819 31.7734 29.2237 31.2265 29.7707C30.6795 30.3177 29.9376 30.625 29.1641 30.625H5.83073C5.05718 30.625 4.31532 30.3177 3.76833 29.7707C3.22135 29.2237 2.91406 28.4819 2.91406 27.7083V18.9583C2.91406 18.1848 3.22135 17.4429 3.76833 16.8959C4.31532 16.349 5.05718 16.0417 5.83073 16.0417H11.6641V7.29167C11.6641 6.51812 11.9714 5.77625 12.5183 5.22927C13.0653 4.68229 13.8072 4.375 14.5807 4.375H20.4141ZM20.4141 7.29167H14.5807V27.7083H20.4141V7.29167ZM29.1641 14.5833H23.3307V27.7083H29.1641V14.5833ZM11.6641 18.9583H5.83073V27.7083H11.6641V18.9583Z" fill="url(#paint0_linear_3149_13830)"/>
</g>
<defs>
<linearGradient id="paint0_linear_3149_13830" x1="17.4974" y1="4.375" x2="17.4974" y2="30.625" gradientUnits="userSpaceOnUse">
<stop stop-color="#FF0420"/>
<stop offset="1" stop-color="#BD2738"/>
</linearGradient>
<clipPath id="clip0_3149_13830">
<rect width="35" height="35" fill="white"/>
</clipPath>
</defs>
</svg>
