<svg width="58" height="69" viewBox="0 0 58 69" fill="none" xmlns="http://www.w3.org/2000/svg">
    <g opacity="0.3">
        <path
            d="M39.9809 28.353L44.0348 32.1236L57.9048 19.9233V0.0693359L53.6474 3.31131L51.4813 4.97026L49.1785 6.73324L48.659 7.1297C44.806 10.0736 40.4388 13.4084 36.409 17.0749L35.8119 17.6092C34.3365 18.9223 32.6656 20.4209 31.7151 22.8335C30.717 25.3419 30.6568 28.1534 31.5464 30.7064C32.8076 34.1818 35.4745 36.285 37.8281 38.1407C38.3342 38.54 38.8108 38.9168 39.2633 39.2964C42.2756 41.827 45.3522 44.3829 48.327 46.8488L51.824 49.7534V56.4482L30.8984 39.153L30.9145 46.1824L57.1872 68.148V47.0259L56.1724 46.1824L51.6526 42.4315C48.6831 39.9684 45.6146 37.4237 42.6157 34.8988C42.0989 34.4658 41.5661 34.0552 41.0466 33.6363C39.1053 32.1039 37.2685 30.6558 36.5589 28.7016C36.1506 27.4896 36.1917 26.1605 36.674 24.9788C37.1292 23.8204 38.0771 22.9769 39.2793 21.9056C39.4936 21.7181 39.7078 21.5307 39.922 21.3432C43.7777 17.8341 48.0459 14.5725 51.8133 11.696L52.3327 11.2996L52.5416 11.1393V17.2943L39.9809 28.353Z"
            fill="url(#paint0_linear_3300_2281)" />
        <path
            d="M27.9771 29.4631L27.9584 22.4337L1.6776 0.476562V21.5817L2.69242 22.4253C4.19724 23.6793 5.70385 24.9306 7.21224 26.179C10.179 28.6421 13.2503 31.1867 16.2465 33.7089C16.766 34.1447 17.2988 34.5665 17.8156 34.9742C19.7595 36.5066 21.5964 37.9547 22.3059 39.9089C22.7129 41.1211 22.6718 42.4497 22.1908 43.6317C21.7356 44.7901 20.785 45.6336 19.5855 46.7021L18.9428 47.2785C15.0871 50.7876 10.819 54.0493 7.05155 56.9257L6.53211 57.3222L6.32325 57.4796V51.3219L18.8947 40.2772L14.8408 36.4954L0.970703 48.7069V68.5552L5.22812 65.3104L7.3943 63.6515L9.69704 61.8913L10.2165 61.4949C14.0696 58.5509 18.4368 55.2162 22.4666 51.5496C22.6647 51.3697 22.8629 51.1897 23.0637 51.0154C24.5364 49.7023 26.2099 48.2036 27.1605 45.7883C28.1585 43.2799 28.2188 40.4684 27.3291 37.9153C26.0653 34.44 23.4011 32.3396 21.0474 30.4838C20.5414 30.0845 20.0648 29.7078 19.6122 29.3282C16.5999 26.7976 13.5234 24.2417 10.5459 21.7729L7.06495 18.8712V12.1595L27.9771 29.4631Z"
            fill="url(#paint1_linear_3300_2281)" />
    </g>
    <defs>
        <linearGradient id="paint0_linear_3300_2281" x1="30.8984" y1="34.1059" x2="57.9048"
            y2="34.1059" gradientUnits="userSpaceOnUse">
            <stop stop-color="#FF0420" />
            <stop offset="1" stop-color="#BD2738" />
        </linearGradient>
        <linearGradient id="paint1_linear_3300_2281" x1="0.970703" y1="34.5075" x2="27.9771"
            y2="34.5075" gradientUnits="userSpaceOnUse">
            <stop stop-color="#FF0420" />
            <stop offset="1" stop-color="#BD2738" />
        </linearGradient>
    </defs>
</svg>
    