<svg width="15" height="16" viewBox="0 0 15 16" fill="none" xmlns="http://www.w3.org/2000/svg">
<path d="M6.40188 10.6962L3.75 8.04372L4.63375 7.15997L6.40188 8.92747L9.93688 5.39185L10.8212 6.27622L6.40188 10.695V10.6962Z" fill="white"/>
<path fill-rule="evenodd" clip-rule="evenodd" d="M0.625 8C0.625 4.20312 3.70312 1.125 7.5 1.125C11.2969 1.125 14.375 4.20312 14.375 8C14.375 11.7969 11.2969 14.875 7.5 14.875C3.70312 14.875 0.625 11.7969 0.625 8ZM7.5 13.625C6.76131 13.625 6.02986 13.4795 5.34741 13.1968C4.66495 12.9141 4.04485 12.4998 3.52252 11.9775C3.00019 11.4551 2.58586 10.8351 2.30318 10.1526C2.02049 9.47014 1.875 8.73869 1.875 8C1.875 7.26131 2.02049 6.52986 2.30318 5.84741C2.58586 5.16495 3.00019 4.54485 3.52252 4.02252C4.04485 3.50019 4.66495 3.08586 5.34741 2.80318C6.02986 2.52049 6.76131 2.375 7.5 2.375C8.99184 2.375 10.4226 2.96763 11.4775 4.02252C12.5324 5.07742 13.125 6.50816 13.125 8C13.125 9.49184 12.5324 10.9226 11.4775 11.9775C10.4226 13.0324 8.99184 13.625 7.5 13.625Z" fill="white"/>
</svg>
