<svg width="18" height="18" viewBox="0 0 18 18" fill="none" xmlns="http://www.w3.org/2000/svg">
<path d="M15.6823 6.53747L15.3894 6.37421C15.1317 6.24146 14.9148 6.04119 14.762 5.79479C14.7484 5.77319 14.7356 5.74998 14.71 5.70516C14.5375 5.42816 14.4538 5.10511 14.4699 4.77922L14.4747 4.43909C14.4843 3.89489 14.4891 3.62119 14.4123 3.3763C14.3443 3.1584 14.2306 2.95756 14.0786 2.78729C13.9073 2.59522 13.6696 2.45756 13.1934 2.18386L12.7981 1.95578C12.3243 1.68288 12.0866 1.54603 11.8345 1.49401C11.6118 1.4479 11.3818 1.44981 11.1599 1.49961C10.9094 1.55563 10.6749 1.69648 10.2067 1.97659L10.2043 1.97819L9.92102 2.14705C9.87621 2.17426 9.853 2.18707 9.83059 2.19987C9.60811 2.32392 9.36002 2.39194 9.10472 2.39994C9.07911 2.40154 9.0527 2.40154 9.00068 2.40154L8.89665 2.40074C8.64126 2.3927 8.39152 2.32354 8.16838 2.19907C8.14597 2.18707 8.12436 2.17346 8.07954 2.14625L7.79384 1.97499C7.32247 1.69168 7.08638 1.55083 6.83429 1.49401C6.61153 1.4441 6.38068 1.44246 6.15724 1.48921C5.90434 1.54203 5.66746 1.67968 5.19288 1.95498L5.19048 1.95578L4.79994 2.18226L4.79594 2.18546C4.32536 2.45756 4.08928 2.59522 3.91961 2.78649C3.76842 2.95646 3.6552 3.15672 3.58749 3.3739C3.51146 3.61959 3.51546 3.89329 3.52507 4.44069L3.53067 4.78002C3.53067 4.83204 3.53307 4.85765 3.53227 4.88246C3.52805 5.17321 3.44477 5.45733 3.29138 5.70436C3.26497 5.74918 3.25297 5.77158 3.23936 5.79239C3.10443 6.01021 2.91917 6.19245 2.69916 6.32379L2.60953 6.37421L2.32062 6.53427C1.83885 6.80076 1.59796 6.93441 1.42349 7.12488C1.26838 7.29281 1.15104 7.49202 1.07937 7.7091C0.999339 7.95479 0.999339 8.22929 1.00014 8.77989L1.00174 9.23046C1.00254 9.77706 1.00414 10.05 1.08497 10.294C1.15634 10.5098 1.27284 10.7078 1.4267 10.8751C1.60116 11.0639 1.83965 11.1968 2.31742 11.4625L2.60393 11.6217C2.65275 11.6489 2.67756 11.6618 2.70076 11.6762C2.95156 11.8265 3.15637 12.0427 3.29298 12.3012L3.3466 12.3972C3.48178 12.6524 3.54538 12.9395 3.53067 13.2279L3.52507 13.5536C3.51546 14.1027 3.51146 14.378 3.58829 14.6236C3.65632 14.8413 3.76996 15.0422 3.92201 15.2127C4.09328 15.4047 4.33176 15.5416 4.80714 15.8161L5.20249 16.0442C5.67706 16.3171 5.91395 16.4539 6.16604 16.5059C6.38877 16.552 6.61876 16.5501 6.84069 16.5003C7.09198 16.4443 7.32647 16.3035 7.79624 16.0218L8.07954 15.8521C8.32356 15.695 8.60576 15.6073 8.89584 15.5984H9.10392C9.35842 15.6064 9.60811 15.676 9.83219 15.8001L9.90582 15.8441L10.2067 16.025C10.6789 16.3083 10.9142 16.4491 11.1663 16.5051C11.3889 16.5555 11.6198 16.5577 11.8433 16.5115C12.0954 16.4587 12.3339 16.3203 12.8085 16.045L13.2046 15.8153C13.6752 15.5416 13.9113 15.4047 14.081 15.2135C14.233 15.043 14.3451 14.8429 14.4131 14.626C14.4891 14.382 14.4851 14.1107 14.4755 13.5713L14.4691 13.2191C14.4532 12.8938 14.537 12.5713 14.7092 12.2948L14.7612 12.2068C14.8961 11.9889 15.0814 11.8067 15.3014 11.6754L15.3894 11.6265L15.391 11.6257L15.6799 11.4657C16.1617 11.1984 16.4026 11.0655 16.5779 10.8751C16.7331 10.707 16.85 10.5069 16.9212 10.2908C17.0012 10.0468 17.0012 9.77306 16.9996 9.22886L16.998 8.76949C16.9972 8.22289 16.9964 7.94919 16.9156 7.7051C16.8438 7.4896 16.7271 7.29182 16.5731 7.12488C16.3994 6.93601 16.1609 6.80316 15.6839 6.53827L15.6823 6.53747Z" stroke="white" stroke-width="1.5" stroke-linecap="round" stroke-linejoin="round"/>
<path d="M5.79688 9.00001C5.79688 9.84901 6.13414 10.6632 6.73448 11.2636C7.33482 11.8639 8.14905 12.2012 8.99805 12.2012C9.84706 12.2012 10.6613 11.8639 11.2616 11.2636C11.862 10.6632 12.1992 9.84901 12.1992 9.00001C12.1992 8.151 11.862 7.33677 11.2616 6.73643C10.6613 6.13609 9.84706 5.79883 8.99805 5.79883C8.14905 5.79883 7.33482 6.13609 6.73448 6.73643C6.13414 7.33677 5.79688 8.151 5.79688 9.00001Z" stroke="white" stroke-width="1.5" stroke-linecap="round" stroke-linejoin="round"/>
</svg>
