<svg width="35" height="35" viewBox="0 0 35 35" fill="none" xmlns="http://www.w3.org/2000/svg">
<path d="M30.625 24.0618C30.625 24.616 30.3188 25.0973 29.8521 25.3452L18.3313 31.8202C18.0979 31.9952 17.8063 32.0827 17.5 32.0827C17.1938 32.0827 16.9021 31.9952 16.6688 31.8202L5.14792 25.3452C4.91412 25.2223 4.71846 25.0377 4.5822 24.8115C4.44593 24.5852 4.37427 24.326 4.37501 24.0618V10.9368C4.37501 10.3827 4.68126 9.90143 5.14792 9.65351L16.6688 3.17852C16.9021 3.00352 17.1938 2.91602 17.5 2.91602C17.8063 2.91602 18.0979 3.00352 18.3313 3.17852L29.8521 9.65351C30.3188 9.90143 30.625 10.3827 30.625 10.9368V24.0618ZM17.5 6.05143L8.80834 10.9368L17.5 15.8223L26.1917 10.9368L17.5 6.05143ZM7.29167 23.2014L16.0417 28.1306V18.3452L7.29167 13.4306V23.2014ZM27.7083 23.2014V13.4306L18.9583 18.3452V28.1306L27.7083 23.2014Z" fill="url(#paint0_linear_2919_27805)"/>
<defs>
<linearGradient id="paint0_linear_2919_27805" x1="17.5" y1="2.91602" x2="17.5" y2="32.0827" gradientUnits="userSpaceOnUse">
<stop stop-color="#FF0420"/>
<stop offset="1" stop-color="#BD2738"/>
</linearGradient>
</defs>
</svg>
