<?xml version="1.0" encoding="utf-8"?>
<!-- Generator: Adobe Illustrator 26.0.0, SVG Export Plug-In . SVG Version: 6.00 Build 0)  -->
<svg version="1.1" id="Capa_1" xmlns="http://www.w3.org/2000/svg" xmlns:xlink="http://www.w3.org/1999/xlink" x="0px" y="0px"
	 viewBox="0 0 13.2 29.76" style="enable-background:new 0 0 13.2 29.76;" xml:space="preserve">
<style type="text/css">
	.st0{fill:none;stroke:url(#SVGID_1_);stroke-width:0.9333;stroke-linecap:round;stroke-linejoin:round;}
	.st1{fill:#3373B9;}
	.st2{fill:#FFFFFF;}
</style>
<linearGradient id="SVGID_1_" gradientUnits="userSpaceOnUse" x1="1.2666" y1="303.6297" x2="14.9275" y2="303.6297" gradientTransform="matrix(-1 0 0 1 13.2 -295.2911)">
	<stop  offset="0" style="stop-color:#BC2A39"/>
	<stop  offset="1" style="stop-color:#6E1620"/>
</linearGradient>
<path class="st0" d="M11.93,5.53V4.28c0-0.33-0.14-0.65-0.39-0.88c-0.25-0.23-0.59-0.37-0.94-0.37h-8c-0.35,0-0.69,0.13-0.94,0.37
	C1.41,3.63,1.27,3.94,1.27,4.28v1.25 M9.93,10.53L6.6,13.65 M6.6,13.65l-3.33-3.12 M6.6,13.65v-7.5"/>
<g>
	<path class="st1" d="M6.72,28.58c3.17,0,5.72-2.55,5.72-5.72s-2.55-5.72-5.72-5.72S1,19.69,1,22.86S3.55,28.58,6.72,28.58z"/>
	<path class="st2" d="M8.29,23.77c0-0.83-0.5-1.12-1.5-1.24c-0.71-0.1-0.86-0.29-0.86-0.62s0.24-0.55,0.71-0.55
		c0.43,0,0.67,0.14,0.79,0.5c0.02,0.07,0.1,0.12,0.17,0.12h0.38c0.1,0,0.17-0.07,0.17-0.17v-0.02c-0.09-0.53-0.53-0.93-1.07-0.98
		v-0.57c0-0.1-0.07-0.17-0.19-0.19H6.53c-0.1,0-0.17,0.07-0.19,0.19v0.55c-0.71,0.1-1.17,0.57-1.17,1.17c0,0.79,0.48,1.1,1.48,1.22
		c0.67,0.12,0.88,0.26,0.88,0.64s-0.33,0.64-0.79,0.64c-0.62,0-0.83-0.26-0.91-0.62c-0.02-0.1-0.1-0.14-0.17-0.14H5.27
		c-0.1,0-0.17,0.07-0.17,0.17v0.02c0.1,0.6,0.48,1.02,1.26,1.14v0.57c0,0.1,0.07,0.17,0.19,0.19h0.36c0.1,0,0.17-0.07,0.19-0.19
		v-0.57C7.82,24.91,8.29,24.41,8.29,23.77L8.29,23.77z"/>
	<path class="st2" d="M5.5,26.27c-1.86-0.67-2.81-2.74-2.12-4.58c0.36-1,1.14-1.76,2.12-2.12c0.1-0.05,0.14-0.12,0.14-0.24V19
		c0-0.1-0.05-0.17-0.14-0.19c-0.02,0-0.07,0-0.1,0.02c-2.26,0.71-3.5,3.12-2.79,5.39c0.42,1.33,1.46,2.37,2.79,2.79
		c0.1,0.05,0.19,0,0.21-0.1c0.02-0.02,0.02-0.05,0.02-0.1v-0.33C5.65,26.41,5.58,26.32,5.5,26.27z M8.03,18.83
		c-0.1-0.05-0.19,0-0.21,0.1c-0.02,0.02-0.02,0.05-0.02,0.1v0.33c0,0.1,0.07,0.19,0.14,0.24c1.86,0.67,2.81,2.74,2.12,4.58
		c-0.36,1-1.14,1.76-2.12,2.12c-0.1,0.05-0.14,0.12-0.14,0.24v0.33c0,0.1,0.05,0.17,0.14,0.19c0.02,0,0.07,0,0.1-0.02
		c2.26-0.71,3.5-3.12,2.79-5.39C10.4,20.31,9.36,19.27,8.03,18.83L8.03,18.83z"/>
</g>
</svg>
