<svg width="28" height="20" viewBox="0 0 28 20" fill="none" xmlns="http://www.w3.org/2000/svg">
<path d="M9.94135 0.0854488C9.94135 0.0854488 6.19732 0.340644 3.74877 2.29106C3.73729 2.29562 3.7235 2.30246 3.71202 2.30929C3.28708 2.69892 2.96781 3.30273 2.57273 4.16857C2.17765 5.03441 1.75961 6.14861 1.37832 7.39496C0.618024 9.88995 0.000143708 12.9523 0.000143708 15.8346C-0.0021531 15.9372 0.0231135 16.0374 0.0736462 16.1263C0.932707 17.6233 2.51301 18.5278 3.98765 19.0975C5.4623 19.6671 6.82439 19.895 7.51577 19.9177C7.71101 19.9246 7.89707 19.8357 8.01192 19.6808L9.44521 17.7121C10.6006 17.9833 11.9558 18.1678 13.5246 18.1678C15.0934 18.1678 16.4486 17.9833 17.604 17.7121L19.0373 19.6808C19.1521 19.8357 19.3382 19.9246 19.5334 19.9177C20.2248 19.895 21.5869 19.6671 23.0616 19.0975C24.5362 18.5278 26.1165 17.6233 26.9756 16.1263C27.0261 16.0374 27.0514 15.9372 27.0491 15.8346C27.0491 12.9523 26.4312 9.88995 25.6709 7.39496C25.2896 6.14861 24.8715 5.03441 24.4765 4.16857C24.0814 3.30273 23.7621 2.69892 23.3372 2.30929C23.3257 2.30246 23.3119 2.29562 23.3004 2.29106C20.8519 0.340644 17.1078 0.0854488 17.1078 0.0854488C17.0642 0.0808921 17.0229 0.0808921 16.9792 0.0854488C16.7748 0.112791 16.6025 0.244946 16.5198 0.431785C16.5198 0.431785 16.32 0.866984 16.1891 1.48902C15.0429 1.30674 14.0782 1.25205 13.5246 1.25205C12.971 1.25205 12.0063 1.30674 10.8601 1.48902C10.7292 0.866984 10.5294 0.431785 10.5294 0.431785C10.4283 0.203932 10.1917 0.0649422 9.94135 0.0854488ZM9.57384 1.3432C9.61749 1.46168 9.64735 1.57333 9.6841 1.70776C8.35876 2.01308 6.90708 2.51208 5.54958 3.3483C5.33597 3.43716 5.19585 3.64223 5.18896 3.87236C5.18437 4.10021 5.31529 4.31212 5.52202 4.41237C5.73104 4.51035 5.97911 4.48073 6.15598 4.33262C8.88016 2.65791 12.3463 2.41866 13.5246 2.41866C14.7029 2.41866 18.169 2.65791 20.8932 4.33262C21.0701 4.48073 21.3182 4.51035 21.5272 4.41237C21.7339 4.31212 21.8648 4.10021 21.8602 3.87236C21.8534 3.64223 21.7132 3.43716 21.4996 3.3483C20.1421 2.51208 18.6904 2.01308 17.3651 1.70776C17.4019 1.57333 17.4317 1.46168 17.4754 1.3432C18.1461 1.42522 20.7531 1.77384 22.5287 3.16602C22.6435 3.27083 23.0432 3.85413 23.4107 4.66073C23.7782 5.46733 24.1641 6.51773 24.5316 7.72307C25.2482 10.0745 25.8271 12.9751 25.8546 15.6341C25.1862 16.7073 23.9321 17.5048 22.6389 18.0038C21.4629 18.4572 20.3649 18.66 19.7907 18.7147L18.7984 17.384C19.3037 17.2222 19.7585 17.0468 20.1582 16.8736C21.642 16.2265 22.4368 15.543 22.4368 15.543C22.6803 15.3265 22.7009 14.9551 22.4827 14.7136C22.2645 14.4721 21.8901 14.4516 21.6466 14.668C21.6466 14.668 21.031 15.2263 19.6804 15.8164C19.1843 16.0329 18.5825 16.247 17.898 16.4362C17.7395 16.4179 17.581 16.4635 17.457 16.5638C16.3613 16.8281 15.059 17.0012 13.5246 17.0012C11.9788 17.0012 10.6741 16.8121 9.57384 16.5455C9.44981 16.4635 9.29821 16.4293 9.1512 16.4544C8.46441 16.2653 7.86721 16.0329 7.36877 15.8164C6.01816 15.2263 5.40258 14.668 5.40258 14.668C5.26935 14.545 5.0856 14.4926 4.90643 14.5222C4.67904 14.5564 4.49069 14.7181 4.42867 14.9392C4.36435 15.1579 4.43786 15.3949 4.61242 15.543C4.61242 15.543 5.40717 16.2265 6.891 16.8736C7.29067 17.0468 7.74547 17.2222 8.2508 17.384L7.25851 18.7147C6.68428 18.66 5.58633 18.4572 4.41029 18.0038C3.11711 17.5048 1.86297 16.7073 1.19456 15.6341C1.22212 12.9751 1.80095 10.0745 2.5176 7.72307C2.88512 6.51773 3.271 5.46733 3.63852 4.66073C4.00603 3.85413 4.4057 3.27083 4.52055 3.16602C6.29609 1.77384 8.90313 1.42522 9.57384 1.3432ZM9.70247 8.25169C8.20256 8.25169 7.05638 9.60286 7.05638 11.1682C7.05638 12.7336 8.20256 14.0847 9.70247 14.0847C11.2024 14.0847 12.3486 12.7336 12.3486 11.1682C12.3486 9.60286 11.2024 8.25169 9.70247 8.25169ZM17.3467 8.25169C15.8468 8.25169 14.7006 9.60286 14.7006 11.1682C14.7006 12.7336 15.8468 14.0847 17.3467 14.0847C18.8466 14.0847 19.9928 12.7336 19.9928 11.1682C19.9928 9.60286 18.8466 8.25169 17.3467 8.25169ZM9.70247 9.41829C10.4765 9.41829 11.1725 10.1565 11.1725 11.1682C11.1725 12.1799 10.4765 12.9181 9.70247 12.9181C8.9284 12.9181 8.23242 12.1799 8.23242 11.1682C8.23242 10.1565 8.9284 9.41829 9.70247 9.41829ZM17.3467 9.41829C18.1208 9.41829 18.8168 10.1565 18.8168 11.1682C18.8168 12.1799 18.1208 12.9181 17.3467 12.9181C16.5727 12.9181 15.8767 12.1799 15.8767 11.1682C15.8767 10.1565 16.5727 9.41829 17.3467 9.41829Z" fill="white"/>
</svg>
