<svg width="35" height="35" viewBox="0 0 35 35" fill="none" xmlns="http://www.w3.org/2000/svg">
<path d="M18.9557 2.99023V7.40898C23.8995 8.12357 27.7057 12.3527 27.7057 17.5007C27.7057 18.8132 27.4432 20.0527 26.9766 21.2048L30.7974 23.4361C31.6141 21.6277 32.0807 19.6152 32.0807 17.5007C32.0807 9.94648 26.3203 3.7194 18.9557 2.99023ZM17.4974 27.709C14.79 27.709 12.1934 26.6335 10.279 24.719C8.36458 22.8046 7.28906 20.2081 7.28906 17.5007C7.28906 12.3527 11.0953 8.12357 16.0391 7.40898V2.99023C8.6599 3.7194 2.91406 9.9319 2.91406 17.5007C2.91406 21.3684 4.45052 25.0777 7.18542 27.8126C8.53961 29.1668 10.1473 30.241 11.9166 30.9739C13.6859 31.7068 15.5823 32.084 17.4974 32.084C22.3099 32.084 26.5828 29.7361 29.237 26.1194L25.4453 23.8881C24.4983 25.0875 23.2902 26.055 21.9129 26.7171C20.5357 27.3792 19.0255 27.7184 17.4974 27.709Z" fill="url(#paint0_linear_3149_13800)"/>
<defs>
<linearGradient id="paint0_linear_3149_13800" x1="17.4974" y1="2.99023" x2="17.4974" y2="32.084" gradientUnits="userSpaceOnUse">
<stop stop-color="#FF0420"/>
<stop offset="1" stop-color="#BD2738"/>
</linearGradient>
</defs>
</svg>
