<svg width="21" height="20" viewBox="0 0 21 20" fill="none" xmlns="http://www.w3.org/2000/svg">
<path d="M18.5581 11.75C18.5581 11.5511 18.481 11.3603 18.3436 11.2197C18.2062 11.079 18.0199 11 17.8256 11H14.8953C14.7011 11 14.5147 11.079 14.3774 11.2197C14.24 11.3603 14.1628 11.5511 14.1628 11.75V18.5H12.6977V2.25C12.6977 1.522 12.6957 1.05 12.6508 0.704C12.6078 0.379 12.5385 0.277 12.4828 0.22C12.4271 0.163 12.3275 0.0920001 12.01 0.0480001C11.6711 0.0020001 11.2111 0 10.5 0C9.78893 0 9.32791 0.0020001 8.98995 0.0480001C8.67251 0.0920001 8.57288 0.163 8.51721 0.22C8.46154 0.277 8.39219 0.379 8.34921 0.704C8.30428 1.051 8.30233 1.522 8.30233 2.25V18.5H6.83721V6.75C6.83721 6.55109 6.76003 6.36032 6.62265 6.21967C6.48527 6.07902 6.29894 6 6.10465 6H3.17442C2.98013 6 2.7938 6.07902 2.65642 6.21967C2.51904 6.36032 2.44186 6.55109 2.44186 6.75V18.5H0.732558C0.538272 18.5 0.351943 18.579 0.214561 18.7197C0.07718 18.8603 0 19.0511 0 19.25C0 19.4489 0.07718 19.6397 0.214561 19.7803C0.351943 19.921 0.538272 20 0.732558 20H20.2674C20.4617 20 20.6481 19.921 20.7854 19.7803C20.9228 19.6397 21 19.4489 21 19.25C21 19.0511 20.9228 18.8603 20.7854 18.7197C20.6481 18.579 20.4617 18.5 20.2674 18.5H18.5581V11.75Z" fill="url(#paint0_linear_2801_8732)"/>
<defs>
<linearGradient id="paint0_linear_2801_8732" x1="10.5" y1="0" x2="10.5" y2="20" gradientUnits="userSpaceOnUse">
<stop stop-color="#FF0420"/>
<stop offset="1" stop-color="#BD2738"/>
</linearGradient>
</defs>
</svg>
