<svg width="42" height="42" viewBox="0 0 42 42" fill="none" xmlns="http://www.w3.org/2000/svg">
<g clip-path="url(#clip0_6057_8597)">
<path d="M3.93848 9.84375C3.62402 9.10547 3.18652 8.45605 2.62598 7.89551C2.06543 7.33496 1.40918 6.89062 0.657227 6.5625C1.39551 6.24805 2.04492 5.81055 2.60547 5.25C3.16602 4.68945 3.61035 4.0332 3.93848 3.28125C4.25293 4.01953 4.69043 4.66895 5.25098 5.22949C5.81152 5.79004 6.46777 6.23438 7.21973 6.5625C6.48145 6.87695 5.83203 7.31445 5.27148 7.875C4.71094 8.43555 4.2666 9.0918 3.93848 9.84375ZM38.0635 11.1562C38.3779 11.8945 38.8154 12.5439 39.376 13.1045C39.9365 13.665 40.5928 14.1094 41.3447 14.4375C40.6064 14.752 39.957 15.1895 39.3965 15.75C38.8359 16.3105 38.3916 16.9668 38.0635 17.7188C37.749 16.9805 37.3115 16.3311 36.751 15.7705C36.1904 15.21 35.5342 14.7656 34.7822 14.4375C35.5205 14.123 36.1699 13.6855 36.7305 13.125C37.291 12.5645 37.7354 11.9082 38.0635 11.1562ZM30.1885 13.125C29.5459 11.6348 28.6641 10.3291 27.543 9.20801C26.4219 8.08691 25.1162 7.20508 23.626 6.5625C25.1162 5.91992 26.4219 5.03809 27.543 3.91699C28.6641 2.7959 29.5459 1.49023 30.1885 0C30.8311 1.49023 31.7129 2.7959 32.834 3.91699C33.9551 5.03809 35.2607 5.91992 36.751 6.5625C35.2607 7.20508 33.9551 8.08691 32.834 9.20801C31.7129 10.3291 30.8311 11.6348 30.1885 13.125ZM30.1885 3.97852C29.4229 4.94922 28.5615 5.81055 27.6045 6.5625C28.5615 7.32812 29.4229 8.18945 30.1885 9.14648C30.9404 8.18945 31.8018 7.32812 32.7725 6.5625C31.8018 5.81055 30.9404 4.94922 30.1885 3.97852ZM15.3203 16.0986C14.6777 16.0986 14.0762 15.9688 13.5156 15.709C12.9551 15.4492 12.4561 15.0869 12.0186 14.6221C11.5811 14.1572 11.2529 13.6377 11.0342 13.0635C10.8154 12.4893 10.6924 11.8809 10.665 11.2383C10.665 10.4316 10.8291 9.67969 11.1572 8.98242C11.4854 8.28516 11.9365 7.66992 12.5107 7.13672C13.085 6.60352 13.7275 6.18652 14.4385 5.88574C15.1494 5.58496 15.915 5.42773 16.7354 5.41406C17.8838 5.41406 18.9023 5.65332 19.791 6.13184C20.6797 6.61035 21.4385 7.25293 22.0674 8.05957C22.6963 8.86621 23.1611 9.76855 23.4619 10.7666C23.7627 11.7646 23.9268 12.7969 23.9541 13.8633C23.9541 15.2988 23.7217 16.6387 23.2568 17.8828C22.792 19.127 22.1562 20.2686 21.3496 21.3076C20.543 22.3467 19.5791 23.249 18.458 24.0146C17.3369 24.7803 16.1475 25.4434 14.8896 26.0039C14.7666 26.0586 14.6094 26.0859 14.418 26.0859C14.1035 26.0859 13.8369 25.9766 13.6182 25.7578C13.3994 25.5391 13.29 25.2656 13.29 24.9375C13.29 24.4453 13.5225 24.0898 13.9873 23.8711C15.0264 23.3789 15.9834 22.8525 16.8584 22.292C17.7334 21.7314 18.5059 21.082 19.1758 20.3438C19.8457 19.6055 20.3857 18.7715 20.7959 17.8418C21.2061 16.9121 21.4795 15.832 21.6162 14.6016C21.6299 14.4648 21.6367 14.335 21.6367 14.2119C21.6367 14.0889 21.6436 13.9521 21.6572 13.8018C21.6572 13.0908 21.5547 12.373 21.3496 11.6484C21.1445 10.9238 20.8369 10.2676 20.4268 9.67969C20.0166 9.0918 19.5039 8.62012 18.8887 8.26465C18.2734 7.90918 17.5557 7.72461 16.7354 7.71094C16.2705 7.71094 15.8125 7.7998 15.3613 7.97754C14.9102 8.15527 14.5068 8.4082 14.1514 8.73633C13.7959 9.06445 13.5088 9.43359 13.29 9.84375C13.0713 10.2539 12.9619 10.7188 12.9619 11.2383C12.9619 11.5527 13.0234 11.8604 13.1465 12.1611C13.2695 12.4619 13.4336 12.7354 13.6387 12.9814C13.8438 13.2275 14.0967 13.4258 14.3975 13.5762C14.6982 13.7266 15.0127 13.8018 15.3408 13.8018C15.6689 13.8018 15.9287 13.7539 16.1201 13.6582C16.3115 13.5625 16.4688 13.4258 16.5918 13.248C16.7148 13.0703 16.8105 12.8994 16.8789 12.7354C16.9473 12.5713 17.0293 12.4004 17.125 12.2227C17.2207 12.0449 17.3369 11.915 17.4736 11.833C17.6104 11.751 17.8086 11.6963 18.0684 11.6689C18.3828 11.6689 18.6562 11.7852 18.8887 12.0176C19.1211 12.25 19.2373 12.5234 19.2373 12.8379C19.2373 12.9062 19.2236 12.9951 19.1963 13.1045C19.0869 13.542 18.9092 13.9453 18.6631 14.3145C18.417 14.6836 18.1162 14.998 17.7607 15.2578C17.4053 15.5176 17.0293 15.7227 16.6328 15.873C16.2363 16.0234 15.7988 16.0986 15.3203 16.0986ZM33.3672 18.375L38.9863 24.0146L37.1406 25.8604L34.126 22.8662V42H5.25098V22.8662L2.23633 25.8604L0.390625 24.0146L6.00977 18.375H17.3916C16.9131 18.9355 16.3867 19.4277 15.8125 19.8516C15.2383 20.2754 14.6162 20.6582 13.9463 21H7.87598V39.375H31.501V21H24.7129C24.9453 20.5762 25.1572 20.1455 25.3486 19.708C25.54 19.2705 25.7109 18.8262 25.8613 18.375H33.3672Z" fill="url(#paint0_linear_6057_8597)"/>
</g>
<defs>
<linearGradient id="paint0_linear_6057_8597" x1="0.390625" y1="26.122" x2="52.8406" y2="26.122" gradientUnits="userSpaceOnUse">
<stop stop-color="#BC2738"/>
<stop offset="1" stop-color="#6E1620"/>
</linearGradient>
<clipPath id="clip0_6057_8597">
<rect width="42" height="42" fill="white"/>
</clipPath>
</defs>
</svg>
