<svg width="35" height="35" viewBox="0 0 35 35" fill="none" xmlns="http://www.w3.org/2000/svg">
<path d="M17.5 30.625C19.2236 30.625 20.9303 30.2855 22.5227 29.6259C24.1151 28.9663 25.562 27.9995 26.7808 26.7808C27.9995 25.562 28.9663 24.1151 29.6259 22.5227C30.2855 20.9303 30.625 19.2236 30.625 17.5C30.625 15.7764 30.2855 14.0697 29.6259 12.4773C28.9663 10.8849 27.9995 9.43799 26.7808 8.21922C25.562 7.00045 24.1151 6.03367 22.5227 5.37408C20.9303 4.71449 19.2236 4.375 17.5 4.375C14.019 4.375 10.6806 5.75781 8.21922 8.21922C5.75781 10.6806 4.375 14.019 4.375 17.5C4.375 20.981 5.75781 24.3194 8.21922 26.7808C10.6806 29.2422 14.019 30.625 17.5 30.625ZM17.5 6.5625C18.3181 6.5625 19.4141 7.34125 20.3722 9.44562C20.5778 9.90062 20.7681 10.3994 20.9409 10.9375H14.0591C14.2191 10.4295 14.409 9.9313 14.6278 9.44562C15.5859 7.34125 16.6841 6.5625 17.5 6.5625ZM12.6372 8.54C12.3091 9.26625 12.0181 10.0712 11.7775 10.9375H8.75C9.90395 9.40061 11.4413 8.19369 13.2081 7.4375C12.9988 7.79483 12.8082 8.16283 12.6372 8.54ZM11.2941 13.125C11.0538 14.5709 10.9346 16.0343 10.9375 17.5C10.9375 19.0291 11.0622 20.5034 11.2941 21.875H7.4725C6.87029 20.4952 6.56045 19.0055 6.5625 17.5C6.5625 15.9447 6.88625 14.4637 7.4725 13.125H11.2941ZM11.7775 24.0625C12.0181 24.9287 12.3069 25.7337 12.6372 26.46C12.81 26.8406 13.0003 27.2103 13.2059 27.5625C11.4399 26.806 9.90334 25.5991 8.75 24.0625H11.7775ZM14.0591 24.0625H20.9409C20.7808 24.5705 20.5909 25.0687 20.3722 25.5544C19.4141 27.6588 18.3159 28.4375 17.5 28.4375C16.6819 28.4375 15.5859 27.6588 14.6278 25.5544C14.4091 25.0687 14.2192 24.5705 14.0591 24.0625ZM21.4834 21.875H13.5187C13.2536 20.4318 13.1218 18.9673 13.125 17.5C13.125 15.9381 13.265 14.4594 13.5166 13.125H21.4812C21.7328 14.4594 21.8728 15.9381 21.8728 17.5C21.8728 19.0619 21.7328 20.5406 21.4812 21.875H21.4834ZM23.2225 24.0625H26.25C25.096 25.5993 23.5587 26.8062 21.7919 27.5625C21.9997 27.2103 22.19 26.8406 22.3606 26.46C22.6931 25.7337 22.9819 24.9287 23.2225 24.0625ZM27.5275 21.875H23.7059C23.9462 20.4291 24.0655 18.9657 24.0625 17.5C24.0625 15.9709 23.9378 14.4987 23.7059 13.125H27.5275C28.1137 14.4637 28.4375 15.9447 28.4375 17.5C28.4375 19.0553 28.1137 20.5362 27.5275 21.875ZM21.7919 7.4375C23.5587 8.19378 25.096 9.40068 26.25 10.9375H23.2225C22.9983 10.1173 22.7109 9.31577 22.3628 8.54C22.1925 8.16289 22.0026 7.79489 21.7941 7.4375H21.7919Z" fill="url(#paint0_linear_2919_27847)"/>
<defs>
<linearGradient id="paint0_linear_2919_27847" x1="17.5" y1="4.375" x2="17.5" y2="30.625" gradientUnits="userSpaceOnUse">
<stop stop-color="#FF0420"/>
<stop offset="1" stop-color="#BD2738"/>
</linearGradient>
</defs>
</svg>
