<svg width="227" height="227" viewBox="0 0 227 227" fill="none" xmlns="http://www.w3.org/2000/svg">
<g filter="url(#filter0_b_5517_24285)">
<circle cx="113.5" cy="113.5" r="56.5" fill="#171A1F" fill-opacity="0.5"/>
</g>
<path d="M97.6698 109.194C95.0082 108.59 92.6308 107.1 90.9277 104.968C89.2246 102.835 88.2969 100.187 88.2969 97.4582V94.5936C88.2969 92.3798 90.0935 90.5832 92.3073 90.5832H97.7248C98.2656 89.2403 99.581 88.2915 101.116 88.2915H125.894C127.429 88.2915 128.745 89.2403 129.286 90.5832H134.99C137.203 90.5832 139 92.3798 139 94.5936V97.4582C139 100.239 138.037 102.934 136.274 105.085C134.511 107.237 132.058 108.711 129.331 109.258C128.854 112.116 127.613 114.791 125.74 117.001C123.866 119.211 121.43 120.873 118.689 121.812L119.218 128.694C119.243 128.718 119.269 128.742 119.296 128.765C119.477 128.914 119.991 129.23 121.212 129.411C123.132 129.695 124.964 131.267 124.964 133.552V135.271H130.12C130.576 135.271 131.013 135.452 131.335 135.774C131.657 136.096 131.839 136.534 131.839 136.989C131.839 137.445 131.657 137.882 131.335 138.205C131.013 138.527 130.576 138.708 130.12 138.708H96.8906C96.4348 138.708 95.9976 138.527 95.6753 138.205C95.353 137.882 95.1719 137.445 95.1719 136.989C95.1719 136.534 95.353 136.096 95.6753 135.774C95.9976 135.452 96.4348 135.271 96.8906 135.271H102.047V133.552C102.047 131.269 103.88 129.695 105.798 129.411C107.02 129.228 107.533 128.914 107.714 128.765C107.741 128.742 107.767 128.718 107.792 128.694L108.321 121.812C105.57 120.869 103.126 119.197 101.25 116.975C99.3745 114.752 98.137 112.062 97.6698 109.192V109.194ZM100.901 91.9444V106.625C100.901 109.968 102.229 113.174 104.593 115.537C106.956 117.901 110.162 119.229 113.505 119.229C116.848 119.229 120.054 117.901 122.418 115.537C124.781 113.174 126.109 109.968 126.109 106.625V91.9444C126.109 91.8873 126.087 91.8325 126.046 91.7921C126.006 91.7517 125.951 91.729 125.894 91.729H101.116C101.059 91.729 101.005 91.7517 100.964 91.7921C100.924 91.8325 100.901 91.8873 100.901 91.9444ZM111.711 122.568L111.218 128.969L111.216 129.017L111.209 129.115C111.199 129.228 111.182 129.341 111.159 129.452C111.044 129.995 110.714 130.752 109.891 131.423C109.094 132.078 107.936 132.569 106.303 132.809C106.065 132.842 105.844 132.951 105.675 133.121C105.616 133.177 105.569 133.243 105.536 133.317C105.503 133.391 105.486 133.471 105.484 133.552V135.271H121.526V133.552C121.525 133.471 121.507 133.391 121.475 133.317C121.442 133.243 121.395 133.177 121.336 133.121C121.166 132.951 120.946 132.842 120.708 132.809C119.074 132.569 117.917 132.076 117.117 131.425C116.296 130.752 115.966 129.995 115.852 129.454C115.821 129.311 115.802 129.165 115.795 129.019L115.792 128.969L115.3 122.568C114.107 122.701 112.903 122.701 111.711 122.568ZM129.547 105.658C131.291 105.109 132.815 104.018 133.897 102.543C134.979 101.068 135.562 99.2871 135.562 97.4582V94.5936C135.562 94.4416 135.502 94.2959 135.395 94.1885C135.287 94.081 135.142 94.0207 134.99 94.0207H129.547V105.658ZM97.4635 94.0207H92.3073C92.1553 94.0207 92.0096 94.081 91.9022 94.1885C91.7947 94.2959 91.7344 94.4416 91.7344 94.5936V97.4582C91.7344 99.2357 92.2852 100.97 93.3112 102.421C94.3372 103.873 95.7879 104.971 97.4635 105.564V94.0207Z" fill="url(#paint0_linear_5517_24285)"/>
<circle cx="113.5" cy="113.5" r="71.5" stroke="url(#paint1_linear_5517_24285)" stroke-width="2" stroke-dasharray="1 5"/>
<circle opacity="0.5" cx="113.5" cy="113.5" r="93.5" stroke="url(#paint2_linear_5517_24285)" stroke-width="2" stroke-dasharray="1 10"/>
<circle opacity="0.5" cx="113.5" cy="113.5" r="112.5" stroke="url(#paint3_linear_5517_24285)" stroke-width="2" stroke-dasharray="1 15"/>
<defs>
<filter id="filter0_b_5517_24285" x="47" y="47" width="133" height="133" filterUnits="userSpaceOnUse" color-interpolation-filters="sRGB">
<feFlood flood-opacity="0" result="BackgroundImageFix"/>
<feGaussianBlur in="BackgroundImageFix" stdDeviation="5"/>
<feComposite in2="SourceAlpha" operator="in" result="effect1_backgroundBlur_5517_24285"/>
<feBlend mode="normal" in="SourceGraphic" in2="effect1_backgroundBlur_5517_24285" result="shape"/>
</filter>
<linearGradient id="paint0_linear_5517_24285" x1="88.2969" y1="119.648" x2="153.232" y2="119.648" gradientUnits="userSpaceOnUse">
<stop stop-color="#BC2738"/>
<stop offset="1" stop-color="#6E1620"/>
</linearGradient>
<linearGradient id="paint1_linear_5517_24285" x1="41" y1="131.183" x2="226.702" y2="131.183" gradientUnits="userSpaceOnUse">
<stop stop-color="#BC2738"/>
<stop offset="1" stop-color="#6E1620"/>
</linearGradient>
<linearGradient id="paint2_linear_5517_24285" x1="19" y1="136.549" x2="261.053" y2="136.549" gradientUnits="userSpaceOnUse">
<stop stop-color="#BC2738"/>
<stop offset="1" stop-color="#6E1620"/>
</linearGradient>
<linearGradient id="paint3_linear_5517_24285" x1="-1.20958e-07" y1="141.183" x2="290.719" y2="141.183" gradientUnits="userSpaceOnUse">
<stop stop-color="#BC2738"/>
<stop offset="1" stop-color="#6E1620"/>
</linearGradient>
</defs>
</svg>
