<svg width="228" height="227" viewBox="0 0 228 227" fill="none" xmlns="http://www.w3.org/2000/svg">
<circle cx="114" cy="113.5" r="56.5" fill="#171A1F"/>
<path d="M92.7493 135.458H95.4577V143.583H100.874V135.458H103.583C104.301 135.458 104.99 135.172 105.498 134.664C106.006 134.157 106.291 133.468 106.291 132.749V100.249C106.291 99.5311 106.006 98.8422 105.498 98.3343C104.99 97.8264 104.301 97.541 103.583 97.541H100.874V89.416H95.4577V97.541H92.7493C92.0311 97.541 91.3422 97.8264 90.8343 98.3343C90.3264 98.8422 90.041 99.5311 90.041 100.249V132.749C90.041 133.468 90.3264 134.157 90.8343 134.664C91.3422 135.172 92.0311 135.458 92.7493 135.458ZM95.4577 102.958H100.874V130.041H95.4577V102.958ZM114.416 130.041H117.124V138.166H122.541V130.041H125.249C125.968 130.041 126.657 129.756 127.164 129.248C127.672 128.74 127.958 128.051 127.958 127.333V105.666C127.958 104.948 127.672 104.259 127.164 103.751C126.657 103.243 125.968 102.958 125.249 102.958H122.541V94.8327H117.124V102.958H114.416C113.698 102.958 113.009 103.243 112.501 103.751C111.993 104.259 111.708 104.948 111.708 105.666V127.333C111.708 128.051 111.993 128.74 112.501 129.248C113.009 129.756 113.698 130.041 114.416 130.041ZM117.124 108.374H122.541V124.624H117.124V108.374Z" fill="url(#paint0_linear_10451_67139)"/>
<circle cx="133.5" cy="95" r="17" fill="#171A1F"/>
<circle cx="133.5" cy="95" r="12" fill="url(#paint1_linear_10451_67139)"/>
<g clip-path="url(#clip0_10451_67139)">
<path d="M132.536 90.6546C132.948 89.8834 134.053 89.8834 134.465 90.6546L138.266 97.7659C138.355 97.9325 138.399 98.1194 138.395 98.3082C138.39 98.4971 138.337 98.6816 138.24 98.8437C138.142 99.0058 138.005 99.1399 137.841 99.2331C137.676 99.3262 137.49 99.3752 137.302 99.3752H129.699C129.51 99.3752 129.324 99.3262 129.16 99.2331C128.996 99.1399 128.858 99.0058 128.761 98.8437C128.664 98.6816 128.61 98.4971 128.606 98.3082C128.601 98.1194 128.646 97.9325 128.735 97.7659L132.536 90.6546ZM133.638 91.0965C133.624 91.0717 133.605 91.051 133.58 91.0365C133.556 91.0221 133.528 91.0144 133.5 91.0144C133.472 91.0144 133.444 91.0221 133.42 91.0365C133.396 91.051 133.376 91.0717 133.363 91.0965L129.562 98.2077C129.549 98.2315 129.542 98.2582 129.543 98.2852C129.544 98.3122 129.551 98.3385 129.565 98.3617C129.579 98.3848 129.599 98.404 129.622 98.4173C129.646 98.4307 129.672 98.4377 129.699 98.4377H137.302C137.328 98.4377 137.355 98.4307 137.378 98.4173C137.402 98.404 137.422 98.3848 137.435 98.3617C137.449 98.3385 137.457 98.3122 137.457 98.2852C137.458 98.2582 137.452 98.2315 137.439 98.2077L133.638 91.0965ZM133.969 93.594V95.1565C133.969 95.2808 133.92 95.4 133.832 95.4879C133.744 95.5758 133.625 95.6252 133.5 95.6252C133.376 95.6252 133.257 95.5758 133.169 95.4879C133.081 95.4 133.032 95.2808 133.032 95.1565V93.594C133.032 93.4697 133.081 93.3504 133.169 93.2625C133.257 93.1746 133.376 93.1252 133.5 93.1252C133.625 93.1252 133.744 93.1746 133.832 93.2625C133.92 93.3504 133.969 93.4697 133.969 93.594ZM134.125 96.8752C134.125 97.041 134.059 97.2 133.942 97.3172C133.825 97.4344 133.666 97.5002 133.5 97.5002C133.335 97.5002 133.176 97.4344 133.058 97.3172C132.941 97.2 132.875 97.041 132.875 96.8752C132.875 96.7095 132.941 96.5505 133.058 96.4333C133.176 96.3161 133.335 96.2502 133.5 96.2502C133.666 96.2502 133.825 96.3161 133.942 96.4333C134.059 96.5505 134.125 96.7095 134.125 96.8752Z" fill="white"/>
</g>
<circle cx="114" cy="113.5" r="71.5" stroke="url(#paint2_linear_10451_67139)" stroke-width="2" stroke-dasharray="1 5"/>
<circle opacity="0.5" cx="114" cy="113.5" r="93.5" stroke="url(#paint3_linear_10451_67139)" stroke-width="2" stroke-dasharray="1 10"/>
<circle opacity="0.5" cx="114" cy="113.5" r="112.5" stroke="url(#paint4_linear_10451_67139)" stroke-width="2" stroke-dasharray="1 15"/>
<defs>
<linearGradient id="paint0_linear_10451_67139" x1="90.041" y1="123.105" x2="138.601" y2="123.105" gradientUnits="userSpaceOnUse">
<stop stop-color="#BC2738"/>
<stop offset="1" stop-color="#6E1620"/>
</linearGradient>
<linearGradient id="paint1_linear_10451_67139" x1="121.5" y1="97.9268" x2="152.237" y2="97.9268" gradientUnits="userSpaceOnUse">
<stop stop-color="#BC2738"/>
<stop offset="1" stop-color="#6E1620"/>
</linearGradient>
<linearGradient id="paint2_linear_10451_67139" x1="41.5" y1="131.183" x2="227.202" y2="131.183" gradientUnits="userSpaceOnUse">
<stop stop-color="#BC2738"/>
<stop offset="1" stop-color="#6E1620"/>
</linearGradient>
<linearGradient id="paint3_linear_10451_67139" x1="19.5" y1="136.549" x2="261.553" y2="136.549" gradientUnits="userSpaceOnUse">
<stop stop-color="#BC2738"/>
<stop offset="1" stop-color="#6E1620"/>
</linearGradient>
<linearGradient id="paint4_linear_10451_67139" x1="0.5" y1="141.183" x2="291.219" y2="141.183" gradientUnits="userSpaceOnUse">
<stop stop-color="#BC2738"/>
<stop offset="1" stop-color="#6E1620"/>
</linearGradient>
<clipPath id="clip0_10451_67139">
<rect width="10" height="10" fill="white" transform="translate(128.5 90)"/>
</clipPath>
</defs>
</svg>
