<svg width="54" height="54" viewBox="0 0 54 54" fill="none" xmlns="http://www.w3.org/2000/svg">
<path d="M27 52.0714C34.4558 52.0714 40.5 46.0273 40.5 38.5714C40.5 31.1156 34.4558 25.0714 27 25.0714C19.5442 25.0714 13.5 31.1156 13.5 38.5714C13.5 46.0273 19.5442 52.0714 27 52.0714Z" stroke="url(#paint0_linear_9004_65844)" stroke-width="3" stroke-linecap="round" stroke-linejoin="round"/>
<path d="M26.9967 44.3571C30.192 44.3571 32.7824 41.7667 32.7824 38.5714C32.7824 35.376 30.192 32.7856 26.9967 32.7856C23.8013 32.7856 21.2109 35.376 21.2109 38.5714C21.2109 41.7667 23.8013 44.3571 26.9967 44.3571Z" stroke="url(#paint1_linear_9004_65844)" stroke-width="3" stroke-linecap="round" stroke-linejoin="round"/>
<path d="M13.858 35.0759L1.18247 15.3466C0.820843 14.7838 0.611804 14.1367 0.575879 13.4687C0.539954 12.8007 0.678378 12.1348 0.977559 11.5365L4.71417 4.06328C5.03433 3.42178 5.52696 2.88221 6.13675 2.50514C6.74654 2.12806 7.44935 1.92841 8.16631 1.92859H45.8265C46.5428 1.92864 47.2449 2.12814 47.8542 2.50475C48.4635 2.88135 48.9559 3.42018 49.2762 4.06087L53.0128 11.5341C53.312 12.1324 53.4504 12.7983 53.4145 13.4663C53.3786 14.1343 53.1695 14.7814 52.8079 15.3442L40.1348 35.0759M40.858 13.5H0.599077M47.8177 2.48305L32.9027 26.2768M13.0806 13.5L21.0901 26.2768" stroke="url(#paint2_linear_9004_65844)" stroke-width="3" stroke-linecap="round" stroke-linejoin="round"/>
<defs>
<linearGradient id="paint0_linear_9004_65844" x1="13.5" y1="41.8641" x2="48.0789" y2="41.8641" gradientUnits="userSpaceOnUse">
<stop stop-color="#BC2738"/>
<stop offset="1" stop-color="#6E1620"/>
</linearGradient>
<linearGradient id="paint1_linear_9004_65844" x1="21.2109" y1="39.9825" x2="36.0305" y2="39.9825" gradientUnits="userSpaceOnUse">
<stop stop-color="#BC2738"/>
<stop offset="1" stop-color="#6E1620"/>
</linearGradient>
<linearGradient id="paint2_linear_9004_65844" x1="0.570312" y1="22.5446" x2="68.2551" y2="22.5446" gradientUnits="userSpaceOnUse">
<stop stop-color="#BC2738"/>
<stop offset="1" stop-color="#6E1620"/>
</linearGradient>
</defs>
</svg>
