<svg width="34" height="34" viewBox="0 0 34 34" fill="none" xmlns="http://www.w3.org/2000/svg">
<circle cx="17" cy="17" r="17" fill="#171A1F"/>
<circle cx="17" cy="17" r="12" fill="url(#paint0_linear_10401_105198)"/>
<g clip-path="url(#clip0_10401_105198)">
<path d="M16.0359 12.6546C16.4478 11.8834 17.5528 11.8834 17.9646 12.6546L21.7659 19.7659C21.855 19.9325 21.8993 20.1194 21.8947 20.3082C21.8901 20.4971 21.8366 20.6816 21.7395 20.8437C21.6424 21.0058 21.5049 21.1399 21.3406 21.2331C21.1762 21.3262 20.9905 21.3752 20.8015 21.3752H13.199C13.0101 21.3752 12.8244 21.3262 12.66 21.2331C12.4956 21.1399 12.3581 21.0058 12.261 20.8437C12.1639 20.6816 12.1104 20.4971 12.1058 20.3082C12.1012 20.1194 12.1456 19.9325 12.2346 19.7659L16.0359 12.6546ZM17.1378 13.0965C17.1244 13.0717 17.1045 13.051 17.0803 13.0365C17.0561 13.0221 17.0284 13.0144 17.0003 13.0144C16.9721 13.0144 16.9444 13.0221 16.9202 13.0365C16.896 13.051 16.8761 13.0717 16.8628 13.0965L13.0615 20.2077C13.0488 20.2315 13.0424 20.2582 13.0431 20.2852C13.0437 20.3122 13.0513 20.3385 13.0651 20.3617C13.079 20.3848 13.0986 20.404 13.1221 20.4173C13.1455 20.4307 13.172 20.4377 13.199 20.4377H20.8015C20.8285 20.4377 20.855 20.4307 20.8785 20.4173C20.9019 20.404 20.9215 20.3848 20.9354 20.3617C20.9492 20.3385 20.9568 20.3122 20.9575 20.2852C20.9581 20.2582 20.9517 20.2315 20.939 20.2077L17.1378 13.0965ZM17.469 15.594V17.1565C17.469 17.2808 17.4196 17.4 17.3317 17.4879C17.2438 17.5758 17.1246 17.6252 17.0003 17.6252C16.8759 17.6252 16.7567 17.5758 16.6688 17.4879C16.5809 17.4 16.5315 17.2808 16.5315 17.1565V15.594C16.5315 15.4697 16.5809 15.3504 16.6688 15.2625C16.7567 15.1746 16.8759 15.1252 17.0003 15.1252C17.1246 15.1252 17.2438 15.1746 17.3317 15.2625C17.4196 15.3504 17.469 15.4697 17.469 15.594ZM17.6253 18.8752C17.6253 19.041 17.5594 19.2 17.4422 19.3172C17.325 19.4344 17.166 19.5002 17.0003 19.5002C16.8345 19.5002 16.6755 19.4344 16.5583 19.3172C16.4411 19.2 16.3753 19.041 16.3753 18.8752C16.3753 18.7095 16.4411 18.5505 16.5583 18.4333C16.6755 18.3161 16.8345 18.2502 17.0003 18.2502C17.166 18.2502 17.325 18.3161 17.4422 18.4333C17.5594 18.5505 17.6253 18.7095 17.6253 18.8752Z" fill="white"/>
</g>
<defs>
<linearGradient id="paint0_linear_10401_105198" x1="5" y1="19.9268" x2="35.7368" y2="19.9268" gradientUnits="userSpaceOnUse">
<stop stop-color="#BC2738"/>
<stop offset="1" stop-color="#6E1620"/>
</linearGradient>
<clipPath id="clip0_10401_105198">
<rect width="10" height="10" fill="white" transform="translate(12 12)"/>
</clipPath>
</defs>
</svg>
