<svg width="25" height="25" viewBox="0 0 25 25" fill="none" xmlns="http://www.w3.org/2000/svg">
<path d="M8.33317 6.25033C7.78064 6.25033 7.25073 6.46982 6.86003 6.86052C6.46933 7.25122 6.24984 7.78112 6.24984 8.33366V16.667C6.24984 17.2195 6.46933 17.7494 6.86003 18.1401C7.25073 18.5308 7.78064 18.7503 8.33317 18.7503H16.6665C17.219 18.7503 17.7489 18.5308 18.1396 18.1401C18.5303 17.7494 18.7498 17.2195 18.7498 16.667V14.5837C18.7498 14.3074 18.8596 14.0424 19.0549 13.8471C19.2503 13.6517 19.5152 13.542 19.7915 13.542C20.0678 13.542 20.3327 13.6517 20.5281 13.8471C20.7234 14.0424 20.8332 14.3074 20.8332 14.5837V16.667C20.8332 17.7721 20.3942 18.8319 19.6128 19.6133C18.8314 20.3947 17.7716 20.8337 16.6665 20.8337H8.33317C7.2281 20.8337 6.16829 20.3947 5.38689 19.6133C4.60549 18.8319 4.1665 17.7721 4.1665 16.667V8.33366C4.1665 7.22859 4.60549 6.16878 5.38689 5.38738C6.16829 4.60598 7.2281 4.16699 8.33317 4.16699H10.4165C10.6928 4.16699 10.9577 4.27674 11.1531 4.47209C11.3484 4.66744 11.4582 4.93239 11.4582 5.20866C11.4582 5.48493 11.3484 5.74988 11.1531 5.94523C10.9577 6.14058 10.6928 6.25033 10.4165 6.25033H8.33317ZM14.5832 6.25033C14.3069 6.25033 14.042 6.14058 13.8466 5.94523C13.6513 5.74988 13.5415 5.48493 13.5415 5.20866C13.5415 4.93239 13.6513 4.66744 13.8466 4.47209C14.042 4.27674 14.3069 4.16699 14.5832 4.16699H19.7915C20.0678 4.16699 20.3327 4.27674 20.5281 4.47209C20.7234 4.66744 20.8332 4.93239 20.8332 5.20866V10.417C20.8332 10.6933 20.7234 10.9582 20.5281 11.1536C20.3327 11.3489 20.0678 11.4587 19.7915 11.4587C19.5152 11.4587 19.2503 11.3489 19.0549 11.1536C18.8596 10.9582 18.7498 10.6933 18.7498 10.417V7.72324L15.3207 11.1545C15.2238 11.2513 15.1088 11.3282 14.9823 11.3806C14.8558 11.433 14.7201 11.46 14.5832 11.46C14.4462 11.46 14.3106 11.433 14.184 11.3806C14.0575 11.3282 13.9425 11.2513 13.8457 11.1545C13.7488 11.0576 13.672 10.9427 13.6196 10.8161C13.5672 10.6896 13.5402 10.554 13.5402 10.417C13.5402 10.28 13.5672 10.1444 13.6196 10.0179C13.672 9.89132 13.7488 9.77634 13.8457 9.67949L17.2769 6.25033H14.5832Z" fill="white" fill-opacity="0.7"/>
</svg>
