<svg width="27" height="27" viewBox="0 0 27 27" fill="none" xmlns="http://www.w3.org/2000/svg">
<path d="M7.52344 15.0469C8.44679 15.0469 9.19531 14.2984 9.19531 13.375C9.19531 12.4516 8.44679 11.7031 7.52344 11.7031C6.60009 11.7031 5.85156 12.4516 5.85156 13.375C5.85156 14.2984 6.60009 15.0469 7.52344 15.0469Z" fill="white"/>
<path d="M19.2266 15.0469C20.1499 15.0469 20.8984 14.2984 20.8984 13.375C20.8984 12.4516 20.1499 11.7031 19.2266 11.7031C18.3032 11.7031 17.5547 12.4516 17.5547 13.375C17.5547 14.2984 18.3032 15.0469 19.2266 15.0469Z" fill="white"/>
<path d="M13.375 15.0469C14.2984 15.0469 15.0469 14.2984 15.0469 13.375C15.0469 12.4516 14.2984 11.7031 13.375 11.7031C12.4516 11.7031 11.7031 12.4516 11.7031 13.375C11.7031 14.2984 12.4516 15.0469 13.375 15.0469Z" fill="white"/>
<path d="M13.375 25.0781C11.0603 25.0781 8.79767 24.3918 6.8731 23.1058C4.94853 21.8198 3.44851 19.9921 2.56273 17.8536C1.67695 15.7151 1.44518 13.362 1.89675 11.0918C2.34832 8.82166 3.46293 6.73636 5.09965 5.09965C6.73636 3.46293 8.82166 2.34832 11.0918 1.89675C13.362 1.44518 15.7151 1.67695 17.8536 2.56273C19.9921 3.44851 21.8198 4.94853 23.1058 6.8731C24.3918 8.79767 25.0781 11.0603 25.0781 13.375C25.0746 16.4778 23.8405 19.4525 21.6465 21.6465C19.4525 23.8405 16.4778 25.0746 13.375 25.0781ZM13.375 3.34376C11.391 3.34376 9.45157 3.93208 7.80194 5.03433C6.15231 6.13657 4.86658 7.70324 4.10734 9.53621C3.3481 11.3692 3.14945 13.3861 3.5365 15.332C3.92356 17.2779 4.87894 19.0653 6.28184 20.4682C7.68474 21.8711 9.47213 22.8265 11.418 23.2135C13.3639 23.6006 15.3808 23.4019 17.2138 22.6427C19.0468 21.8834 20.6134 20.5977 21.7157 18.9481C22.8179 17.2984 23.4063 15.359 23.4063 13.375C23.4032 10.7155 22.3453 8.16581 20.4648 6.28526C18.5842 4.40471 16.0345 3.34685 13.375 3.34376Z" fill="white"/>
</svg>
