<svg width="28" height="27" viewBox="0 0 28 27" fill="none" xmlns="http://www.w3.org/2000/svg">
<path d="M19.2743 7.6329L20.879 9.23762L15.4408 14.6758L11.7745 11.0095C11.6714 10.9062 11.5489 10.8242 11.4141 10.7683C11.2793 10.7124 11.1348 10.6836 10.9888 10.6836C10.8429 10.6836 10.6983 10.7124 10.5635 10.7683C10.4287 10.8242 10.3063 10.9062 10.2032 11.0095L3.51683 17.707C3.41366 17.8102 3.33182 17.9326 3.27598 18.0674C3.22014 18.2022 3.19141 18.3467 3.19141 18.4926C3.19141 18.6385 3.22014 18.783 3.27598 18.9178C3.33182 19.0526 3.41366 19.1751 3.51683 19.2783C3.62 19.3814 3.74249 19.4633 3.87729 19.5191C4.01209 19.575 4.15657 19.6037 4.30247 19.6037C4.44838 19.6037 4.59286 19.575 4.72766 19.5191C4.86246 19.4633 4.98495 19.3814 5.08812 19.2783L10.9832 13.372L14.6496 17.0383C15.0842 17.473 15.7863 17.473 16.2209 17.0383L22.4503 10.8201L24.055 12.4248C24.1329 12.5011 24.2315 12.553 24.3385 12.5738C24.4456 12.5947 24.5564 12.5837 24.6573 12.5421C24.7581 12.5006 24.8446 12.4304 24.9059 12.3402C24.9672 12.25 25.0007 12.1438 25.0022 12.0347V7.24287C25.0053 7.16982 24.9934 7.09692 24.9672 7.02867C24.9409 6.96042 24.901 6.89827 24.8498 6.84606C24.7987 6.79384 24.7373 6.75267 24.6696 6.72508C24.6019 6.6975 24.5293 6.68409 24.4562 6.68567H19.6755C19.5655 6.68503 19.4577 6.71696 19.3658 6.77744C19.274 6.83793 19.202 6.92426 19.1591 7.02556C19.1162 7.12685 19.1043 7.23858 19.1248 7.34667C19.1452 7.45475 19.1973 7.55434 19.2743 7.6329Z" fill="white"/>
</svg>
