<svg width="28" height="27" viewBox="0 0 28 27" fill="none" xmlns="http://www.w3.org/2000/svg">
<path d="M18.5801 2.22852C15.5044 2.22852 13.0081 4.72475 13.0081 7.80046C13.0081 10.8762 15.5044 13.3724 18.5801 13.3724C21.6558 13.3724 24.152 10.8762 24.152 7.80046C24.152 4.72475 21.6558 2.22852 18.5801 2.22852ZM18.5801 11.1436C16.7302 11.1436 15.2369 9.65034 15.2369 7.80046C15.2369 5.95057 16.7302 4.45729 18.5801 4.45729C20.43 4.45729 21.9233 5.95057 21.9233 7.80046C21.9233 9.65034 20.43 11.1436 18.5801 11.1436ZM21.9233 17.83H19.6945C19.6945 16.4927 18.8587 15.2892 17.6106 14.8211L10.7459 12.258H1.86426V24.5163H8.55059V22.9116L16.3513 25.0735L25.2664 22.2875V21.1731C25.2664 19.3232 23.7731 17.83 21.9233 17.83ZM6.32181 22.2875H4.09304V14.4868H6.32181V22.2875ZM16.3179 22.7444L8.55059 20.6159V14.4868H10.3448L16.8305 16.905C17.2094 17.0499 17.4657 17.4176 17.4657 17.83C17.4657 17.83 15.2369 17.7742 14.9026 17.6628L12.2504 16.7824L11.5483 18.8998L14.2005 19.7801C14.7689 19.9696 15.3595 20.0587 15.9613 20.0587H21.9233C22.3579 20.0587 22.7479 20.3262 22.9262 20.6939L16.3179 22.7444Z" fill="white"/>
</svg>
