<svg width="21" height="21" viewBox="0 0 21 21" fill="none" xmlns="http://www.w3.org/2000/svg">
<path d="M13.9545 13.6667C13.9545 12.6669 11.2479 11.8571 7.90909 11.8571M13.9545 13.6667C13.9545 14.6664 11.2479 15.4762 7.90909 15.4762C4.57027 15.4762 1.86364 14.6664 1.86364 13.6667M13.9545 13.6667V18.1335C13.9545 19.164 11.2479 20 7.90909 20C4.57027 20 1.86364 19.1649 1.86364 18.1335V13.6667M13.9545 13.6667C17.2571 13.6667 20 12.7737 20 11.8571V2.80952M7.90909 11.8571C4.57027 11.8571 1.86364 12.6669 1.86364 13.6667M7.90909 11.8571C4.09355 11.8571 1 10.9641 1 10.0476V5.52381M7.90909 3.71429C4.09355 3.71429 1 4.52405 1 5.52381M1 5.52381C1 6.52357 4.09355 7.33333 7.90909 7.33333C7.90909 8.24986 10.7185 9.14286 14.021 9.14286C17.3227 9.14286 20 8.24986 20 7.33333M20 2.80952C20 1.80976 17.3227 1 14.021 1C10.7185 1 8.04209 1.80976 8.04209 2.80952M20 2.80952C20 3.80929 17.3227 4.61905 14.021 4.61905C10.7194 4.61905 8.04209 3.80929 8.04209 2.80952M8.04209 2.80952V12.0073" stroke="url(#paint0_linear_2801_8761)" stroke-width="2"/>
<defs>
<linearGradient id="paint0_linear_2801_8761" x1="10.5" y1="1" x2="10.5" y2="20" gradientUnits="userSpaceOnUse">
<stop stop-color="#FF0420"/>
<stop offset="1" stop-color="#BD2738"/>
</linearGradient>
</defs>
</svg>
