<svg width="65" height="65" viewBox="0 0 65 65" fill="none" xmlns="http://www.w3.org/2000/svg">
<path d="M24.375 51.459V35.209C24.375 34.4907 24.0897 33.8018 23.5817 33.2939C23.0738 32.786 22.385 32.5007 21.6667 32.5007H10.8333C10.115 32.5007 9.42616 32.786 8.91825 33.2939C8.41034 33.8018 8.125 34.4907 8.125 35.209V51.459C8.125 52.1773 8.41034 52.8662 8.91825 53.3741C9.42616 53.882 10.115 54.1673 10.8333 54.1673M24.375 51.459C24.375 52.1773 24.0897 52.8662 23.5817 53.3741C23.0738 53.882 22.385 54.1673 21.6667 54.1673H10.8333M24.375 51.459C24.375 52.1773 24.6603 52.8662 25.1683 53.3741C25.6762 53.882 26.365 54.1673 27.0833 54.1673H37.9167C38.635 54.1673 39.3238 53.882 39.8317 53.3741C40.3397 52.8662 40.625 52.1773 40.625 51.459M24.375 51.459V24.3757C24.375 23.6574 24.6603 22.9685 25.1683 22.4606C25.6762 21.9527 26.365 21.6673 27.0833 21.6673H37.9167C38.635 21.6673 39.3238 21.9527 39.8317 22.4606C40.3397 22.9685 40.625 23.6574 40.625 24.3757V51.459M10.8333 54.1673H48.75M40.625 51.459C40.625 52.1773 40.9103 52.8662 41.4183 53.3741C41.9262 53.882 42.615 54.1673 43.3333 54.1673H54.1667C54.885 54.1673 55.5738 53.882 56.0817 53.3741C56.5897 52.8662 56.875 52.1773 56.875 51.459V13.5423C56.875 12.824 56.5897 12.1351 56.0817 11.6272C55.5738 11.1193 54.885 10.834 54.1667 10.834H43.3333C42.615 10.834 41.9262 11.1193 41.4183 11.6272C40.9103 12.1351 40.625 12.824 40.625 13.5423V51.459Z" stroke="url(#paint0_linear_2919_27742)" stroke-width="3" stroke-linecap="round" stroke-linejoin="round"/>
<defs>
<linearGradient id="paint0_linear_2919_27742" x1="32.5" y1="10.834" x2="32.5" y2="54.1673" gradientUnits="userSpaceOnUse">
<stop stop-color="#FF0420"/>
<stop offset="1" stop-color="#BD2738"/>
</linearGradient>
</defs>
</svg>
