<svg width="25" height="24" viewBox="0 0 25 24" fill="none" xmlns="http://www.w3.org/2000/svg">
<path d="M22.1489 20.6246C22.0831 20.7387 21.9884 20.8334 21.8743 20.8992C21.7603 20.965 21.6309 20.9997 21.4992 20.9996H3.49923C3.36764 20.9995 3.23841 20.9647 3.1245 20.8989C3.01059 20.833 2.91602 20.7383 2.85029 20.6243C2.78455 20.5103 2.74997 20.381 2.75 20.2494C2.75003 20.1178 2.78469 19.9886 2.85048 19.8746C4.27829 17.4062 6.47861 15.6362 9.04642 14.7971C7.77626 14.041 6.78943 12.8888 6.23747 11.5176C5.68551 10.1463 5.59894 8.63175 5.99105 7.20652C6.38316 5.78129 7.23228 4.52418 8.408 3.62824C9.58373 2.7323 11.021 2.24707 12.4992 2.24707C13.9774 2.24707 15.4147 2.7323 16.5905 3.62824C17.7662 4.52418 18.6153 5.78129 19.0074 7.20652C19.3995 8.63175 19.313 10.1463 18.761 11.5176C18.209 12.8888 17.2222 14.041 15.952 14.7971C18.5199 15.6362 20.7202 17.4062 22.148 19.8746C22.2139 19.9886 22.2488 20.1178 22.2489 20.2495C22.2491 20.3811 22.2146 20.5105 22.1489 20.6246Z" fill="url(#paint0_linear_2801_8772)"/>
<defs>
<linearGradient id="paint0_linear_2801_8772" x1="12.4995" y1="2.24707" x2="12.4995" y2="20.9996" gradientUnits="userSpaceOnUse">
<stop stop-color="#FF0420"/>
<stop offset="1" stop-color="#BD2738"/>
</linearGradient>
</defs>
</svg>
