<svg width="65" height="65" viewBox="0 0 65 65" fill="none" xmlns="http://www.w3.org/2000/svg">
<path fill-rule="evenodd" clip-rule="evenodd" d="M29.1062 8H36.1646C39.8381 8 42.7187 8 45.0196 8.21771C47.364 8.44229 49.2844 8.90521 50.9779 9.94104C52.7517 11.0278 54.243 12.5191 55.3298 14.2929C56.3656 15.9842 56.8285 17.9069 57.0531 20.2512C57.2708 22.5521 57.2708 25.4327 57.2708 29.1085V31.5537C57.2708 34.1685 57.2708 36.2196 57.1562 37.8765C57.0417 39.5608 56.8056 40.9633 56.2671 42.2604C55.6049 43.8592 54.6342 45.3119 53.4106 46.5356C52.1869 47.7592 50.7342 48.7299 49.1354 49.3921C47.2906 50.1575 45.1915 50.3271 42.3131 50.3775C41.6026 50.3745 40.8923 50.402 40.1842 50.46C39.7304 50.5104 39.554 50.5837 39.4508 50.6433C39.3431 50.7075 39.1942 50.8221 38.9375 51.175C38.6602 51.5554 38.3462 52.0825 37.8467 52.9258L36.6046 55.025C34.8331 58.0202 30.44 58.0202 28.6662 55.025L27.4242 52.9258C27.0855 52.327 26.7216 51.7429 26.3333 51.175C26.0767 50.8221 25.9277 50.7075 25.82 50.6433C25.7169 50.5837 25.5404 50.5104 25.0867 50.46C24.6008 50.4073 23.9637 50.3912 22.9554 50.3752C20.0794 50.3271 17.9802 50.1575 16.1354 49.3921C14.5366 48.7299 13.0839 47.7592 11.8603 46.5356C10.6366 45.3119 9.66596 43.8592 9.00375 42.2604C8.46521 40.9633 8.22688 39.5608 8.11229 37.8765C8 36.2196 8 34.1685 8 31.5515V29.1085C8 25.4327 8 22.5544 8.21771 20.2512C8.44229 17.9069 8.90521 15.9842 9.94104 14.2929C11.0278 12.5191 12.5191 11.0278 14.2929 9.94104C15.9842 8.90521 17.9069 8.44229 20.2512 8.21771C22.5521 8 25.4327 8 29.1085 8H29.1062ZM20.579 11.6415C18.4844 11.8408 17.1529 12.2212 16.0896 12.8721C14.7781 13.6755 13.6755 14.7781 12.8721 16.0896C12.2212 17.1529 11.8408 18.4844 11.6415 20.5812C11.4398 22.6987 11.4375 25.4167 11.4375 29.2002V31.4919C11.4375 34.1846 11.4375 36.1187 11.5429 37.645C11.646 39.1552 11.8431 40.1406 12.18 40.9473C13.1685 43.3337 15.0645 45.2296 17.4508 46.2181C18.631 46.7085 20.139 46.8919 23.0173 46.9423H23.0883C24.0004 46.9583 24.8002 46.9721 25.4648 47.0454C26.1775 47.1256 26.8765 47.2837 27.5479 47.6733C28.2125 48.0629 28.6937 48.5785 29.1108 49.1515C29.4981 49.6831 29.8946 50.3546 30.3437 51.1131L31.6248 53.2765C31.7319 53.4479 31.8809 53.5893 32.0577 53.6873C32.2345 53.7853 32.4333 53.8367 32.6354 53.8367C32.8376 53.8367 33.0364 53.7853 33.2132 53.6873C33.39 53.5893 33.5389 53.4479 33.646 53.2765L34.9271 51.1131C35.3762 50.3546 35.775 49.6831 36.16 49.1515C36.5771 48.5785 37.0583 48.0606 37.7229 47.6733C38.3944 47.2837 39.0933 47.1233 39.806 47.0454C40.4706 46.9721 41.2704 46.9583 42.1825 46.9423H42.2558C45.1319 46.8919 46.6398 46.7085 47.82 46.2181C50.2064 45.2296 52.1023 43.3337 53.0908 40.9473C53.4277 40.1406 53.6248 39.1552 53.7279 37.645C53.8333 36.1187 53.8333 34.1846 53.8333 31.4919V29.2002C53.8333 25.4167 53.8333 22.6987 53.6294 20.579C53.43 18.4844 53.0496 17.1529 52.3987 16.0896C51.5957 14.7792 50.4939 13.6774 49.1835 12.8744C48.1202 12.2235 46.7887 11.8431 44.6919 11.6437C42.5744 11.4421 39.8565 11.4398 36.0729 11.4398H29.1979C25.4144 11.4398 22.6965 11.4398 20.5767 11.6437L20.579 11.6415Z" fill="url(#paint0_linear_2919_27765)"/>
<path d="M25.763 30.3444C25.763 30.9522 25.5216 31.5351 25.0918 31.9649C24.662 32.3946 24.0791 32.6361 23.4714 32.6361C22.8636 32.6361 22.2807 32.3946 21.8509 31.9649C21.4211 31.5351 21.1797 30.9522 21.1797 30.3444C21.1797 29.7366 21.4211 29.1537 21.8509 28.7239C22.2807 28.2942 22.8636 28.0527 23.4714 28.0527C24.0791 28.0527 24.662 28.2942 25.0918 28.7239C25.5216 29.1537 25.763 29.7366 25.763 30.3444ZM34.9297 30.3444C34.9297 30.9522 34.6882 31.5351 34.2585 31.9649C33.8287 32.3946 33.2458 32.6361 32.638 32.6361C32.0302 32.6361 31.4473 32.3946 31.0176 31.9649C30.5878 31.5351 30.3464 30.9522 30.3464 30.3444C30.3464 29.7366 30.5878 29.1537 31.0176 28.7239C31.4473 28.2942 32.0302 28.0527 32.638 28.0527C33.2458 28.0527 33.8287 28.2942 34.2585 28.7239C34.6882 29.1537 34.9297 29.7366 34.9297 30.3444ZM44.0964 30.3444C44.0964 30.9522 43.8549 31.5351 43.4251 31.9649C42.9954 32.3946 42.4125 32.6361 41.8047 32.6361C41.1969 32.6361 40.614 32.3946 40.1842 31.9649C39.7545 31.5351 39.513 30.9522 39.513 30.3444C39.513 29.7366 39.7545 29.1537 40.1842 28.7239C40.614 28.2942 41.1969 28.0527 41.8047 28.0527C42.4125 28.0527 42.9954 28.2942 43.4251 28.7239C43.8549 29.1537 44.0964 29.7366 44.0964 30.3444Z" fill="url(#paint1_linear_2919_27765)"/>
<defs>
<linearGradient id="paint0_linear_2919_27765" x1="32.6354" y1="8" x2="32.6354" y2="57.2714" gradientUnits="userSpaceOnUse">
<stop stop-color="#FF0420"/>
<stop offset="1" stop-color="#BD2738"/>
</linearGradient>
<linearGradient id="paint1_linear_2919_27765" x1="32.638" y1="28.0527" x2="32.638" y2="32.6361" gradientUnits="userSpaceOnUse">
<stop stop-color="#FF0420"/>
<stop offset="1" stop-color="#BD2738"/>
</linearGradient>
</defs>
</svg>
