<svg width="172" height="172" viewBox="0 0 172 172" fill="none" xmlns="http://www.w3.org/2000/svg">
<g filter="url(#filter0_b_5789_40137)">
<circle cx="85.9981" cy="86" r="42.8106" fill="#1B1F26"/>
</g>
<path d="M80.1376 72.9768C78.9302 72.9816 77.7736 73.4634 76.9198 74.3171C76.0661 75.1709 75.5843 76.3275 75.5795 77.5349C75.5795 80.0379 77.6346 82.093 80.1376 82.093C82.6406 82.093 84.6957 80.0379 84.6957 77.5349C84.6957 75.0319 82.6406 72.9768 80.1376 72.9768ZM91.8584 72.9768C90.651 72.9816 89.4944 73.4634 88.6407 74.3171C87.7869 75.1709 87.3051 76.3275 87.3003 77.5349C87.3003 80.0379 89.3554 82.093 91.8584 82.093C94.3615 82.093 96.4165 80.0379 96.4165 77.5349C96.4165 75.0319 94.3615 72.9768 91.8584 72.9768ZM80.1376 75.5814C81.2315 75.5814 82.0911 76.441 82.0911 77.5349C82.0911 78.6288 81.2315 79.4884 80.1376 79.4884C79.0437 79.4884 78.1841 78.6288 78.1841 77.5349C78.1841 76.441 79.0437 75.5814 80.1376 75.5814ZM91.8584 75.5814C92.9524 75.5814 93.8119 76.441 93.8119 77.5349C93.8119 78.6288 92.9524 79.4884 91.8584 79.4884C90.7645 79.4884 89.9049 78.6288 89.9049 77.5349C89.9049 76.441 90.7645 75.5814 91.8584 75.5814ZM74.2772 80.7907C71.4121 80.7907 69.0679 83.1348 69.0679 85.9999C69.0679 87.4494 69.6891 88.7569 70.6555 89.7037C69.769 90.3019 69.0423 91.1078 68.5386 92.0511C68.0349 92.9945 67.7695 94.0467 67.7656 95.1161H70.3703C70.3703 92.9439 72.1049 91.2092 74.2772 91.2092C76.4494 91.2092 78.1841 92.9439 78.1841 95.1161H80.7888C80.7848 94.0467 80.5195 92.9945 80.0158 92.0511C79.5121 91.1078 78.7854 90.3019 77.8989 89.7037C78.8652 88.7569 79.4864 87.4507 79.4864 85.9999C79.4864 83.1348 77.1423 80.7907 74.2772 80.7907ZM80.7888 95.1161C79.9748 96.2049 79.4864 97.5736 79.4864 99.0231H82.0911C82.0911 96.8508 83.8257 95.1161 85.998 95.1161C88.1703 95.1161 89.9049 96.8508 89.9049 99.0231H92.5096C92.5073 97.6145 92.0506 96.2443 91.2073 95.1161C90.7645 94.5262 90.2305 94.0222 89.6197 93.6106C90.5861 92.6639 91.2073 91.3576 91.2073 89.9069C91.2073 87.0418 88.8631 84.6976 85.998 84.6976C83.1329 84.6976 80.7888 87.0418 80.7888 89.9069C80.7888 91.3563 81.41 92.6639 82.3763 93.6106C81.7666 94.0202 81.23 94.5291 80.7888 95.1161ZM91.2073 95.1161H93.8119C93.8119 92.9439 95.5466 91.2092 97.7188 91.2092C99.8911 91.2092 101.626 92.9439 101.626 95.1161H104.23C104.226 94.0467 103.961 92.9945 103.457 92.0511C102.954 91.1078 102.227 90.3019 101.341 89.7037C102.307 88.7569 102.928 87.4507 102.928 85.9999C102.928 83.1348 100.584 80.7907 97.7188 80.7907C94.8537 80.7907 92.5096 83.1348 92.5096 85.9999C92.5096 87.4494 93.1308 88.7569 94.0971 89.7037C93.2106 90.3019 92.4839 91.1078 91.9802 92.0511C91.4765 92.9945 91.2112 94.0467 91.2073 95.1161ZM74.2772 83.3953C75.7319 83.3953 76.8818 84.5453 76.8818 85.9999C76.8818 87.4546 75.7319 88.6046 74.2772 88.6046C72.8225 88.6046 71.6726 87.4546 71.6726 85.9999C71.6726 84.5453 72.8225 83.3953 74.2772 83.3953ZM97.7188 83.3953C99.1735 83.3953 100.323 84.5453 100.323 85.9999C100.323 87.4546 99.1735 88.6046 97.7188 88.6046C96.2641 88.6046 95.1142 87.4546 95.1142 85.9999C95.1142 84.5453 96.2641 83.3953 97.7188 83.3953ZM85.998 87.3022C87.4527 87.3022 88.6026 88.4522 88.6026 89.9069C88.6026 91.3616 87.4527 92.5115 85.998 92.5115C84.5433 92.5115 83.3934 91.3616 83.3934 89.9069C83.3934 88.4522 84.5433 87.3022 85.998 87.3022Z" fill="url(#paint0_linear_5789_40137)"/>
<circle cx="85.9964" cy="86" r="53.9339" stroke="url(#paint1_linear_5789_40137)" stroke-width="2" stroke-dasharray="1 5"/>
<circle opacity="0.5" cx="86.002" cy="86" r="70.6035" stroke="url(#paint2_linear_5789_40137)" stroke-width="2" stroke-dasharray="1 10"/>
<circle opacity="0.5" cx="86" cy="86" r="85" stroke="url(#paint3_linear_5789_40137)" stroke-width="2" stroke-dasharray="1 15"/>
<defs>
<filter id="filter0_b_5789_40137" x="33.1875" y="33.1895" width="105.625" height="105.621" filterUnits="userSpaceOnUse" color-interpolation-filters="sRGB">
<feFlood flood-opacity="0" result="BackgroundImageFix"/>
<feGaussianBlur in="BackgroundImageFix" stdDeviation="5"/>
<feComposite in2="SourceAlpha" operator="in" result="effect1_backgroundBlur_5789_40137"/>
<feBlend mode="normal" in="SourceGraphic" in2="effect1_backgroundBlur_5789_40137" result="shape"/>
</filter>
<linearGradient id="paint0_linear_5789_40137" x1="67.7656" y1="89.1763" x2="114.466" y2="89.1763" gradientUnits="userSpaceOnUse">
<stop stop-color="#BC2738"/>
<stop offset="1" stop-color="#6E1620"/>
</linearGradient>
<linearGradient id="paint1_linear_5789_40137" x1="31.0625" y1="99.3985" x2="171.77" y2="99.3985" gradientUnits="userSpaceOnUse">
<stop stop-color="#BC2738"/>
<stop offset="1" stop-color="#6E1620"/>
</linearGradient>
<linearGradient id="paint2_linear_5789_40137" x1="14.3984" y1="103.464" x2="197.804" y2="103.464" gradientUnits="userSpaceOnUse">
<stop stop-color="#BC2738"/>
<stop offset="1" stop-color="#6E1620"/>
</linearGradient>
<linearGradient id="paint3_linear_5789_40137" x1="-9.16509e-08" y1="106.976" x2="220.281" y2="106.976" gradientUnits="userSpaceOnUse">
<stop stop-color="#BC2738"/>
<stop offset="1" stop-color="#6E1620"/>
</linearGradient>
</defs>
</svg>
