<svg width="173" height="172" viewBox="0 0 173 172" fill="none" xmlns="http://www.w3.org/2000/svg">
<g filter="url(#filter0_b_5909_26407)">
<circle cx="86.6309" cy="86" r="42.8106" fill="#232933"/>
</g>
<path d="M87 65C82.8466 65 78.7865 66.2316 75.333 68.5391C71.8796 70.8466 69.188 74.1264 67.5985 77.9636C66.0091 81.8009 65.5932 86.0233 66.4035 90.0969C67.2138 94.1705 69.2139 97.9123 72.1508 100.849C75.0877 103.786 78.8295 105.786 82.9031 106.596C86.9767 107.407 91.1991 106.991 95.0364 105.401C98.8736 103.812 102.153 101.12 104.461 97.667C106.768 94.2135 108 90.1534 108 86C107.994 80.4324 105.779 75.0947 101.842 71.1578C97.9053 67.2209 92.5676 65.0064 87 65ZM104.925 84.5015H95.865C95.6151 82.9985 94.9866 81.5839 94.0387 80.3911C93.0908 79.1982 91.8548 78.2664 90.4471 77.6833C89.0395 77.1003 87.5066 76.8853 85.9928 77.0587C84.4791 77.232 83.0344 77.7879 81.795 78.674L75.39 72.269C77.9089 70.1306 80.9687 68.7282 84.233 68.2161C87.4972 67.7039 90.8395 68.1018 93.8922 69.366C96.945 70.6302 99.59 72.7118 101.536 75.3818C103.483 78.0518 104.655 81.2068 104.925 84.5V84.5015ZM87 92C85.8133 92 84.6533 91.6481 83.6666 90.9888C82.6799 90.3295 81.9109 89.3925 81.4567 88.2961C81.0026 87.1997 80.8838 85.9933 81.1153 84.8295C81.3468 83.6656 81.9183 82.5965 82.7574 81.7574C83.5965 80.9182 84.6656 80.3468 85.8295 80.1153C86.9934 79.8838 88.1998 80.0026 89.2961 80.4567C90.3925 80.9108 91.3295 81.6799 91.9888 82.6666C92.6481 83.6533 93 84.8133 93 86C92.998 87.5907 92.3652 89.1157 91.2405 90.2404C90.1157 91.3652 88.5907 91.998 87 92ZM69 86C68.9986 81.7457 70.512 77.63 73.269 74.39L79.674 80.795C78.7888 82.0346 78.2335 83.479 78.0606 84.9924C77.8876 86.5057 78.1026 88.0382 78.6853 89.4456C79.2681 90.8529 80.1994 92.0888 81.3916 93.0369C82.5838 93.985 83.9976 94.6141 85.5 94.865V103.925C81.0049 103.546 76.8157 101.494 73.7605 98.1746C70.7053 94.8556 69.0066 90.5111 69 86ZM88.5 103.925V94.865C90.3391 94.5509 92.0353 93.6737 93.3545 92.3545C94.6737 91.0353 95.5509 89.339 95.865 87.5H104.925C104.566 91.7358 102.72 95.708 99.7139 98.7139C96.708 101.72 92.7358 103.566 88.5 103.925Z" fill="url(#paint0_linear_5909_26407)"/>
<circle cx="86.6292" cy="86" r="53.9339" stroke="url(#paint1_linear_5909_26407)" stroke-width="2" stroke-dasharray="1 5"/>
<circle opacity="0.5" cx="86.6348" cy="86" r="70.6035" stroke="url(#paint2_linear_5909_26407)" stroke-width="2" stroke-dasharray="1 10"/>
<circle opacity="0.5" cx="86.6328" cy="86" r="85" stroke="url(#paint3_linear_5909_26407)" stroke-width="2" stroke-dasharray="1 15"/>
<defs>
<filter id="filter0_b_5909_26407" x="33.8203" y="33.1895" width="105.625" height="105.621" filterUnits="userSpaceOnUse" color-interpolation-filters="sRGB">
<feFlood flood-opacity="0" result="BackgroundImageFix"/>
<feGaussianBlur in="BackgroundImageFix" stdDeviation="5"/>
<feComposite in2="SourceAlpha" operator="in" result="effect1_backgroundBlur_5909_26407"/>
<feBlend mode="normal" in="SourceGraphic" in2="effect1_backgroundBlur_5909_26407" result="shape"/>
</filter>
<linearGradient id="paint0_linear_5909_26407" x1="66" y1="91.122" x2="119.789" y2="91.122" gradientUnits="userSpaceOnUse">
<stop stop-color="#BC2738"/>
<stop offset="1" stop-color="#6E1620"/>
</linearGradient>
<linearGradient id="paint1_linear_5909_26407" x1="31.6953" y1="99.3985" x2="172.403" y2="99.3985" gradientUnits="userSpaceOnUse">
<stop stop-color="#BC2738"/>
<stop offset="1" stop-color="#6E1620"/>
</linearGradient>
<linearGradient id="paint2_linear_5909_26407" x1="15.0312" y1="103.464" x2="198.437" y2="103.464" gradientUnits="userSpaceOnUse">
<stop stop-color="#BC2738"/>
<stop offset="1" stop-color="#6E1620"/>
</linearGradient>
<linearGradient id="paint3_linear_5909_26407" x1="0.632812" y1="106.976" x2="220.914" y2="106.976" gradientUnits="userSpaceOnUse">
<stop stop-color="#BC2738"/>
<stop offset="1" stop-color="#6E1620"/>
</linearGradient>
</defs>
</svg>
