<svg width="35" height="35" viewBox="0 0 35 35" fill="none" xmlns="http://www.w3.org/2000/svg">
<path d="M18.3235 9.33106H16.6795C16.5291 9.33106 16.406 9.45411 16.406 9.6045V19.0142C16.406 19.103 16.447 19.1851 16.5188 19.2363L22.1687 23.3618C22.2918 23.4507 22.4627 23.4268 22.5515 23.3037L23.5291 21.9707C23.6214 21.8442 23.594 21.6733 23.471 21.5879L18.5969 18.064V9.6045C18.5969 9.45411 18.4739 9.33106 18.3235 9.33106ZM25.8362 11.9014L31.1956 13.2105C31.3665 13.2515 31.534 13.1216 31.534 12.9473L31.5613 7.42725C31.5613 7.19825 31.2981 7.06836 31.1204 7.21192L25.7337 11.4194C25.693 11.4509 25.662 11.4933 25.6442 11.5416C25.6265 11.5899 25.6228 11.6423 25.6335 11.6926C25.6442 11.743 25.6689 11.7893 25.7048 11.8262C25.7407 11.8631 25.7862 11.8892 25.8362 11.9014ZM31.5681 22.1929L29.6302 21.5264C29.5626 21.5032 29.4886 21.5074 29.4241 21.5381C29.3596 21.5687 29.3097 21.6234 29.2849 21.6904C29.22 21.8647 29.1516 22.0356 29.0799 22.2065C28.4715 23.6455 27.5999 24.9409 26.4856 26.0518C25.3837 27.1571 24.0779 28.0381 22.6404 28.646C21.1513 29.2756 19.5506 29.5987 17.9339 29.5962C16.3001 29.5962 14.7176 29.2783 13.2273 28.646C11.7899 28.0381 10.484 27.1571 9.38211 26.0518C8.27127 24.9409 7.39968 23.6455 6.78787 22.2065C6.16175 20.7166 5.84097 19.1162 5.84451 17.5C5.84451 15.8662 6.16238 14.2803 6.7947 12.79C7.4031 11.3511 8.27469 10.0557 9.38894 8.94483C10.4908 7.83952 11.7967 6.9585 13.2342 6.35059C14.7176 5.71827 16.3035 5.40039 17.9373 5.40039C19.5711 5.40039 21.1536 5.71827 22.6438 6.35059C24.0813 6.9585 25.3872 7.83952 26.489 8.94483C26.8377 9.29688 27.1658 9.6626 27.4666 10.0488L29.5105 8.44922C26.8206 5.01075 22.6336 2.79932 17.9304 2.80274C9.74099 2.80616 3.16482 9.45752 3.24685 17.6504C3.32888 25.6997 9.87429 32.1973 17.9373 32.1973C24.2776 32.1973 29.678 28.1777 31.7356 22.5483C31.7869 22.4048 31.7117 22.2441 31.5681 22.1929Z" fill="url(#paint0_linear_3149_13822)"/>
<defs>
<linearGradient id="paint0_linear_3149_13822" x1="17.4989" y1="2.80273" x2="17.4989" y2="32.1973" gradientUnits="userSpaceOnUse">
<stop stop-color="#FF0420"/>
<stop offset="1" stop-color="#BD2738"/>
</linearGradient>
</defs>
</svg>
