<svg width="172" height="172" viewBox="0 0 172 172" fill="none" xmlns="http://www.w3.org/2000/svg">
<g filter="url(#filter0_b_9004_65824)">
<circle cx="85.8106" cy="85.8106" r="42.8106" fill="#15191F"/>
</g>
<path d="M85.5 67.375C90.4172 67.375 94.969 68.242 98.3733 69.7316C100.071 70.4754 101.58 71.4146 102.691 72.5664C103.722 73.6289 104.487 74.9634 104.608 76.5104L104.625 76.9375V98.1875C104.625 99.9173 103.815 101.396 102.691 102.559C101.58 103.71 100.071 104.65 98.3733 105.393C94.969 106.881 90.4172 107.75 85.5 107.75C80.5828 107.75 76.031 106.883 72.6267 105.393C70.9289 104.65 69.4201 103.71 68.3088 102.559C67.2781 101.496 66.5131 100.162 66.392 98.6146L66.375 98.1875V76.9375C66.375 75.2077 67.1846 73.7287 68.3088 72.5664C69.4201 71.4146 70.9289 70.4754 72.6267 69.7316C76.031 68.2441 80.5828 67.375 85.5 67.375ZM100.375 93.7399C99.7308 94.1258 99.0621 94.4694 98.3733 94.7684C94.969 96.2559 90.4172 97.125 85.5 97.125C80.5828 97.125 76.031 96.258 72.6267 94.7684C71.9378 94.4695 71.2692 94.1259 70.625 93.7399V98.1875C70.625 98.5105 70.7653 98.9865 71.3645 99.6049C71.9722 100.234 72.954 100.897 74.331 101.5C77.0807 102.703 81.0269 103.5 85.5 103.5C89.9731 103.5 93.9193 102.703 96.669 101.5C98.046 100.897 99.0278 100.234 99.6355 99.6049C100.235 98.9886 100.375 98.5105 100.375 98.1875V93.7399ZM100.375 83.1149C99.7308 83.5008 99.0621 83.8444 98.3733 84.1434C94.969 85.6309 90.4172 86.5 85.5 86.5C80.5828 86.5 76.031 85.633 72.6267 84.1434C71.9378 83.8445 71.2692 83.5009 70.625 83.1149V87.5625C70.625 87.8855 70.7653 88.3615 71.3645 88.9799C71.9722 89.6089 72.954 90.2719 74.331 90.8754C77.0807 92.0781 81.0269 92.875 85.5 92.875C89.9731 92.875 93.9193 92.0781 96.669 90.8754C98.046 90.2719 99.0278 89.6089 99.6355 88.9799C100.235 88.3636 100.375 87.8855 100.375 87.5625V83.1149ZM85.5 71.625C81.0269 71.625 77.0807 72.4219 74.331 73.6246C72.954 74.2281 71.9722 74.8911 71.3645 75.5201C70.7653 76.1364 70.625 76.6145 70.625 76.9375C70.625 77.2605 70.7653 77.7365 71.3645 78.3549C71.9722 78.9839 72.954 79.6469 74.331 80.2504C77.0807 81.4531 81.0269 82.25 85.5 82.25C89.9731 82.25 93.9193 81.4531 96.669 80.2504C98.046 79.6469 99.0278 78.9839 99.6355 78.3549C100.235 77.7386 100.375 77.2605 100.375 76.9375C100.375 76.6145 100.235 76.1385 99.6355 75.5201C99.0278 74.8911 98.046 74.2281 96.669 73.6246C93.9193 72.4219 89.9731 71.625 85.5 71.625Z" fill="url(#paint0_linear_9004_65824)"/>
<circle cx="85.9964" cy="86" r="53.9339" stroke="url(#paint1_linear_9004_65824)" stroke-width="2" stroke-dasharray="1 5"/>
<circle opacity="0.5" cx="86.002" cy="86" r="70.6035" stroke="url(#paint2_linear_9004_65824)" stroke-width="2" stroke-dasharray="1 10"/>
<circle opacity="0.5" cx="86" cy="86" r="85" stroke="url(#paint3_linear_9004_65824)" stroke-width="2" stroke-dasharray="1 15"/>
<defs>
<filter id="filter0_b_9004_65824" x="33" y="33" width="105.625" height="105.621" filterUnits="userSpaceOnUse" color-interpolation-filters="sRGB">
<feFlood flood-opacity="0" result="BackgroundImageFix"/>
<feGaussianBlur in="BackgroundImageFix" stdDeviation="5"/>
<feComposite in2="SourceAlpha" operator="in" result="effect1_backgroundBlur_9004_65824"/>
<feBlend mode="normal" in="SourceGraphic" in2="effect1_backgroundBlur_9004_65824" result="shape"/>
</filter>
<linearGradient id="paint0_linear_9004_65824" x1="66.375" y1="92.4863" x2="115.362" y2="92.4863" gradientUnits="userSpaceOnUse">
<stop stop-color="#BC2738"/>
<stop offset="1" stop-color="#6E1620"/>
</linearGradient>
<linearGradient id="paint1_linear_9004_65824" x1="31.0625" y1="99.3985" x2="171.77" y2="99.3985" gradientUnits="userSpaceOnUse">
<stop stop-color="#BC2738"/>
<stop offset="1" stop-color="#6E1620"/>
</linearGradient>
<linearGradient id="paint2_linear_9004_65824" x1="14.3984" y1="103.464" x2="197.804" y2="103.464" gradientUnits="userSpaceOnUse">
<stop stop-color="#BC2738"/>
<stop offset="1" stop-color="#6E1620"/>
</linearGradient>
<linearGradient id="paint3_linear_9004_65824" x1="-9.16509e-08" y1="106.976" x2="220.281" y2="106.976" gradientUnits="userSpaceOnUse">
<stop stop-color="#BC2738"/>
<stop offset="1" stop-color="#6E1620"/>
</linearGradient>
</defs>
</svg>
