<svg width="22" height="14" viewBox="0 0 22 14" fill="none" xmlns="http://www.w3.org/2000/svg">
<path d="M21.0378 4.46239L17.2878 0.712386C17.111 0.541613 16.8742 0.447118 16.6284 0.449254C16.3826 0.45139 16.1474 0.549986 15.9736 0.723806C15.7998 0.897626 15.7012 1.13276 15.6991 1.37857C15.6969 1.62438 15.7914 1.8612 15.9622 2.03801L18.1118 4.1877H5.375C5.12636 4.1877 4.8879 4.28647 4.71209 4.46229C4.53627 4.6381 4.4375 4.87656 4.4375 5.1252C4.4375 5.37384 4.53627 5.6123 4.71209 5.78811C4.8879 5.96393 5.12636 6.0627 5.375 6.0627H20.375C20.5604 6.06266 20.7416 6.00765 20.8957 5.90464C21.0499 5.80162 21.17 5.65522 21.2409 5.48394C21.3119 5.31266 21.3305 5.12419 21.2943 4.94236C21.2581 4.76053 21.1689 4.5935 21.0378 4.46239Z" fill="url(#paint0_linear_2801_8742)"/>
<path d="M16.6248 7.9375H1.6248C1.43941 7.93754 1.25819 7.99254 1.10406 8.09556C0.949924 8.19858 0.829793 8.34498 0.758852 8.51626C0.687912 8.68754 0.669346 8.87601 0.705503 9.05784C0.74166 9.23967 0.830917 9.4067 0.961988 9.53781L4.71199 13.2878C4.8888 13.4586 5.12562 13.5531 5.37143 13.5509C5.61724 13.5488 5.85237 13.4502 6.02619 13.2764C6.20001 13.1026 6.29861 12.8674 6.30074 12.6216C6.30288 12.3758 6.20839 12.139 6.03761 11.9622L3.88802 9.8125H16.6248C16.8734 9.8125 17.1119 9.71373 17.2877 9.53791C17.4635 9.3621 17.5623 9.12364 17.5623 8.875C17.5623 8.62636 17.4635 8.3879 17.2877 8.21209C17.1119 8.03627 16.8734 7.9375 16.6248 7.9375Z" fill="url(#paint1_linear_2801_8742)"/>
<defs>
<linearGradient id="paint0_linear_2801_8742" x1="12.8749" y1="0.449219" x2="12.8749" y2="6.0627" gradientUnits="userSpaceOnUse">
<stop stop-color="#FF0420"/>
<stop offset="1" stop-color="#BD2738"/>
</linearGradient>
<linearGradient id="paint1_linear_2801_8742" x1="9.1249" y1="7.9375" x2="9.1249" y2="13.551" gradientUnits="userSpaceOnUse">
<stop stop-color="#FF0420"/>
<stop offset="1" stop-color="#BD2738"/>
</linearGradient>
</defs>
</svg>
