<svg width="17" height="16" viewBox="0 0 17 16" fill="none" xmlns="http://www.w3.org/2000/svg">
<path d="M8.15104 1.7843C4.47504 1.7843 1.48438 4.77497 1.48438 8.45097C1.48438 12.127 4.47504 15.1176 8.15104 15.1176C11.827 15.1176 14.8177 12.127 14.8177 8.45097C14.8177 4.77497 11.827 1.7843 8.15104 1.7843ZM8.15104 13.7843C5.21038 13.7843 2.81771 11.3916 2.81771 8.45097C2.81771 5.5103 5.21038 3.11764 8.15104 3.11764C11.0917 3.11764 13.4844 5.5103 13.4844 8.45097C13.4844 11.3916 11.0917 13.7843 8.15104 13.7843Z" fill="white"/>
<path d="M8.81771 5.11926H7.48438V9.11926H11.4844V7.78593H8.81771V5.11926Z" fill="white"/>
</svg>
