<svg width="15" height="15" viewBox="0 0 15 15" fill="none" xmlns="http://www.w3.org/2000/svg">
<path d="M10.5312 10.7187L11.4312 9.81868L8.38124 6.76868L6.32499 8.82493C6.26717 8.88287 6.19849 8.92884 6.12288 8.9602C6.04728 8.99156 5.96622 9.00771 5.88437 9.00771C5.80251 9.00771 5.72146 8.99156 5.64585 8.9602C5.57024 8.92884 5.50156 8.88287 5.44374 8.82493L1.69374 5.06868C1.63588 5.01081 1.58998 4.94212 1.55866 4.86652C1.52735 4.79092 1.51123 4.70989 1.51123 4.62805C1.51123 4.54622 1.52735 4.46519 1.55866 4.38959C1.58998 4.31399 1.63588 4.24529 1.69374 4.18743C1.75161 4.12957 1.8203 4.08366 1.8959 4.05235C1.97151 4.02103 2.05254 4.00492 2.13437 4.00492C2.2162 4.00492 2.29723 4.02103 2.37283 4.05235C2.44844 4.08366 2.51713 4.12957 2.57499 4.18743L5.88124 7.49993L7.93749 5.44368C8.18124 5.19993 8.57499 5.19993 8.81874 5.44368L12.3125 8.93118L13.2125 8.03118C13.2562 7.98835 13.3115 7.95929 13.3715 7.94759C13.4315 7.93589 13.4937 7.94207 13.5503 7.96536C13.6068 7.98865 13.6553 8.02803 13.6897 8.07861C13.7241 8.1292 13.7429 8.18876 13.7437 8.24993V10.9374C13.7455 10.9784 13.7388 11.0193 13.7241 11.0576C13.7094 11.0958 13.687 11.1307 13.6583 11.16C13.6296 11.1893 13.5952 11.2124 13.5572 11.2278C13.5192 11.2433 13.4785 11.2508 13.4375 11.2499H10.7562C10.6945 11.2503 10.6341 11.2324 10.5826 11.1985C10.5311 11.1645 10.4907 11.1161 10.4667 11.0593C10.4426 11.0025 10.4359 10.9398 10.4474 10.8792C10.4589 10.8186 10.4881 10.7627 10.5312 10.7187Z" fill="#FF2A5F"/>
</svg>
