<svg width="30" height="30" viewBox="0 0 30 30" fill="none" xmlns="http://www.w3.org/2000/svg">
<path d="M10.7812 5.625C9.91207 5.62846 9.07948 5.97527 8.46487 6.58987C7.85027 7.20448 7.50346 8.03707 7.5 8.90625C7.5 10.7081 8.97937 12.1875 10.7812 12.1875C12.5831 12.1875 14.0625 10.7081 14.0625 8.90625C14.0625 7.10438 12.5831 5.625 10.7812 5.625ZM19.2188 5.625C18.3496 5.62846 17.517 5.97527 16.9024 6.58987C16.2878 7.20448 15.941 8.03707 15.9375 8.90625C15.9375 10.7081 17.4169 12.1875 19.2188 12.1875C21.0206 12.1875 22.5 10.7081 22.5 8.90625C22.5 7.10438 21.0206 5.625 19.2188 5.625ZM10.7812 7.5C11.5688 7.5 12.1875 8.11875 12.1875 8.90625C12.1875 9.69375 11.5688 10.3125 10.7812 10.3125C9.99375 10.3125 9.375 9.69375 9.375 8.90625C9.375 8.11875 9.99375 7.5 10.7812 7.5ZM19.2188 7.5C20.0063 7.5 20.625 8.11875 20.625 8.90625C20.625 9.69375 20.0063 10.3125 19.2188 10.3125C18.4312 10.3125 17.8125 9.69375 17.8125 8.90625C17.8125 8.11875 18.4312 7.5 19.2188 7.5ZM6.5625 11.25C4.5 11.25 2.8125 12.9375 2.8125 15C2.8125 16.0434 3.25969 16.9847 3.95531 17.6663C3.31718 18.0969 2.79403 18.677 2.43144 19.3561C2.06885 20.0352 1.87782 20.7927 1.875 21.5625H3.75C3.75 19.9987 4.99875 18.75 6.5625 18.75C8.12625 18.75 9.375 19.9987 9.375 21.5625H11.25C11.2472 20.7927 11.0562 20.0352 10.6936 19.3561C10.331 18.677 9.80782 18.0969 9.16969 17.6663C9.86531 16.9847 10.3125 16.0444 10.3125 15C10.3125 12.9375 8.625 11.25 6.5625 11.25ZM11.25 21.5625C10.6641 22.3463 10.3125 23.3316 10.3125 24.375H12.1875C12.1875 22.8113 13.4362 21.5625 15 21.5625C16.5638 21.5625 17.8125 22.8113 17.8125 24.375H19.6875C19.6859 23.361 19.3571 22.3746 18.75 21.5625C18.4312 21.1378 18.0469 20.775 17.6072 20.4788C18.3028 19.7972 18.75 18.8569 18.75 17.8125C18.75 15.75 17.0625 14.0625 15 14.0625C12.9375 14.0625 11.25 15.75 11.25 17.8125C11.25 18.8559 11.6972 19.7972 12.3928 20.4788C11.9539 20.7735 11.5676 21.1399 11.25 21.5625ZM18.75 21.5625H20.625C20.625 19.9987 21.8738 18.75 23.4375 18.75C25.0012 18.75 26.25 19.9987 26.25 21.5625H28.125C28.1222 20.7927 27.9312 20.0352 27.5686 19.3561C27.206 18.677 26.6828 18.0969 26.0447 17.6663C26.7403 16.9847 27.1875 16.0444 27.1875 15C27.1875 12.9375 25.5 11.25 23.4375 11.25C21.375 11.25 19.6875 12.9375 19.6875 15C19.6875 16.0434 20.1347 16.9847 20.8303 17.6663C20.1922 18.0969 19.669 18.677 19.3064 19.3561C18.9438 20.0352 18.7528 20.7927 18.75 21.5625ZM6.5625 13.125C7.60969 13.125 8.4375 13.9528 8.4375 15C8.4375 16.0472 7.60969 16.875 6.5625 16.875C5.51531 16.875 4.6875 16.0472 4.6875 15C4.6875 13.9528 5.51531 13.125 6.5625 13.125ZM23.4375 13.125C24.4847 13.125 25.3125 13.9528 25.3125 15C25.3125 16.0472 24.4847 16.875 23.4375 16.875C22.3903 16.875 21.5625 16.0472 21.5625 15C21.5625 13.9528 22.3903 13.125 23.4375 13.125ZM15 15.9375C16.0472 15.9375 16.875 16.7653 16.875 17.8125C16.875 18.8597 16.0472 19.6875 15 19.6875C13.9528 19.6875 13.125 18.8597 13.125 17.8125C13.125 16.7653 13.9528 15.9375 15 15.9375Z" fill="url(#paint0_linear_5909_25420)"/>
<defs>
<linearGradient id="paint0_linear_5909_25420" x1="1.875" y1="17.2866" x2="35.4934" y2="17.2866" gradientUnits="userSpaceOnUse">
<stop stop-color="#BC2738"/>
<stop offset="1" stop-color="#6E1620"/>
</linearGradient>
</defs>
</svg>
