<svg width="35" height="35" viewBox="0 0 35 35" fill="none" xmlns="http://www.w3.org/2000/svg">
<path d="M17.5 2.91602C16.0578 2.91602 14.6481 3.34366 13.449 4.14488C12.2499 4.9461 11.3153 6.0849 10.7634 7.41728C10.2115 8.74966 10.0671 10.2158 10.3484 11.6302C10.6298 13.0447 11.3243 14.3439 12.344 15.3637C13.3638 16.3834 14.663 17.0779 16.0775 17.3592C17.4919 17.6406 18.958 17.4962 20.2904 16.9443C21.6228 16.3924 22.7616 15.4578 23.5628 14.2587C24.364 13.0596 24.7917 11.6498 24.7917 10.2077C24.7917 8.27381 24.0234 6.41915 22.656 5.0517C21.2885 3.68424 19.4339 2.91602 17.5 2.91602ZM17.5 14.5827C16.6347 14.5827 15.7888 14.3261 15.0694 13.8454C14.3499 13.3646 13.7892 12.6813 13.458 11.8819C13.1269 11.0825 13.0403 10.2028 13.2091 9.35416C13.3779 8.5055 13.7946 7.72594 14.4064 7.11409C15.0183 6.50224 15.7978 6.08556 16.6465 5.91675C17.4951 5.74794 18.3748 5.83458 19.1742 6.16571C19.9737 6.49684 20.6569 7.0576 21.1377 7.77706C21.6184 8.49653 21.875 9.34239 21.875 10.2077C21.875 11.368 21.4141 12.4808 20.5936 13.3013C19.7731 14.1217 18.6603 14.5827 17.5 14.5827ZM30.625 30.6243V29.166C30.625 26.4586 29.5495 23.8621 27.635 21.9476C25.7206 20.0332 23.1241 18.9577 20.4167 18.9577H14.5833C11.8759 18.9577 9.27939 20.0332 7.36495 21.9476C5.45052 23.8621 4.375 26.4586 4.375 29.166V30.6243H7.29167V29.166C7.29167 27.2321 8.05989 25.3775 9.42735 24.01C10.7948 22.6426 12.6495 21.8743 14.5833 21.8743H20.4167C22.3505 21.8743 24.2052 22.6426 25.5727 24.01C26.9401 25.3775 27.7083 27.2321 27.7083 29.166V30.6243H30.625Z" fill="url(#paint0_linear_3149_13811)"/>
<defs>
<linearGradient id="paint0_linear_3149_13811" x1="17.5" y1="2.91602" x2="17.5" y2="30.6243" gradientUnits="userSpaceOnUse">
<stop stop-color="#FF0420"/>
<stop offset="1" stop-color="#BD2738"/>
</linearGradient>
</defs>
</svg>
