<svg width="25" height="24" viewBox="0 0 25 24" fill="none" xmlns="http://www.w3.org/2000/svg">
<path d="M19.5 7H18.5V6C18.5 5.20435 18.1839 4.44129 17.6213 3.87868C17.0587 3.31607 16.2956 3 15.5 3H5.5C4.70435 3 3.94129 3.31607 3.37868 3.87868C2.81607 4.44129 2.5 5.20435 2.5 6V18C2.5 18.7956 2.81607 19.5587 3.37868 20.1213C3.94129 20.6839 4.70435 21 5.5 21H19.5C20.2956 21 21.0587 20.6839 21.6213 20.1213C22.1839 19.5587 22.5 18.7956 22.5 18V10C22.5 9.20435 22.1839 8.44129 21.6213 7.87868C21.0587 7.31607 20.2956 7 19.5 7ZM5.5 5H15.5C15.7652 5 16.0196 5.10536 16.2071 5.29289C16.3946 5.48043 16.5 5.73478 16.5 6V7H5.5C5.23478 7 4.98043 6.89464 4.79289 6.70711C4.60536 6.51957 4.5 6.26522 4.5 6C4.5 5.73478 4.60536 5.48043 4.79289 5.29289C4.98043 5.10536 5.23478 5 5.5 5ZM20.5 15H19.5C19.2348 15 18.9804 14.8946 18.7929 14.7071C18.6054 14.5196 18.5 14.2652 18.5 14C18.5 13.7348 18.6054 13.4804 18.7929 13.2929C18.9804 13.1054 19.2348 13 19.5 13H20.5V15ZM20.5 11H19.5C18.7044 11 17.9413 11.3161 17.3787 11.8787C16.8161 12.4413 16.5 13.2044 16.5 14C16.5 14.7956 16.8161 15.5587 17.3787 16.1213C17.9413 16.6839 18.7044 17 19.5 17H20.5V18C20.5 18.2652 20.3946 18.5196 20.2071 18.7071C20.0196 18.8946 19.7652 19 19.5 19H5.5C5.23478 19 4.98043 18.8946 4.79289 18.7071C4.60536 18.5196 4.5 18.2652 4.5 18V8.83C4.82127 8.94302 5.15943 9.00051 5.5 9H19.5C19.7652 9 20.0196 9.10536 20.2071 9.29289C20.3946 9.48043 20.5 9.73478 20.5 10V11Z" fill="white"/>
</svg>
