<svg width="25" height="24" viewBox="0 0 25 24" fill="none" xmlns="http://www.w3.org/2000/svg">
<path fill-rule="evenodd" clip-rule="evenodd" d="M23.7437 8C23.8933 8.65616 23.9688 9.32702 23.9688 10H14.9688V1C17.0081 0.999992 18.987 1.6926 20.5813 2.96437C22.1755 4.23613 23.2906 6.01163 23.7437 8ZM21.6768 8C21.3447 6.88601 20.7404 5.87227 19.9184 5.05031C19.0965 4.22835 18.0827 3.62406 16.9688 3.292V8H21.6768Z" fill="url(#paint0_linear_8792_94790)"/>
<path fill-rule="evenodd" clip-rule="evenodd" d="M1.96875 14C1.96874 12.6481 2.27327 11.3136 2.85972 10.0956C3.44617 8.87761 4.29947 7.80735 5.35625 6.96433C6.41303 6.1213 7.64615 5.52717 8.96404 5.22605C10.2819 4.92493 11.6507 4.92456 12.9688 5.22497V12H19.7437C20.0252 13.2351 20.0428 14.5157 19.7953 15.7581C19.5478 17.0005 19.0409 18.1766 18.3076 19.2096C17.5743 20.2426 16.6311 21.1091 15.5399 21.7525C14.4487 22.3959 13.2339 22.8017 11.9751 22.9434C10.7162 23.085 9.44164 22.9593 8.23471 22.5745C7.02778 22.1897 5.91569 21.5544 4.97117 20.7102C4.02666 19.866 3.27099 18.8319 2.75361 17.6756C2.23622 16.5193 1.96877 15.2668 1.96875 14ZM17.7717 14H10.9688V7.19597C9.623 7.19578 8.30742 7.59466 7.18838 8.34217C6.06933 9.08968 5.19709 10.1523 4.68196 11.3955C4.16683 12.6388 4.03194 14.0068 4.29436 15.3268C4.55679 16.6467 5.20473 17.8591 6.15624 18.8108C7.10776 19.7624 8.32011 20.4105 9.63999 20.6732C10.9599 20.9358 12.328 20.8011 13.5713 20.2861C14.8146 19.7712 15.8773 18.8991 16.625 17.7802C17.3727 16.6612 17.7717 15.3457 17.7717 14Z" fill="url(#paint1_linear_8792_94790)"/>
<defs>
<linearGradient id="paint0_linear_8792_94790" x1="19.4688" y1="1" x2="19.4688" y2="10" gradientUnits="userSpaceOnUse">
<stop stop-color="#FF0420"/>
<stop offset="1" stop-color="#BD2738"/>
</linearGradient>
<linearGradient id="paint1_linear_8792_94790" x1="10.9688" y1="4.99994" x2="10.9688" y2="22.9998" gradientUnits="userSpaceOnUse">
<stop stop-color="#FF0420"/>
<stop offset="1" stop-color="#BD2738"/>
</linearGradient>
</defs>
</svg>
