<svg width="25" height="24" viewBox="0 0 25 24" fill="none" xmlns="http://www.w3.org/2000/svg">
<path fill-rule="evenodd" clip-rule="evenodd" d="M12.1438 1.25H12.0437C11.3798 1.25 10.8067 1.25 10.3477 1.312C9.85675 1.378 9.38475 1.527 9.00275 1.909C8.62075 2.291 8.47175 2.763 8.40575 3.254C8.34375 3.713 8.34375 4.286 8.34375 4.951V7.378C8.10285 7.29299 7.84921 7.2497 7.59375 7.25H4.59375C4.29828 7.25 4.00569 7.3082 3.73271 7.42127C3.45973 7.53434 3.21169 7.70008 3.00276 7.90901C2.79383 8.11794 2.62809 8.36598 2.51502 8.63896C2.40195 8.91195 2.34375 9.20453 2.34375 9.5V21.25H2.09375C1.89484 21.25 1.70407 21.329 1.56342 21.4697C1.42277 21.6103 1.34375 21.8011 1.34375 22C1.34375 22.1989 1.42277 22.3897 1.56342 22.5303C1.70407 22.671 1.89484 22.75 2.09375 22.75H22.0938C22.2927 22.75 22.4834 22.671 22.6241 22.5303C22.7647 22.3897 22.8438 22.1989 22.8438 22C22.8438 21.8011 22.7647 21.6103 22.6241 21.4697C22.4834 21.329 22.2927 21.25 22.0938 21.25H21.8438V14.5C21.8438 13.9033 21.6067 13.331 21.1847 12.909C20.7628 12.4871 20.1905 12.25 19.5938 12.25H16.5938C16.3307 12.25 16.0787 12.295 15.8438 12.378V4.951C15.8438 4.286 15.8438 3.713 15.7817 3.254C15.7157 2.763 15.5667 2.291 15.1847 1.909C14.8027 1.527 14.3317 1.378 13.8398 1.312C13.3808 1.25 12.8077 1.25 12.1427 1.25H12.1438ZM20.3438 21.25V14.5C20.3438 14.3011 20.2647 14.1103 20.1241 13.9697C19.9834 13.829 19.7927 13.75 19.5938 13.75H16.5938C16.3948 13.75 16.2041 13.829 16.0634 13.9697C15.9228 14.1103 15.8438 14.3011 15.8438 14.5V21.25H20.3438ZM14.3438 21.25V5C14.3438 4.272 14.3417 3.8 14.2957 3.454C14.2517 3.129 14.1807 3.027 14.1237 2.97C14.0667 2.913 13.9647 2.842 13.6397 2.798C13.2927 2.752 12.8217 2.75 12.0938 2.75C11.3658 2.75 10.8938 2.752 10.5478 2.798C10.2228 2.842 10.1208 2.913 10.0638 2.97C10.0068 3.027 9.93575 3.129 9.89175 3.454C9.84575 3.801 9.84375 4.272 9.84375 5V21.25H14.3438ZM8.34375 21.25V9.5C8.34375 9.30109 8.26473 9.11032 8.12408 8.96967C7.98343 8.82902 7.79266 8.75 7.59375 8.75H4.59375C4.39484 8.75 4.20407 8.82902 4.06342 8.96967C3.92277 9.11032 3.84375 9.30109 3.84375 9.5V21.25H8.34375Z" fill="url(#paint0_linear_8792_94774)"/>
<defs>
<linearGradient id="paint0_linear_8792_94774" x1="12.0938" y1="1.25" x2="12.0938" y2="22.75" gradientUnits="userSpaceOnUse">
<stop stop-color="#FF0420"/>
<stop offset="1" stop-color="#BD2738"/>
</linearGradient>
</defs>
</svg>
