<svg width="23" height="22" viewBox="0 0 23 22" fill="none" xmlns="http://www.w3.org/2000/svg">
<path d="M10.1649 15.314L5.92188 11.07L7.33588 9.656L10.1649 12.484L15.8209 6.827L17.2359 8.242L10.1649 15.312V15.314Z" fill="url(#paint0_linear_8792_94904)"/>
<path fill-rule="evenodd" clip-rule="evenodd" d="M0.921875 11C0.921875 4.925 5.84688 0 11.9219 0C17.9969 0 22.9219 4.925 22.9219 11C22.9219 17.075 17.9969 22 11.9219 22C5.84688 22 0.921875 17.075 0.921875 11ZM11.9219 20C10.74 20 9.56965 19.7672 8.47772 19.3149C7.38579 18.8626 6.39364 18.1997 5.55791 17.364C4.72219 16.5282 4.05925 15.5361 3.60696 14.4442C3.15467 13.3522 2.92187 12.1819 2.92187 11C2.92187 9.8181 3.15467 8.64778 3.60696 7.55585C4.05925 6.46392 4.72219 5.47177 5.55791 4.63604C6.39364 3.80031 7.38579 3.13738 8.47772 2.68508C9.56965 2.23279 10.74 2 11.9219 2C14.3088 2 16.598 2.94821 18.2858 4.63604C19.9737 6.32387 20.9219 8.61305 20.9219 11C20.9219 13.3869 19.9737 15.6761 18.2858 17.364C16.598 19.0518 14.3088 20 11.9219 20Z" fill="url(#paint1_linear_8792_94904)"/>
<defs>
<linearGradient id="paint0_linear_8792_94904" x1="11.5789" y1="6.827" x2="11.5789" y2="15.314" gradientUnits="userSpaceOnUse">
<stop stop-color="#FF0420"/>
<stop offset="1" stop-color="#BD2738"/>
</linearGradient>
<linearGradient id="paint1_linear_8792_94904" x1="11.9219" y1="0" x2="11.9219" y2="22" gradientUnits="userSpaceOnUse">
<stop stop-color="#FF0420"/>
<stop offset="1" stop-color="#BD2738"/>
</linearGradient>
</defs>
</svg>
