<svg width="25" height="24" viewBox="0 0 25 24" fill="none" xmlns="http://www.w3.org/2000/svg">
<path d="M15.8672 4C17.9889 4 20.0238 4.84285 21.524 6.34315C23.0243 7.84344 23.8672 9.87827 23.8672 12C23.8672 14.1217 23.0243 16.1566 21.524 17.6569C20.0238 19.1571 17.9889 20 15.8672 20C13.7455 20 11.7106 19.1571 10.2103 17.6569C8.71004 16.1566 7.86719 14.1217 7.86719 12C7.86719 9.87827 8.71004 7.84344 10.2103 6.34315C11.7106 4.84285 13.7455 4 15.8672 4ZM15.8672 18C17.4585 18 18.9846 17.3679 20.1098 16.2426C21.235 15.1174 21.8672 13.5913 21.8672 12C21.8672 10.4087 21.235 8.88258 20.1098 7.75736C18.9846 6.63214 17.4585 6 15.8672 6C14.2759 6 12.7498 6.63214 11.6245 7.75736C10.4993 8.88258 9.86719 10.4087 9.86719 12C9.86719 13.5913 10.4993 15.1174 11.6245 16.2426C12.7498 17.3679 14.2759 18 15.8672 18ZM3.86719 12C3.86714 13.2399 4.25189 14.4493 4.96835 15.4613C5.68481 16.4733 6.69767 17.2381 7.86719 17.65V19.74C4.41719 18.85 1.86719 15.73 1.86719 12C1.86719 8.27 4.41719 5.15 7.86719 4.26V6.35C5.53719 7.17 3.86719 9.39 3.86719 12Z" fill="url(#paint0_linear_8792_94809)"/>
<defs>
<linearGradient id="paint0_linear_8792_94809" x1="12.8672" y1="4" x2="12.8672" y2="20" gradientUnits="userSpaceOnUse">
<stop stop-color="#FF0420"/>
<stop offset="1" stop-color="#BD2738"/>
</linearGradient>
</defs>
</svg>
