<svg width="106" height="104" viewBox="0 0 106 104" fill="none" xmlns="http://www.w3.org/2000/svg">
<g clip-path="url(#clip0_8792_94923)">
<path d="M53.1747 103.624C82.0418 103.624 105.443 80.4272 105.443 51.8121C105.443 23.1971 82.0418 0 53.1747 0C24.3076 0 0.90625 23.1971 0.90625 51.8121C0.90625 80.4272 24.3076 103.624 53.1747 103.624Z" fill="url(#paint0_linear_8792_94923)"/>
<g clip-path="url(#clip1_8792_94923)">
<path d="M31.9444 42.8629L34.4375 59.7141H70.8503L73.3291 42.617L63.3424 51.2513L52.6067 37.4507L41.4307 51.2056L31.9444 42.8629ZM60.6435 38.4685L60.4205 38.6601L60.8236 38.7001L64.1601 42.9858L68.2686 39.4349L68.6688 39.4749L68.4916 39.2405L75.3905 33.2765C75.8315 32.896 76.3782 32.6593 76.9574 32.598C77.5367 32.5368 78.1208 32.6539 78.6317 32.9337C79.1426 33.2135 79.5558 33.6427 79.816 34.1639C80.0762 34.685 80.1711 35.2731 80.0879 35.8497L75.7993 65.4322H29.5028L25.1485 35.984C25.062 35.4043 25.1558 34.812 25.4171 34.2874C25.6784 33.7627 26.0947 33.3311 26.6095 33.0509C27.1243 32.7707 27.7128 32.6555 28.2953 32.7209C28.8778 32.7864 29.4261 33.0292 29.8659 33.4166L36.4446 39.2062L36.3016 39.3777L36.6133 39.3548L40.7417 42.9858L44.2069 38.7173L44.5185 38.6915L44.347 38.5429L50.4396 31.055C50.711 30.7214 51.0541 30.4533 51.4435 30.2707C51.8329 30.0881 52.2585 29.9957 52.6885 30.0004C53.1185 30.0051 53.542 30.1067 53.9273 30.2977C54.3126 30.4887 54.6499 30.7642 54.914 31.1036L60.6435 38.4685ZM29.7258 68.2912H75.4705V71.1503C75.4705 71.9085 75.1693 72.6357 74.6331 73.1719C74.0969 73.7081 73.3697 74.0093 72.6115 74.0093H32.5849C31.8266 74.0093 31.0994 73.7081 30.5632 73.1719C30.027 72.6357 29.7258 71.9085 29.7258 71.1503V68.2912Z" fill="white"/>
</g>
</g>
<defs>
<linearGradient id="paint0_linear_8792_94923" x1="87.2366" y1="9.6068" x2="15.1164" y2="100.55" gradientUnits="userSpaceOnUse">
<stop stop-color="#DB0420"/>
<stop offset="1" stop-color="#852738"/>
</linearGradient>
<clipPath id="clip0_8792_94923">
<rect width="104.916" height="104" fill="white" transform="translate(0.90625)"/>
</clipPath>
<clipPath id="clip1_8792_94923">
<rect width="55.4844" height="55" fill="white" transform="translate(25.1172 25)"/>
</clipPath>
</defs>
</svg>
