<svg width="25" height="24" viewBox="0 0 25 24" fill="none" xmlns="http://www.w3.org/2000/svg">
<path d="M12.6953 3C15.0093 3 17.1513 3.408 18.7533 4.109C19.5523 4.459 20.2623 4.901 20.7853 5.443C21.2703 5.943 21.6303 6.571 21.6873 7.299L21.6953 7.5V17.5C21.6953 18.314 21.3143 19.01 20.7853 19.557C20.2623 20.099 19.5523 20.541 18.7533 20.891C17.1513 21.591 15.0093 22 12.6953 22C10.3813 22 8.23931 21.592 6.63731 20.891C5.83831 20.541 5.12831 20.099 4.60531 19.557C4.12031 19.057 3.76031 18.429 3.70331 17.701L3.69531 17.5V7.5C3.69531 6.686 4.07631 5.99 4.60531 5.443C5.12831 4.901 5.83831 4.459 6.63731 4.109C8.23931 3.409 10.3813 3 12.6953 3ZM19.6953 15.407C19.3922 15.5886 19.0775 15.7503 18.7533 15.891C17.1513 16.591 15.0093 17 12.6953 17C10.3813 17 8.23931 16.592 6.63731 15.891C6.31312 15.7503 5.99845 15.5887 5.69531 15.407V17.5C5.69531 17.652 5.76131 17.876 6.04331 18.167C6.32931 18.463 6.79131 18.775 7.43931 19.059C8.73331 19.625 10.5903 20 12.6953 20C14.8003 20 16.6573 19.625 17.9513 19.059C18.5993 18.775 19.0613 18.463 19.3473 18.167C19.6293 17.877 19.6953 17.652 19.6953 17.5V15.407ZM19.6953 10.407C19.3922 10.5886 19.0775 10.7503 18.7533 10.891C17.1513 11.591 15.0093 12 12.6953 12C10.3813 12 8.23931 11.592 6.63731 10.891C6.31312 10.7503 5.99845 10.5887 5.69531 10.407V12.5C5.69531 12.652 5.76131 12.876 6.04331 13.167C6.32931 13.463 6.79131 13.775 7.43931 14.059C8.73331 14.625 10.5903 15 12.6953 15C14.8003 15 16.6573 14.625 17.9513 14.059C18.5993 13.775 19.0613 13.463 19.3473 13.167C19.6293 12.877 19.6953 12.652 19.6953 12.5V10.407ZM12.6953 5C10.5903 5 8.73331 5.375 7.43931 5.941C6.79131 6.225 6.32931 6.537 6.04331 6.833C5.76131 7.123 5.69531 7.348 5.69531 7.5C5.69531 7.652 5.76131 7.876 6.04331 8.167C6.32931 8.463 6.79131 8.775 7.43931 9.059C8.73331 9.625 10.5903 10 12.6953 10C14.8003 10 16.6573 9.625 17.9513 9.059C18.5993 8.775 19.0613 8.463 19.3473 8.167C19.6293 7.877 19.6953 7.652 19.6953 7.5C19.6953 7.348 19.6293 7.124 19.3473 6.833C19.0613 6.537 18.5993 6.225 17.9513 5.941C16.6573 5.375 14.8003 5 12.6953 5Z" fill="url(#paint0_linear_9451_46911)"/>
<defs>
<linearGradient id="paint0_linear_9451_46911" x1="12.6953" y1="3" x2="12.6953" y2="22" gradientUnits="userSpaceOnUse">
<stop stop-color="#FF0420"/>
<stop offset="1" stop-color="#BD2738"/>
</linearGradient>
</defs>
</svg>
