<svg width="65" height="64" viewBox="0 0 65 64" fill="none" xmlns="http://www.w3.org/2000/svg">
<g clip-path="url(#clip0_8792_94877)">
<path d="M32.7047 63.8845C50.3139 63.8845 64.5891 49.6094 64.5891 32.0001C64.5891 14.3908 50.3139 0.115723 32.7047 0.115723C15.0954 0.115723 0.820312 14.3908 0.820312 32.0001C0.820312 49.6094 15.0954 63.8845 32.7047 63.8845Z" fill="white"/>
<path d="M38.315 28.9569L40.4531 30.855L47.7656 24.7244V14.76L45.5213 16.385C45.14 16.6621 44.7592 16.9398 44.3787 17.2181C43.9746 17.5136 43.5698 17.8083 43.1644 18.1025L42.8906 18.305C40.8594 19.7825 38.5569 21.4569 36.4331 23.2975C36.3281 23.3888 36.2231 23.4775 36.1206 23.5663C35.3431 24.2256 34.4619 24.9719 33.9606 26.1913C33.4337 27.47 33.3981 28.9106 33.8713 30.1444C34.5369 31.8888 35.9425 32.9444 37.1838 33.875C37.4506 34.0756 37.7025 34.265 37.9406 34.4556C39.5294 35.7281 41.1513 37.0094 42.72 38.2481L44.5631 39.7056V43.0675L33.5312 34.38L33.54 37.9056L47.3869 48.9313V38.3363L46.8512 37.9119C46.0575 37.2823 45.2633 36.6542 44.4688 36.0275C42.9062 34.7919 41.2856 33.5138 39.705 32.2469C39.4325 32.0281 39.1506 31.8169 38.8781 31.6119C37.8531 30.8425 36.885 30.1156 36.5112 29.135C36.295 28.5675 36.3169 27.885 36.5737 27.2663C36.8131 26.6844 37.3137 26.2606 37.9487 25.7238C38.0619 25.6281 38.175 25.5325 38.2875 25.4344C40.32 23.6731 42.5706 22.0363 44.5563 20.5919L44.83 20.3931L44.9406 20.3125V23.405L38.315 28.9569Z" fill="url(#paint0_linear_8792_94877)"/>
<path d="M31.9819 29.515L31.9731 25.9894L18.1225 14.9625V25.5575L18.6581 25.9819C19.4519 26.6111 20.246 27.2392 21.0406 27.8663C22.6031 29.1019 24.2238 30.3807 25.8044 31.6469C26.0769 31.8657 26.3588 32.0769 26.6313 32.2819C27.6562 33.0513 28.6244 33.7782 28.9981 34.7588C29.2144 35.3263 29.1925 36.0088 28.9356 36.6275C28.6962 37.2094 28.1956 37.6331 27.5606 38.17C27.4475 38.2656 27.3344 38.3613 27.2219 38.4594C25.1894 40.2206 22.9388 41.8575 20.9531 43.3019L20.6825 43.5L20.575 43.5813V40.4888L27.2 34.9369L25.0625 33.0388L17.75 39.1694V49.1338L19.9944 47.5088C20.3756 47.2317 20.7565 46.954 21.1369 46.6756C21.5415 46.3798 21.9463 46.085 22.3513 45.7913L22.625 45.5919C24.6506 44.1113 26.9531 42.4375 29.075 40.5963C29.18 40.505 29.285 40.4163 29.3875 40.3275C30.165 39.6681 31.0463 38.9219 31.5475 37.7025C32.0744 36.4238 32.1069 34.9831 31.6369 33.7494C30.9713 32.005 29.5656 30.9494 28.3244 30.0188C28.0575 29.8181 27.8056 29.6288 27.5675 29.4382C25.9788 28.1657 24.3569 26.8844 22.7881 25.6456L20.95 24.1875V20.8281L31.9819 29.515Z" fill="url(#paint1_linear_8792_94877)"/>
</g>
<defs>
<linearGradient id="paint0_linear_8792_94877" x1="33.5275" y1="31.8456" x2="47.765" y2="31.8456" gradientUnits="userSpaceOnUse">
<stop stop-color="#FF0420"/>
<stop offset="1" stop-color="#BD2738"/>
</linearGradient>
<linearGradient id="paint1_linear_8792_94877" x1="17.7444" y1="32.0481" x2="31.9819" y2="32.0481" gradientUnits="userSpaceOnUse">
<stop stop-color="#FF0420"/>
<stop offset="1" stop-color="#BD2738"/>
</linearGradient>
<clipPath id="clip0_8792_94877">
<rect width="64" height="64" fill="white" transform="translate(0.703125)"/>
</clipPath>
</defs>
</svg>
