<svg width="106" height="106" viewBox="0 0 106 106" fill="none" xmlns="http://www.w3.org/2000/svg">
<g clip-path="url(#clip0_8792_94865)">
<path d="M52.62 103.812C81.4871 103.812 104.889 80.6151 104.889 52.0001C104.889 23.3851 81.4871 0.187988 52.62 0.187988C23.753 0.187988 0.351562 23.3851 0.351562 52.0001C0.351562 80.6151 23.753 103.812 52.62 103.812Z" fill="url(#paint0_linear_8792_94865)"/>
<path d="M61.8186 47.0549L65.3237 50.1394L77.3112 40.1771V23.985L73.6319 26.6256C73.0069 27.0759 72.3826 27.5271 71.759 27.9794C71.0965 28.4595 70.4329 28.9385 69.7683 29.4165L69.3195 29.7456C65.9897 32.1465 62.2151 34.8674 58.7336 37.8584C58.5615 38.0067 58.3894 38.1509 58.2214 38.2951C56.9468 39.3666 55.5021 40.5793 54.6804 42.5608C53.8167 44.6387 53.7583 46.9797 54.5339 48.9846C55.6251 51.8192 57.9294 53.5346 59.9642 55.0469C60.4016 55.3729 60.8145 55.6806 61.2049 55.9904C63.8094 58.0582 66.4681 60.1402 69.0398 62.1532L72.0613 64.5216V69.9847L53.9766 55.8675L53.9909 61.5966L76.6903 79.5133V62.2964L75.8122 61.6068C74.511 60.5837 73.2091 59.563 71.9065 58.5447C69.3451 56.5368 66.6884 54.4598 64.0973 52.4012C63.6506 52.0457 63.1885 51.7024 62.7418 51.3693C61.0615 50.119 59.4744 48.9379 58.8617 47.3444C58.5072 46.4222 58.5431 45.3131 58.9642 44.3076C59.3566 43.3621 60.1773 42.6735 61.2182 41.8011C61.4037 41.6457 61.5891 41.4903 61.7735 41.3308C65.1054 38.4688 68.7949 35.8089 72.05 33.4618L72.4988 33.1388L72.6801 33.0078V38.0331L61.8186 47.0549Z" fill="white"/>
<path d="M51.4399 47.9619L51.4255 42.2328L28.72 24.3141V41.531L29.5981 42.2206C30.8993 43.243 32.2012 44.2637 33.5037 45.2827C36.0652 47.2906 38.7219 49.3685 41.313 51.4262C41.7597 51.7817 42.2218 52.1249 42.6685 52.4581C44.3488 53.7083 45.9359 54.8895 46.5486 56.483C46.9031 57.4052 46.8672 58.5142 46.4461 59.5197C46.0537 60.4653 45.233 61.1539 44.1921 62.0263C44.0066 62.1817 43.8212 62.3371 43.6367 62.4965C40.3048 65.3585 36.6154 68.0185 33.3603 70.3656L32.9167 70.6875L32.7404 70.8196V65.7942L43.6009 56.7724L40.0969 53.688L28.1094 63.6503V79.8424L31.7886 77.2017C32.4136 76.7515 33.0379 76.3002 33.6615 75.8479C34.3248 75.3672 34.9883 74.8881 35.6523 74.4108L36.101 74.0868C39.4217 71.6808 43.1962 68.961 46.6746 65.9689C46.8467 65.8206 47.0189 65.6764 47.1869 65.5322C48.4614 64.4607 49.9061 63.2481 50.7278 61.2666C51.5915 59.1886 51.6448 56.8476 50.8743 54.8428C49.7831 52.0081 47.4789 50.2928 45.4441 48.7805C45.0066 48.4545 44.5937 48.1467 44.2033 47.837C41.5989 45.7692 38.9401 43.6871 36.3684 41.6742L33.3552 39.3047V33.8457L51.4399 47.9619Z" fill="white"/>
</g>
<defs>
<linearGradient id="paint0_linear_8792_94865" x1="86.6819" y1="9.79478" x2="14.5618" y2="100.738" gradientUnits="userSpaceOnUse">
<stop stop-color="#DB0420"/>
<stop offset="1" stop-color="#852738"/>
</linearGradient>
<clipPath id="clip0_8792_94865">
<rect width="104.916" height="105.881" fill="white" transform="translate(0.164062)"/>
</clipPath>
</defs>
</svg>
