<svg width="25" height="25" viewBox="0 0 25 25" fill="none" xmlns="http://www.w3.org/2000/svg">
<path d="M5.43438 12.5H8.35938C8.54271 12.5 8.71771 12.546 8.88438 12.638C9.05104 12.73 9.17604 12.8673 9.25938 13.05L10.3594 15.25L13.4594 9.05C13.6427 8.66667 13.9427 8.475 14.3594 8.475C14.776 8.475 15.076 8.66667 15.2594 9.05L16.9844 12.5H19.2844C19.0344 10.8 18.2594 9.375 16.9594 8.225C15.6594 7.075 14.126 6.5 12.3594 6.5C10.5927 6.5 9.05938 7.075 7.75938 8.225C6.45938 9.375 5.68438 10.8 5.43438 12.5ZM12.3594 20.5C14.126 20.5 15.6594 19.925 16.9594 18.775C18.2594 17.625 19.0344 16.2 19.2844 14.5H16.3594C16.176 14.5 16.001 14.454 15.8344 14.362C15.6677 14.27 15.5427 14.1327 15.4594 13.95L14.3594 11.75L11.2594 17.95C11.076 18.3333 10.776 18.525 10.3594 18.525C9.94271 18.525 9.64271 18.3333 9.45938 17.95L7.73438 14.5H5.43438C5.68438 16.2 6.45938 17.625 7.75938 18.775C9.05938 19.925 10.5927 20.5 12.3594 20.5ZM12.3594 22.5C11.126 22.5 9.96338 22.2623 8.87138 21.787C7.77938 21.3117 6.82538 20.666 6.00938 19.85C5.19271 19.0333 4.54671 18.079 4.07138 16.987C3.59604 15.895 3.35871 14.7327 3.35938 13.5H5.35938C5.35938 15.4333 6.04271 17.0833 7.40938 18.45C8.77604 19.8167 10.426 20.5 12.3594 20.5C14.2927 20.5 15.9427 19.8167 17.3094 18.45C18.676 17.0833 19.3594 15.4333 19.3594 13.5H21.3594C21.3594 14.7333 21.1217 15.896 20.6464 16.988C20.171 18.08 19.5254 19.034 18.7094 19.85C17.8927 20.6667 16.9384 21.3127 15.8464 21.788C14.7544 22.2633 13.592 22.5007 12.3594 22.5ZM3.35938 13.5C3.35938 12.2667 3.59704 11.104 4.07238 10.012C4.54771 8.92 5.19338 7.966 6.00938 7.15C6.82604 6.33333 7.78038 5.68733 8.87238 5.212C9.96438 4.73667 11.1267 4.49933 12.3594 4.5C13.3927 4.5 14.3844 4.66667 15.3344 5C16.2844 5.33333 17.176 5.81667 18.0094 6.45L19.4094 5.05L20.8094 6.45L19.4094 7.85C20.0427 8.68333 20.526 9.575 20.8594 10.525C21.1927 11.475 21.3594 12.4667 21.3594 13.5H19.3594C19.3594 11.5667 18.676 9.91667 17.3094 8.55C15.9427 7.18333 14.2927 6.5 12.3594 6.5C10.426 6.5 8.77604 7.18333 7.40938 8.55C6.04271 9.91667 5.35938 11.5667 5.35938 13.5H3.35938ZM9.35938 3.5V1.5H15.3594V3.5H9.35938ZM12.3594 20.5C10.426 20.5 8.77604 19.8167 7.40938 18.45C6.04271 17.0833 5.35938 15.4333 5.35938 13.5C5.35938 11.5667 6.04271 9.91667 7.40938 8.55C8.77604 7.18333 10.426 6.5 12.3594 6.5C14.2927 6.5 15.9427 7.18333 17.3094 8.55C18.676 9.91667 19.3594 11.5667 19.3594 13.5C19.3594 15.4333 18.676 17.0833 17.3094 18.45C15.9427 19.8167 14.2927 20.5 12.3594 20.5Z" fill="url(#paint0_linear_9451_17459)"/>
<defs>
<linearGradient id="paint0_linear_9451_17459" x1="12.3594" y1="1.5" x2="12.3594" y2="22.5" gradientUnits="userSpaceOnUse">
<stop stop-color="#FF0420"/>
<stop offset="1" stop-color="#BD2738"/>
</linearGradient>
</defs>
</svg>
