<svg width="25" height="24" viewBox="0 0 25 24" fill="none" xmlns="http://www.w3.org/2000/svg">
<path d="M16.0625 2C13.3025 2 11.0625 4.24 11.0625 7C11.0625 9.76 13.3025 12 16.0625 12C18.8225 12 21.0625 9.76 21.0625 7C21.0625 4.24 18.8225 2 16.0625 2ZM16.0625 10C14.4025 10 13.0625 8.66 13.0625 7C13.0625 5.34 14.4025 4 16.0625 4C17.7225 4 19.0625 5.34 19.0625 7C19.0625 8.66 17.7225 10 16.0625 10ZM19.0625 16H17.0625C17.0625 14.8 16.3125 13.72 15.1925 13.3L9.0325 11H1.0625V22H7.0625V20.56L14.0625 22.5L22.0625 20V19C22.0625 17.34 20.7225 16 19.0625 16ZM5.0625 20H3.0625V13H5.0625V20ZM14.0325 20.41L7.0625 18.5V13H8.6725L14.4925 15.17C14.8325 15.3 15.0625 15.63 15.0625 16C15.0625 16 13.0625 15.95 12.7625 15.85L10.3825 15.06L9.7525 16.96L12.1325 17.75C12.6425 17.92 13.1725 18 13.7125 18H19.0625C19.4525 18 19.8025 18.24 19.9625 18.57L14.0325 20.41Z" fill="url(#paint0_linear_9451_40854)"/>
<defs>
<linearGradient id="paint0_linear_9451_40854" x1="11.5625" y1="2" x2="11.5625" y2="22.5" gradientUnits="userSpaceOnUse">
<stop stop-color="#FF0420"/>
<stop offset="1" stop-color="#BD2738"/>
</linearGradient>
</defs>
</svg>
