<svg width="25" height="24" viewBox="0 0 25 24" fill="none" xmlns="http://www.w3.org/2000/svg">
<g clip-path="url(#clip0_9019_68843)">
<path d="M2.92188 9C3.23438 9 3.52734 9.05859 3.80078 9.17578C4.07422 9.29297 4.3125 9.45312 4.51562 9.65625C4.71875 9.85938 4.87891 10.0977 4.99609 10.3711C5.11328 10.6445 5.17188 10.9375 5.17188 11.25V12.75C5.17188 13.0625 5.11328 13.3555 4.99609 13.6289C4.87891 13.9023 4.71875 14.1406 4.51562 14.3438C4.3125 14.5469 4.07422 14.707 3.80078 14.8242C3.52734 14.9414 3.23438 15 2.92188 15C2.60938 15 2.31641 14.9414 2.04297 14.8242C1.76953 14.707 1.53125 14.5469 1.32812 14.3438C1.125 14.1406 0.964844 13.9023 0.847656 13.6289C0.730469 13.3555 0.671875 13.0625 0.671875 12.75V11.25C0.671875 10.9375 0.730469 10.6445 0.847656 10.3711C0.964844 10.0977 1.125 9.85938 1.32812 9.65625C1.53125 9.45312 1.76953 9.29297 2.04297 9.17578C2.31641 9.05859 2.60938 9 2.92188 9ZM3.67188 12.9375V11.0625C3.67188 10.8594 3.59766 10.6836 3.44922 10.5352C3.30078 10.3867 3.125 10.3125 2.92188 10.3125C2.71875 10.3125 2.54297 10.3867 2.39453 10.5352C2.24609 10.6836 2.17188 10.8594 2.17188 11.0625V12.9375C2.17188 13.1406 2.24609 13.3164 2.39453 13.4648C2.54297 13.6133 2.71875 13.6875 2.92188 13.6875C3.125 13.6875 3.30078 13.6133 3.44922 13.4648C3.59766 13.3164 3.67188 13.1406 3.67188 12.9375ZM8.92188 9C9.23438 9 9.52734 9.05859 9.80078 9.17578C10.0742 9.29297 10.3125 9.45312 10.5156 9.65625C10.7188 9.85938 10.8789 10.0977 10.9961 10.3711C11.1133 10.6445 11.1719 10.9375 11.1719 11.25V12.75C11.1719 13.0625 11.1133 13.3555 10.9961 13.6289C10.8789 13.9023 10.7188 14.1406 10.5156 14.3438C10.3125 14.5469 10.0742 14.707 9.80078 14.8242C9.52734 14.9414 9.23438 15 8.92188 15C8.60938 15 8.31641 14.9414 8.04297 14.8242C7.76953 14.707 7.53125 14.5469 7.32812 14.3438C7.125 14.1406 6.96484 13.9023 6.84766 13.6289C6.73047 13.3555 6.67188 13.0625 6.67188 12.75V11.25C6.67188 10.9375 6.73047 10.6445 6.84766 10.3711C6.96484 10.0977 7.125 9.85938 7.32812 9.65625C7.53125 9.45312 7.76953 9.29297 8.04297 9.17578C8.31641 9.05859 8.60938 9 8.92188 9ZM9.67188 12.9375V11.0625C9.67188 10.8594 9.59766 10.6836 9.44922 10.5352C9.30078 10.3867 9.125 10.3125 8.92188 10.3125C8.71875 10.3125 8.54297 10.3867 8.39453 10.5352C8.24609 10.6836 8.17188 10.8594 8.17188 11.0625V12.9375C8.17188 13.1406 8.24609 13.3164 8.39453 13.4648C8.54297 13.6133 8.71875 13.6875 8.92188 13.6875C9.125 13.6875 9.30078 13.6133 9.44922 13.4648C9.59766 13.3164 9.67188 13.1406 9.67188 12.9375ZM16.4219 9C16.7344 9 17.0273 9.05859 17.3008 9.17578C17.5742 9.29297 17.8125 9.45312 18.0156 9.65625C18.2188 9.85938 18.3789 10.0977 18.4961 10.3711C18.6133 10.6445 18.6719 10.9375 18.6719 11.25V12.75C18.6719 13.0625 18.6133 13.3555 18.4961 13.6289C18.3789 13.9023 18.2188 14.1406 18.0156 14.3438C17.8125 14.5469 17.5742 14.707 17.3008 14.8242C17.0273 14.9414 16.7344 15 16.4219 15C16.1094 15 15.8164 14.9414 15.543 14.8242C15.2695 14.707 15.0312 14.5469 14.8281 14.3438C14.625 14.1406 14.4648 13.9023 14.3477 13.6289C14.2305 13.3555 14.1719 13.0625 14.1719 12.75V11.25C14.1719 10.9375 14.2305 10.6445 14.3477 10.3711C14.4648 10.0977 14.625 9.85938 14.8281 9.65625C15.0312 9.45312 15.2695 9.29297 15.543 9.17578C15.8164 9.05859 16.1094 9 16.4219 9ZM17.1719 12.9375V11.0625C17.1719 10.8594 17.0977 10.6836 16.9492 10.5352C16.8008 10.3867 16.625 10.3125 16.4219 10.3125C16.2188 10.3125 16.043 10.3867 15.8945 10.5352C15.7461 10.6836 15.6719 10.8594 15.6719 11.0625V12.9375C15.6719 13.1406 15.7461 13.3164 15.8945 13.4648C16.043 13.6133 16.2188 13.6875 16.4219 13.6875C16.625 13.6875 16.8008 13.6133 16.9492 13.4648C17.0977 13.3164 17.1719 13.1406 17.1719 12.9375ZM22.4219 9C22.7344 9 23.0273 9.05859 23.3008 9.17578C23.5742 9.29297 23.8125 9.45312 24.0156 9.65625C24.2188 9.85938 24.3789 10.0977 24.4961 10.3711C24.6133 10.6445 24.6719 10.9375 24.6719 11.25V12.75C24.6719 13.0625 24.6133 13.3555 24.4961 13.6289C24.3789 13.9023 24.2188 14.1406 24.0156 14.3438C23.8125 14.5469 23.5742 14.707 23.3008 14.8242C23.0273 14.9414 22.7344 15 22.4219 15C22.1094 15 21.8164 14.9414 21.543 14.8242C21.2695 14.707 21.0312 14.5469 20.8281 14.3438C20.625 14.1406 20.4648 13.9023 20.3477 13.6289C20.2305 13.3555 20.1719 13.0625 20.1719 12.75V11.25C20.1719 10.9375 20.2305 10.6445 20.3477 10.3711C20.4648 10.0977 20.625 9.85938 20.8281 9.65625C21.0312 9.45312 21.2695 9.29297 21.543 9.17578C21.8164 9.05859 22.1094 9 22.4219 9ZM23.1719 12.9375V11.0625C23.1719 10.8594 23.0977 10.6836 22.9492 10.5352C22.8008 10.3867 22.625 10.3125 22.4219 10.3125C22.2188 10.3125 22.043 10.3867 21.8945 10.5352C21.7461 10.6836 21.6719 10.8594 21.6719 11.0625V12.9375C21.6719 13.1406 21.7461 13.3164 21.8945 13.4648C22.043 13.6133 22.2188 13.6875 22.4219 13.6875C22.625 13.6875 22.8008 13.6133 22.9492 13.4648C23.0977 13.3164 23.1719 13.1406 23.1719 12.9375ZM12.6719 12C12.4688 12 12.293 11.9258 12.1445 11.7773C11.9961 11.6289 11.9219 11.4531 11.9219 11.25C11.9219 11.0469 11.9961 10.8711 12.1445 10.7227C12.293 10.5742 12.4688 10.5 12.6719 10.5C12.875 10.5 13.0508 10.5742 13.1992 10.7227C13.3477 10.8711 13.4219 11.0469 13.4219 11.25C13.4219 11.4531 13.3477 11.6289 13.1992 11.7773C13.0508 11.9258 12.875 12 12.6719 12ZM12.6719 15C12.4688 15 12.293 14.9258 12.1445 14.7773C11.9961 14.6289 11.9219 14.4531 11.9219 14.25C11.9219 14.0469 11.9961 13.8711 12.1445 13.7227C12.293 13.5742 12.4688 13.5 12.6719 13.5C12.875 13.5 13.0508 13.5742 13.1992 13.7227C13.3477 13.8711 13.4219 14.0469 13.4219 14.25C13.4219 14.4531 13.3477 14.6289 13.1992 14.7773C13.0508 14.9258 12.875 15 12.6719 15ZM17.3945 7.27734L12.6719 2.56641L7.94922 7.27734L6.89453 6.22266L12.6719 0.433594L18.4492 6.22266L17.3945 7.27734ZM12.6719 23.5664L6.89453 17.7773L7.94922 16.7227L12.6719 21.4336L17.3945 16.7227L18.4492 17.7773L12.6719 23.5664Z" fill="url(#paint0_linear_9019_68843)"/>
</g>
<defs>
<linearGradient id="paint0_linear_9019_68843" x1="12.6719" y1="0.433594" x2="12.6719" y2="23.5664" gradientUnits="userSpaceOnUse">
<stop stop-color="#FF0420"/>
<stop offset="1" stop-color="#BD2738"/>
</linearGradient>
<clipPath id="clip0_9019_68843">
<rect width="24" height="24" fill="white" transform="translate(0.59375)"/>
</clipPath>
</defs>
</svg>
