<svg width="15" height="12" viewBox="0 0 15 12" fill="none" xmlns="http://www.w3.org/2000/svg">
<path d="M5.51293 0.501895C5.51293 0.501895 3.43669 0.643412 2.07886 1.72501C2.07249 1.72753 2.06485 1.73133 2.05848 1.73512C1.82284 1.95118 1.64578 2.28602 1.42669 2.76617C1.20761 3.24632 0.975783 3.86419 0.764338 4.55535C0.342722 5.93893 7.96924e-05 7.63714 7.96924e-05 9.23552C-0.00119399 9.29238 0.0128175 9.34798 0.0408401 9.39726C0.517228 10.2274 1.39358 10.729 2.21133 11.0449C3.02909 11.3608 3.78443 11.4872 4.16783 11.4998C4.2761 11.5036 4.37928 11.4543 4.44297 11.3684L5.2378 10.2767C5.8785 10.427 6.63002 10.5294 7.5 10.5294C8.36998 10.5294 9.1215 10.427 9.7622 10.2767L10.557 11.3684C10.6207 11.4543 10.7239 11.5036 10.8322 11.4998C11.2156 11.4872 11.9709 11.3608 12.7887 11.0449C13.6064 10.729 14.4828 10.2274 14.9592 9.39726C14.9872 9.34798 15.0012 9.29238 14.9999 9.23552C14.9999 7.63714 14.6573 5.93893 14.2357 4.55535C14.0242 3.86419 13.7924 3.24632 13.5733 2.76617C13.3542 2.28602 13.1772 1.95118 12.9415 1.73512C12.9351 1.73133 12.9275 1.72753 12.9211 1.72501C11.5633 0.643412 9.48707 0.501895 9.48707 0.501895C9.46287 0.499368 9.43994 0.499368 9.41574 0.501895C9.30237 0.517058 9.20684 0.590344 9.16099 0.693954C9.16099 0.693954 9.05017 0.935291 8.97757 1.28024C8.34196 1.17916 7.80698 1.14883 7.5 1.14883C7.19302 1.14883 6.65804 1.17916 6.02243 1.28024C5.94983 0.935291 5.83901 0.693954 5.83901 0.693954C5.78297 0.5676 5.65177 0.490523 5.51293 0.501895ZM5.30913 1.19937C5.33333 1.26508 5.34989 1.32699 5.37027 1.40154C4.63531 1.57086 3.83029 1.84757 3.07749 2.31129C2.95903 2.36057 2.88133 2.47429 2.87751 2.60191C2.87496 2.72826 2.94757 2.84577 3.06221 2.90137C3.17812 2.9557 3.31569 2.93927 3.41377 2.85714C4.92445 1.92844 6.84656 1.79577 7.5 1.79577C8.15344 1.79577 10.0756 1.92844 11.5862 2.85714C11.6843 2.93927 11.8219 2.9557 11.9378 2.90137C12.0524 2.84577 12.125 2.72826 12.1225 2.60191C12.1187 2.47429 12.041 2.36057 11.9225 2.31129C11.1697 1.84757 10.3647 1.57086 9.62973 1.40154C9.65011 1.32699 9.66667 1.26508 9.69087 1.19937C10.0628 1.24486 11.5085 1.43818 12.4932 2.21021C12.5568 2.26833 12.7785 2.5918 12.9823 3.03909C13.1861 3.48639 13.4001 4.06888 13.6039 4.7373C14.0013 6.04128 14.3223 7.64977 14.3376 9.12433C13.9669 9.71946 13.2714 10.1617 12.5543 10.4384C11.9021 10.6899 11.2933 10.8023 10.9748 10.8326L10.4246 10.0947C10.7048 10.005 10.957 9.90773 11.1786 9.8117C12.0015 9.45285 12.4422 9.07379 12.4422 9.07379C12.5772 8.95375 12.5887 8.7478 12.4677 8.61386C12.3467 8.47992 12.139 8.46855 12.004 8.58859C12.004 8.58859 11.6627 8.89816 10.9137 9.22542C10.6386 9.34545 10.3048 9.46422 9.92525 9.5691C9.83736 9.55899 9.74947 9.58426 9.68068 9.63986C9.0731 9.78643 8.35087 9.88246 7.5 9.88246C6.64276 9.88246 5.91926 9.77758 5.30913 9.62975C5.24034 9.58426 5.15627 9.56531 5.07475 9.57921C4.6939 9.47433 4.36272 9.34545 4.08631 9.22542C3.33734 8.89816 2.99597 8.58859 2.99597 8.58859C2.92209 8.52036 2.82019 8.49129 2.72084 8.50772C2.59474 8.52667 2.49029 8.61639 2.4559 8.73895C2.42023 8.86025 2.46099 8.99166 2.5578 9.07379C2.5578 9.07379 2.99852 9.45285 3.82137 9.8117C4.04301 9.90773 4.29521 10.005 4.57544 10.0947L4.02517 10.8326C3.70673 10.8023 3.09787 10.6899 2.44571 10.4384C1.72858 10.1617 1.0331 9.71946 0.662437 9.12433C0.677722 7.64977 0.99871 6.04128 1.39612 4.7373C1.59993 4.06888 1.81392 3.48639 2.01772 3.03909C2.22152 2.5918 2.44316 2.26833 2.50685 2.21021C3.49147 1.43818 4.93719 1.24486 5.30913 1.19937ZM5.38046 5.03044C4.54869 5.03044 3.91308 5.77973 3.91308 6.64778C3.91308 7.51584 4.54869 8.26512 5.38046 8.26512C6.21222 8.26512 6.84783 7.51584 6.84783 6.64778C6.84783 5.77973 6.21222 5.03044 5.38046 5.03044ZM9.61954 5.03044C8.78778 5.03044 8.15217 5.77973 8.15217 6.64778C8.15217 7.51584 8.78778 8.26512 9.61954 8.26512C10.4513 8.26512 11.0869 7.51584 11.0869 6.64778C11.0869 5.77973 10.4513 5.03044 9.61954 5.03044ZM5.38046 5.67738C5.80972 5.67738 6.19567 6.08677 6.19567 6.64778C6.19567 7.2088 5.80972 7.61818 5.38046 7.61818C4.9512 7.61818 4.56525 7.2088 4.56525 6.64778C4.56525 6.08677 4.9512 5.67738 5.38046 5.67738ZM9.61954 5.67738C10.0488 5.67738 10.4348 6.08677 10.4348 6.64778C10.4348 7.2088 10.0488 7.61818 9.61954 7.61818C9.19028 7.61818 8.80433 7.2088 8.80433 6.64778C8.80433 6.08677 9.19028 5.67738 9.61954 5.67738Z" fill="url(#paint0_linear_1951_464)"/>
<defs>
<linearGradient id="paint0_linear_1951_464" x1="-7.99281e-09" y1="7.34146" x2="19.2105" y2="7.34146" gradientUnits="userSpaceOnUse">
<stop stop-color="#BC2738"/>
<stop offset="1" stop-color="#6E1620"/>
</linearGradient>
</defs>
</svg>
