<svg width="13" height="15" viewBox="0 0 13 15" fill="none" xmlns="http://www.w3.org/2000/svg">
<mask id="mask0_1951_427" style="mask-type:luminance" maskUnits="userSpaceOnUse" x="0" y="0" width="13" height="15">
<path d="M12.7596 0H0.240234V15H12.7596V0Z" fill="white"/>
</mask>
<g mask="url(#mask0_1951_427)">
<path d="M5.61964 4.68337C5.61964 4.68337 5.93078 4.36123 6.49575 4.36123C7.06072 4.36123 7.37186 4.68337 7.37186 4.68337C10.8517 2.90749 11.2939 0.735132 11.2939 0.735132C10.8517 1.41244 10.1394 1.61068 10.1394 1.61068C8.77199 0.0165199 6.49575 0 6.49575 0C6.49575 0 4.22769 0.0165197 2.86031 1.60242C2.86031 1.60242 2.14796 1.40418 1.70581 0.726872C1.70581 0.735132 2.14796 2.90749 5.61964 4.68337Z" fill="url(#paint0_linear_1951_427)"/>
<path d="M3.90852 5.41823C4.44892 5.78992 5.18584 5.41823 5.18584 5.41823C5.18584 5.41823 4.14597 4.807 3.59738 4.28662C3.59738 4.28662 3.36811 5.04653 3.90852 5.41823Z" fill="url(#paint1_linear_1951_427)"/>
<path d="M6.49564 5.21167C6.49564 5.21167 5.3657 5.35209 5.3657 6.73149C5.3657 7.55748 5.3657 7.55748 5.3657 7.55748L4.51416 8.07786C4.51416 8.07786 5.58678 8.34218 6.49564 11.2249C7.4045 8.34218 8.47712 8.07786 8.47712 8.07786L7.62557 7.55748C7.62557 7.55748 7.62557 7.55748 7.62557 6.73149C7.63376 5.36035 6.49564 5.21167 6.49564 5.21167Z" fill="url(#paint2_linear_1951_427)"/>
<path d="M11.6133 8.75557C11.5068 7.2027 11.7033 3.80788 10.8845 2.72583C10.8845 2.72583 10.3851 3.4114 10.0412 3.75832C10.0412 3.75832 10.3196 4.22913 10.3196 4.85689C10.3196 5.48464 9.74642 6.39323 8.41998 6.39323L8.47729 7.14488L10.0658 8.12781C10.0658 8.12781 8.42816 8.34257 7.66669 10.3745C6.90521 12.4064 6.49581 13.9841 6.49581 13.9841C6.49581 13.9841 6.08642 12.4064 5.32494 10.3745C4.56346 8.34257 2.92588 8.12781 2.92588 8.12781L4.51433 7.14488L4.57165 6.39323C3.2452 6.39323 2.67205 5.47638 2.67205 4.85689C2.67205 4.23739 2.95044 3.75832 2.95044 3.75832C2.61473 3.4114 2.11527 2.72583 2.11527 2.72583C1.29648 3.80788 1.49299 7.2027 1.38654 8.75557C1.2801 10.3002 0.240234 12.2825 0.240234 12.2825C0.518624 12.1586 1.90238 10.8866 1.90238 10.8866L3.17151 12.8525L4.44064 11.6961L6.504 14.9835L8.56736 11.6961L9.83649 12.8525L11.1056 10.8866C11.1056 10.8866 12.4894 12.1504 12.7678 12.2825C12.7596 12.2908 11.7197 10.3002 11.6133 8.75557Z" fill="url(#paint3_linear_1951_427)"/>
<path d="M9.09104 5.41823C9.63144 5.04653 9.40218 4.28662 9.40218 4.28662C8.8454 4.807 7.81372 5.41823 7.81372 5.41823C7.81372 5.41823 8.54245 5.78166 9.09104 5.41823Z" fill="url(#paint4_linear_1951_427)"/>
</g>
<defs>
<linearGradient id="paint0_linear_1951_427" x1="1.70581" y1="2.91283" x2="13.9853" y2="2.91283" gradientUnits="userSpaceOnUse">
<stop stop-color="#BC2738"/>
<stop offset="1" stop-color="#6E1620"/>
</linearGradient>
<linearGradient id="paint1_linear_1951_427" x1="3.54907" y1="5.09317" x2="5.64528" y2="5.09317" gradientUnits="userSpaceOnUse">
<stop stop-color="#BC2738"/>
<stop offset="1" stop-color="#6E1620"/>
</linearGradient>
<linearGradient id="paint2_linear_1951_427" x1="4.51416" y1="8.9516" x2="9.58953" y2="8.9516" gradientUnits="userSpaceOnUse">
<stop stop-color="#BC2738"/>
<stop offset="1" stop-color="#6E1620"/>
</linearGradient>
<linearGradient id="paint3_linear_1951_427" x1="0.240234" y1="10.3495" x2="16.2843" y2="10.3495" gradientUnits="userSpaceOnUse">
<stop stop-color="#BC2738"/>
<stop offset="1" stop-color="#6E1620"/>
</linearGradient>
<linearGradient id="paint4_linear_1951_427" x1="7.81372" y1="5.09089" x2="9.90993" y2="5.09089" gradientUnits="userSpaceOnUse">
<stop stop-color="#BC2738"/>
<stop offset="1" stop-color="#6E1620"/>
</linearGradient>
</defs>
</svg>
