<svg width="29" height="28" viewBox="0 0 29 28" fill="none" xmlns="http://www.w3.org/2000/svg">
<path d="M21.1405 12.4247L20.3146 11.5988C19.7522 12.0569 18.7795 12.4422 18.167 12.6418C18.1393 12.6506 18.113 12.6619 18.0854 12.6719C17.9235 12.8313 17.7653 12.9995 17.6172 13.1765L18.8234 14.3827L21.079 16.6383L21.1405 16.5768C22.2864 15.4296 22.2864 13.5706 21.1405 12.4247Z" fill="url(#paint0_linear_1951_440)"/>
<path d="M21.1405 12.4247L20.3146 11.5988C19.7522 12.0569 18.7795 12.4422 18.167 12.6418C18.1393 12.6506 18.113 12.6619 18.0854 12.6719C17.9235 12.8313 17.7653 12.9995 17.6172 13.1765L18.8234 14.3827L21.079 16.6383L21.1405 16.5768C22.2864 15.4296 22.2864 13.5706 21.1405 12.4247Z" fill="url(#paint1_linear_1951_440)"/>
<path d="M10.1765 14.3814L12.5249 12.0329C12.5864 11.8648 12.6529 11.6953 12.727 11.5296C13.4349 9.94308 15.0239 9.40461 16.5189 9.37825C16.7159 9.02931 17.0887 8.7971 17.5079 8.79208L16.5753 7.85948C15.4294 6.71351 13.5705 6.71351 12.4245 7.85948L12.363 7.92099L7.9209 12.3631L10.1765 14.6186C10.1112 14.5533 10.1112 14.4467 10.1765 14.3814Z" fill="url(#paint2_linear_1951_440)"/>
<path d="M10.1765 14.3814L12.5249 12.0329C12.5864 11.8648 12.6529 11.6953 12.727 11.5296C13.4349 9.94308 15.0239 9.40461 16.5189 9.37825C16.7159 9.02931 17.0887 8.7971 17.5079 8.79208L16.5753 7.85948C15.4294 6.71351 13.5705 6.71351 12.4245 7.85948L12.363 7.92099L7.9209 12.3631L10.1765 14.6186C10.1112 14.5533 10.1112 14.4467 10.1765 14.3814Z" fill="url(#paint3_linear_1951_440)"/>
<path d="M18.2921 9.57621C18.2897 9.57372 18.2897 9.57372 18.2921 9.57621V9.57621Z" fill="url(#paint4_linear_1951_440)"/>
<path d="M18.8235 14.3814C18.8887 14.4466 18.8887 14.5533 18.8235 14.6186L16.7461 16.6959L16.2353 17.2068L14.8521 18.59L14.6186 18.8234C14.5533 18.8887 14.4467 18.8887 14.3814 18.8234L12.279 16.721L10.897 15.3391L10.1765 14.6186L7.92099 12.363L7.85948 12.4245C6.71351 13.5705 6.71351 15.4294 7.85948 16.5754L8.38164 17.0976L12.3041 21.02L12.4246 21.1405C13.5705 22.2865 15.4295 22.2865 16.5754 21.1405L16.6369 21.079L21.079 16.6369L18.8235 14.3814Z" fill="url(#paint5_linear_1951_440)"/>
<path d="M18.2901 9.57541C18.2901 9.57416 18.2901 9.57416 18.2901 9.57541C18.2085 9.39467 18.0642 9.24405 17.8721 9.15619C17.8659 9.15368 17.8608 9.14991 17.8546 9.1474C17.8295 9.1361 17.8031 9.12732 17.778 9.11853C17.7931 9.2089 17.783 9.30555 17.7441 9.39592C17.7341 9.41852 17.7215 9.43986 17.7077 9.46119C17.5784 9.67081 17.3136 9.76118 17.0814 9.66202C16.9709 9.61558 16.8868 9.53274 16.8341 9.43483C16.8002 9.48253 16.7701 9.53525 16.7462 9.59173C16.563 10.021 16.7613 10.5168 17.1906 10.7001C17.6198 10.8833 18.1156 10.685 18.2989 10.2557C18.3955 10.0285 18.3855 9.78377 18.2901 9.57541Z" fill="#242132"/>
<path d="M12.5338 12.0092C12.5312 12.0167 12.5262 12.0242 12.525 12.033C12.0894 14.335 11.8748 14.6588 10.8958 15.3391L11.2434 15.6868C11.4706 15.4621 11.797 15.0756 12.1057 14.4768C12.4861 13.7438 12.5388 12.6367 12.5338 12.0092Z" fill="url(#paint6_linear_1951_440)"/>
<path d="M17.4881 13.0157C17.4818 13.0207 17.4742 13.027 17.4692 13.0308C17.2508 13.2065 17.0462 13.4299 16.868 13.6973C16.3308 14.4993 16.022 15.698 16.2354 17.2068L16.2341 17.208C16.2341 17.208 16.2341 17.208 16.2341 17.2093L17.0525 16.406C17.0174 16.2867 16.9847 16.1625 16.9546 16.0332C16.6722 14.8382 16.8818 14.0512 17.6161 13.1789C17.7077 13.0697 17.9198 12.8525 18.1069 12.6655C18.0993 12.668 18.093 12.6705 18.0855 12.6731C17.8809 12.7484 17.6801 12.8638 17.4881 13.0157Z" fill="url(#paint7_linear_1951_440)"/>
<path d="M16.8679 13.6974C16.3307 14.4994 16.0206 15.6981 16.234 17.2081L16.2353 17.2069C16.0219 15.6981 16.3307 14.4994 16.8679 13.6974Z" fill="url(#paint8_linear_1951_440)"/>
<path d="M16.8679 13.6974C16.3307 14.4994 16.0206 15.6981 16.234 17.2081L16.2353 17.2069C16.0219 15.6981 16.3307 14.4994 16.8679 13.6974Z" fill="url(#paint9_linear_1951_440)"/>
<path d="M20.8833 10.4615C20.4026 9.78369 18.9453 9.4699 18.9453 9.4699C18.9453 9.4699 18.747 8.92013 18.2336 8.74817C17.7692 8.59379 17.0701 8.87118 17.0701 8.87118L17.0801 8.87997C17.2132 8.82474 17.3575 8.79336 17.5081 8.79085C17.5445 8.79085 17.5797 8.79085 17.6161 8.79461C18.1181 8.83603 18.5185 9.19376 18.6365 9.65567C21.0841 10.2619 21.0553 10.9937 20.3134 11.5974C20.2846 11.6213 20.2532 11.6451 20.2218 11.6677L20.2344 11.679C20.2356 11.6803 21.3439 11.1117 20.8833 10.4615Z" fill="url(#paint10_linear_1951_440)"/>
<path d="M18.6378 9.65693C18.5186 9.19503 18.1194 8.8373 17.6173 8.79588C17.5809 8.79337 17.5445 8.79211 17.5094 8.79211C17.3588 8.79337 17.2144 8.826 17.0814 8.88123C16.8454 8.98039 16.6471 9.15486 16.5216 9.37828C15.0254 9.40464 13.4376 9.94186 12.7297 11.5297C12.6594 11.6878 12.5966 11.8485 12.5364 12.0091C12.5414 12.6367 12.4874 13.745 12.1096 14.4768C11.8008 15.0755 11.4745 15.4621 11.2473 15.6868L12.2816 16.7211L14.384 18.8235C14.4493 18.8888 14.556 18.8888 14.6212 18.8235L14.8547 18.59L16.2366 17.2081C16.0233 15.6981 16.3333 14.4994 16.8705 13.6973C17.05 13.4287 17.2546 13.2053 17.473 13.0283C17.4793 13.0233 17.4843 13.0196 17.4906 13.0145C17.6814 12.8639 17.8834 12.7472 18.088 12.6706C18.0956 12.6681 18.1018 12.6656 18.1094 12.6631C18.1295 12.6556 18.1495 12.648 18.1696 12.6405C18.7495 12.451 19.6532 12.0945 20.2256 11.6677C20.257 11.6439 20.2871 11.6213 20.3172 11.5974C21.0565 10.9937 21.0854 10.2619 18.6378 9.65693ZM18.2989 10.2557C18.1156 10.6849 17.6186 10.8832 17.1906 10.7C16.7613 10.5167 16.563 10.0197 16.7462 9.59166C16.7701 9.53518 16.8002 9.48246 16.8341 9.43477C16.8868 9.53267 16.9709 9.61426 17.0814 9.66195C17.3148 9.76111 17.5797 9.67074 17.7077 9.46112C17.7102 9.4561 17.7127 9.45108 17.7165 9.44606C17.7265 9.42974 17.7366 9.41468 17.7441 9.39711C17.783 9.30674 17.7931 9.21009 17.778 9.11972C17.8044 9.1285 17.8295 9.13729 17.8546 9.14858C17.8608 9.1511 17.8659 9.15486 17.8721 9.15737C18.0642 9.24523 18.2085 9.39585 18.2901 9.57535L18.2914 9.5766C18.2914 9.5766 18.2914 9.5766 18.2901 9.5766C18.3516 9.71341 18.3767 9.86529 18.3604 10.0184C18.3516 10.0975 18.3328 10.1778 18.2989 10.2557Z" fill="url(#paint11_linear_1951_440)"/>
<defs>
<linearGradient id="paint0_linear_1951_440" x1="17.6172" y1="14.7331" x2="23.2302" y2="14.7331" gradientUnits="userSpaceOnUse">
<stop stop-color="#BC2738"/>
<stop offset="1" stop-color="#6E1620"/>
</linearGradient>
<linearGradient id="paint1_linear_1951_440" x1="17.6172" y1="14.7331" x2="23.2302" y2="14.7331" gradientUnits="userSpaceOnUse">
<stop stop-color="#BC2738"/>
<stop offset="1" stop-color="#6E1620"/>
</linearGradient>
<linearGradient id="paint2_linear_1951_440" x1="7.9209" y1="11.7384" x2="20.199" y2="11.7384" gradientUnits="userSpaceOnUse">
<stop stop-color="#BC2738"/>
<stop offset="1" stop-color="#6E1620"/>
</linearGradient>
<linearGradient id="paint3_linear_1951_440" x1="7.9209" y1="11.7384" x2="20.199" y2="11.7384" gradientUnits="userSpaceOnUse">
<stop stop-color="#BC2738"/>
<stop offset="1" stop-color="#6E1620"/>
</linearGradient>
<linearGradient id="paint4_linear_1951_440" x1="18.2903" y1="9.5755" x2="18.2927" y2="9.5755" gradientUnits="userSpaceOnUse">
<stop stop-color="#BC2738"/>
<stop offset="1" stop-color="#6E1620"/>
</linearGradient>
<linearGradient id="paint5_linear_1951_440" x1="7" y1="18.3567" x2="25.031" y2="18.3567" gradientUnits="userSpaceOnUse">
<stop stop-color="#BC2738"/>
<stop offset="1" stop-color="#6E1620"/>
</linearGradient>
<linearGradient id="paint6_linear_1951_440" x1="10.8958" y1="14.2965" x2="12.9939" y2="14.2965" gradientUnits="userSpaceOnUse">
<stop stop-color="#BC2738"/>
<stop offset="1" stop-color="#6E1620"/>
</linearGradient>
<linearGradient id="paint7_linear_1951_440" x1="16.1672" y1="15.4915" x2="18.6513" y2="15.4915" gradientUnits="userSpaceOnUse">
<stop stop-color="#BC2738"/>
<stop offset="1" stop-color="#6E1620"/>
</linearGradient>
<linearGradient id="paint8_linear_1951_440" x1="16.166" y1="15.8809" x2="17.0649" y2="15.8809" gradientUnits="userSpaceOnUse">
<stop stop-color="#BC2738"/>
<stop offset="1" stop-color="#6E1620"/>
</linearGradient>
<linearGradient id="paint9_linear_1951_440" x1="16.166" y1="15.8809" x2="17.0649" y2="15.8809" gradientUnits="userSpaceOnUse">
<stop stop-color="#BC2738"/>
<stop offset="1" stop-color="#6E1620"/>
</linearGradient>
<linearGradient id="paint10_linear_1951_440" x1="17.0701" y1="10.5533" x2="22.0972" y2="10.5533" gradientUnits="userSpaceOnUse">
<stop stop-color="#BC2738"/>
<stop offset="1" stop-color="#6E1620"/>
</linearGradient>
<linearGradient id="paint11_linear_1951_440" x1="11.2473" y1="15.0616" x2="23.4265" y2="15.0616" gradientUnits="userSpaceOnUse">
<stop stop-color="#BC2738"/>
<stop offset="1" stop-color="#6E1620"/>
</linearGradient>
</defs>
</svg>
