<svg width="16" height="12" viewBox="0 0 16 12" fill="none" xmlns="http://www.w3.org/2000/svg">
<path d="M7.25112 9.60622C7.30882 9.6063 7.36594 9.61775 7.41921 9.6399C7.47249 9.66206 7.52088 9.6945 7.56163 9.73535C7.60237 9.77621 7.63466 9.8247 7.65667 9.87804C7.67867 9.93137 7.68996 9.98853 7.68987 10.0462C7.68979 10.1039 7.67835 10.161 7.65619 10.2143C7.63403 10.2676 7.6016 10.316 7.56074 10.3567C7.51988 10.3975 7.4714 10.4298 7.41806 10.4518C7.36472 10.4738 7.30757 10.4851 7.24987 10.485C7.13334 10.4848 7.02164 10.4384 6.93936 10.3559C6.85708 10.2733 6.81095 10.1615 6.81111 10.045C6.81128 9.92845 6.85773 9.81675 6.94025 9.73447C7.02276 9.65219 7.13459 9.60606 7.25112 9.60622ZM14.1412 6.8893C14.0835 6.88926 14.0264 6.87786 13.9731 6.85574C13.9198 6.83362 13.8714 6.80122 13.8306 6.76039C13.7899 6.71956 13.7575 6.6711 13.7355 6.61778C13.7134 6.56445 13.7021 6.50731 13.7022 6.44961C13.7022 6.39191 13.7136 6.33478 13.7357 6.28149C13.7578 6.22819 13.7902 6.17978 13.8311 6.13901C13.8719 6.09824 13.9204 6.06591 13.9737 6.04386C14.027 6.02182 14.0842 6.0105 14.1419 6.01054C14.2584 6.01062 14.3701 6.05699 14.4525 6.13945C14.5348 6.22191 14.581 6.3337 14.5809 6.45023C14.5808 6.56676 14.5345 6.67849 14.452 6.76083C14.3696 6.84317 14.2578 6.88939 14.1412 6.8893ZM14.1412 5.09177C13.781 5.0921 13.4355 5.23537 13.1808 5.49011C12.926 5.74486 12.7828 6.09028 12.7825 6.45054C12.7825 6.59617 12.8068 6.74117 12.8543 6.88243L8.36614 9.27184C8.24169 9.09114 8.07516 8.94341 7.88092 8.84139C7.68667 8.73937 7.47053 8.68611 7.25112 8.68621C6.73298 8.68621 6.2611 8.98309 6.03235 9.44622L2.00041 7.31993C1.57415 7.09618 1.2554 6.39492 1.28915 5.75616C1.30665 5.42303 1.42165 5.16427 1.59728 5.06427C1.70853 5.00177 1.84228 5.00677 1.98478 5.08115L2.01103 5.09552C3.0798 5.65803 6.57611 7.49994 6.72361 7.56806C6.95049 7.67369 7.07674 7.71619 7.46425 7.53244L14.6919 3.77363C14.7981 3.73363 14.9219 3.63175 14.9219 3.47737C14.9219 3.26362 14.7006 3.17924 14.7 3.17924C14.2887 2.98236 13.6568 2.68674 13.0406 2.39798C11.7231 1.7811 10.2299 1.08233 9.57428 0.738579C9.00802 0.442324 8.55239 0.692328 8.47114 0.742329L8.31363 0.820455C5.36234 2.27985 1.41227 4.23613 1.18727 4.37301C0.785389 4.61802 0.53601 5.10615 0.50351 5.71178C0.453509 6.67242 0.942892 7.67431 1.64353 8.0412L5.90735 10.24C5.95432 10.563 6.11593 10.8583 6.36265 11.0719C6.60937 11.2856 6.92473 11.4034 7.25112 11.4037C7.60758 11.4031 7.94957 11.2627 8.20355 11.0126C8.45753 10.7624 8.60321 10.4226 8.60927 10.0662L13.3056 7.52056C13.5431 7.70681 13.8387 7.80869 14.1412 7.80869C14.5015 7.80836 14.8469 7.6651 15.1017 7.41035C15.3564 7.1556 15.4997 6.81019 15.5 6.44992C15.4997 6.08965 15.3564 5.74424 15.1017 5.48949C14.8469 5.23474 14.5015 5.09148 14.1412 5.09115" fill="url(#paint0_linear_1951_468)"/>
<defs>
<linearGradient id="paint0_linear_1951_468" x1="0.5" y1="7.31797" x2="19.7105" y2="7.31797" gradientUnits="userSpaceOnUse">
<stop stop-color="#BC2738"/>
<stop offset="1" stop-color="#6E1620"/>
</linearGradient>
</defs>
</svg>
