<svg width="16" height="10" viewBox="0 0 16 10" fill="none" xmlns="http://www.w3.org/2000/svg">
<path d="M4.73913 1.41304C6.71685 1.41304 8.32609 3.02228 8.32609 5C8.32609 6.97771 6.71685 8.58695 4.73913 8.58695C2.76141 8.58695 1.15217 6.97771 1.15217 5C1.15217 3.02228 2.76141 1.41304 4.73913 1.41304ZM4.73913 0.760864C2.39783 0.760864 0.5 2.65869 0.5 5C0.5 7.3413 2.39783 9.23913 4.73913 9.23913C7.08043 9.23913 8.97826 7.3413 8.97826 5C8.97826 2.65869 7.08043 0.760864 4.73913 0.760864ZM11.4239 1.73913C12.1165 1.73913 12.8913 3.1338 12.8913 5C12.8913 6.86619 12.1165 8.26087 11.4239 8.26087C10.7313 8.26087 9.95652 6.86619 9.95652 5C9.95652 3.1338 10.7313 1.73913 11.4239 1.73913ZM11.4239 1.08695C10.2533 1.08695 9.30435 2.83902 9.30435 5C9.30435 7.16097 10.2533 8.91304 11.4239 8.91304C12.5946 8.91304 13.5435 7.16097 13.5435 5C13.5435 2.83902 12.5946 1.08695 11.4239 1.08695ZM14.6848 2.90554C14.7761 3.42108 14.8478 4.12836 14.8478 5C14.8478 5.87163 14.7761 6.57891 14.6848 7.09445C14.5935 6.57891 14.5217 5.87163 14.5217 5C14.5217 4.12836 14.5935 3.42108 14.6848 2.90554ZM14.6848 1.41304C14.2345 1.41304 13.8696 3.01902 13.8696 5C13.8696 6.98097 14.2345 8.58695 14.6848 8.58695C15.1351 8.58695 15.5 6.98097 15.5 5C15.5 3.01902 15.1351 1.41304 14.6848 1.41304Z" fill="url(#paint0_linear_1951_470)"/>
<defs>
<linearGradient id="paint0_linear_1951_470" x1="0.5" y1="6.03393" x2="19.7105" y2="6.03393" gradientUnits="userSpaceOnUse">
<stop stop-color="#BC2738"/>
<stop offset="1" stop-color="#6E1620"/>
</linearGradient>
</defs>
</svg>
