<svg xmlns="http://www.w3.org/2000/svg" width="1133" height="248" fill="none" xmlns:v="https://vecta.io/nano"><mask id="A" maskUnits="userSpaceOnUse" x="0" y="0" width="344" height="248"><path d="M171.751 148.232l59.985 99.083h-119.96l59.985-99.083h-.01zm-54.193-76.668L0 246.333h66.018l83.169-125.581-31.639-49.188h.01zm108.387 0l-31.639 49.188 83.169 125.581h66.018L225.935 71.564h.01zm-20.018-23.397L171.751 0l-34.176 48.177 34.176 52.437 34.176-52.437v-.01z" fill="#fff"/></mask><g mask="url(#A)"><path d="M343.502.027H0v247.315h343.502V.027z" fill="url(#B)"/></g><path d="M448.017 246.76c-9.096 0-17.3-1.546-24.612-4.637-7.252-3.092-13.257-7.491-18.013-13.198-4.696-5.766-7.758-12.573-9.184-20.421l16.407-2.586c2.081 8.085 6.391 14.417 12.93 18.994 6.599 4.518 14.357 6.777 23.275 6.777 5.766 0 10.968-.891 15.605-2.675 4.696-1.843 8.412-4.458 11.146-7.847s4.102-7.401 4.102-12.038c0-2.854-.505-5.291-1.516-7.313-.951-2.08-2.288-3.834-4.012-5.261-1.665-1.486-3.567-2.734-5.707-3.745s-4.37-1.843-6.688-2.497l-32.727-9.72a70.16 70.16 0 0 1-10.344-4.013c-3.329-1.664-6.301-3.715-8.917-6.153-2.616-2.496-4.697-5.469-6.242-8.917-1.546-3.507-2.319-7.639-2.319-12.395 0-7.609 1.962-14.089 5.886-19.44 3.983-5.409 9.363-9.541 16.14-12.395s14.416-4.25 22.917-4.191c8.62.06 16.319 1.605 23.096 4.637 6.837 2.973 12.484 7.253 16.943 12.841 4.518 5.588 7.55 12.276 9.096 20.064l-16.854 2.943c-.892-5.232-2.883-9.72-5.975-13.465-3.032-3.805-6.836-6.718-11.414-8.739-4.577-2.081-9.601-3.151-15.07-3.211-5.231-.059-9.958.773-14.178 2.497s-7.58 4.132-10.077 7.223c-2.497 3.032-3.745 6.54-3.745 10.523 0 3.923 1.129 7.104 3.388 9.541 2.259 2.378 5.024 4.281 8.293 5.707 3.329 1.368 6.569 2.497 9.72 3.389l24.434 7.045c2.794.772 6.004 1.843 9.63 3.21 3.686 1.367 7.253 3.299 10.701 5.796 3.448 2.437 6.302 5.707 8.561 9.809 2.259 4.043 3.388 9.155 3.388 15.338s-1.248 11.682-3.745 16.497c-2.437 4.815-5.856 8.858-10.255 12.127-4.399 3.211-9.512 5.648-15.338 7.313-5.826 1.724-12.068 2.586-18.726 2.586zm104.619-2.676V190.67l-43.249-74.995h18.459l32.816 56.803 32.726-56.803h18.459l-43.16 74.995v53.414h-16.051zm84.129 0V115.675h14.446l48.51 102.282 48.243-102.282h14.624v128.32h-15.07v-93.453l-43.605 93.542h-8.472l-43.605-93.542v93.542h-15.071zm163.312 0V115.675h14.446l48.51 102.282 48.243-102.282H925.9v128.32h-15.07v-93.453l-43.606 93.542h-8.471l-43.606-93.542v93.542h-15.07zm165.095 0V115.675h15.873v128.409h-15.873zm107.908 2.676c-12.79 0-23.63-2.824-32.55-8.472s-15.73-13.495-20.42-23.541c-4.64-10.047-6.96-21.67-6.96-34.867s2.32-24.82 6.96-34.867c4.69-10.047 11.5-17.894 20.42-23.542s19.76-8.471 32.55-8.471c12.84 0 23.72 2.824 32.63 8.471 8.92 5.648 15.7 13.495 20.33 23.542 4.64 10.047 6.96 21.669 6.96 34.867s-2.32 24.82-6.96 34.867c-4.63 10.046-11.41 17.894-20.33 23.541-8.91 5.648-19.79 8.472-32.63 8.472zm0-15.16c9.57.06 17.53-2.08 23.89-6.42 6.42-4.399 11.21-10.493 14.36-18.281 3.21-7.787 4.82-16.794 4.82-27.019 0-10.285-1.61-19.291-4.82-27.02-3.15-7.728-7.94-13.762-14.36-18.102-6.36-4.34-14.32-6.539-23.89-6.599-9.58-.059-17.54 2.081-23.9 6.421-6.3 4.34-11.06 10.403-14.27 18.191s-4.85 16.824-4.9 27.109c-.06 10.225 1.51 19.202 4.72 26.93s8 13.792 14.36 18.191c6.42 4.34 14.41 6.54 23.99 6.599z" fill="#fff"/><defs><linearGradient id="B" x1="165.173" y1="244.051" x2="169.329" y2="18.026" gradientUnits="userSpaceOnUse"><stop stop-color="#d4fdf9"/><stop offset=".276" stop-color="#d7c7c1"/><stop offset=".526" stop-color="#d9a199"/><stop offset=".784" stop-color="#f095a2"/><stop offset="1" stop-color="#dc756b"/></linearGradient></defs></svg>