<svg width="16" height="14" viewBox="0 0 16 14" fill="none" xmlns="http://www.w3.org/2000/svg">
<path d="M14.615 0.180203C14.4489 0.187492 14.2871 0.233735 14.1413 0.29214C13.9969 0.350154 13.1658 0.704884 11.9385 1.22961C10.7112 1.75435 9.1158 2.43766 7.53431 3.11523C4.37132 4.47036 1.26315 5.80372 1.26315 5.80372L1.28581 5.79506C1.28581 5.79506 1.09821 5.85776 0.908017 5.99028C0.81292 6.05654 0.71061 6.14208 0.626841 6.26679C0.543071 6.3915 0.48183 6.56825 0.504909 6.75519C0.585972 7.4118 1.26648 7.59805 1.26648 7.59805L1.26915 7.59938L4.30611 8.6388C4.38354 8.8971 5.22724 11.7131 5.41283 12.3094C5.51532 12.6391 5.61126 12.8293 5.71133 12.959C5.7614 13.024 5.81388 13.0742 5.8719 13.111C5.89496 13.1256 5.9192 13.1365 5.9432 13.1463H5.94453C5.94748 13.1476 5.95025 13.1477 5.95319 13.1489L5.9452 13.1469C5.95077 13.1492 5.95627 13.153 5.96185 13.1549C5.97268 13.1587 5.97931 13.1586 5.99317 13.1616C6.34098 13.283 6.62881 13.0577 6.62881 13.0577L6.64081 13.0483L8.50643 11.318L11.5341 13.6786L11.572 13.696C12.102 13.9313 12.5813 13.8 12.8467 13.584C13.1121 13.3681 13.2165 13.0896 13.2165 13.0896L13.2278 13.0603L15.4525 1.46482C15.5095 1.2054 15.5176 0.981162 15.4639 0.778534C15.4102 0.575907 15.2797 0.399765 15.1161 0.302135C14.9524 0.204504 14.7812 0.172913 14.615 0.180203ZM14.633 0.873814C14.7005 0.870689 14.7505 0.878403 14.7663 0.887806C14.782 0.89721 14.7891 0.895972 14.8042 0.953103C14.8194 1.01023 14.8276 1.13057 14.7862 1.3189L14.7849 1.3229L12.5728 12.8511C12.5676 12.8627 12.5215 12.9694 12.4162 13.055C12.3089 13.1424 12.1895 13.2105 11.8725 13.0776L8.56173 10.4958L8.46845 10.4225L8.46645 10.4245L7.47634 9.68155L13.0406 3.13521C13.0833 3.08504 13.1106 3.02356 13.1192 2.9582C13.1277 2.89284 13.1172 2.8264 13.0888 2.76692C13.0604 2.70743 13.0153 2.65745 12.9591 2.62301C12.9029 2.58857 12.8379 2.57115 12.772 2.57286C12.7076 2.57453 12.645 2.5944 12.5915 2.63016L4.53998 7.99782L1.49835 6.95641C1.49835 6.95641 1.19632 6.78833 1.18186 6.67123C1.18106 6.66474 1.1775 6.67062 1.19319 6.64725C1.20889 6.62388 1.24834 6.58443 1.2978 6.54997C1.39672 6.48104 1.50968 6.43936 1.50968 6.43936L1.52101 6.43536L1.53233 6.4307C1.53233 6.4307 4.64067 5.09727 7.80349 3.74221C9.3849 3.06467 10.98 2.38186 12.207 1.85726C13.4337 1.3328 14.3201 0.955291 14.3951 0.925119C14.4806 0.890903 14.5655 0.876939 14.633 0.873814ZM10.9431 4.54909L6.72343 9.51364L6.72143 9.51564C6.71484 9.52357 6.70861 9.5318 6.70277 9.54029C6.69608 9.54952 6.68985 9.55909 6.68412 9.56894C6.66041 9.60918 6.64521 9.65385 6.63947 9.7002C6.63947 9.70109 6.63947 9.70198 6.63947 9.70287L6.08978 12.1748C6.08064 12.1481 6.07424 12.1383 6.06446 12.1069V12.1062C5.88987 11.5452 5.09387 8.88949 4.98373 8.5222L10.9431 4.54909ZM7.19983 10.3272L7.95807 10.8962L6.84403 11.929L7.19983 10.3272Z" fill="url(#paint0_linear_1951_466)"/>
<defs>
<linearGradient id="paint0_linear_1951_466" x1="0.5" y1="8.66367" x2="19.7105" y2="8.66367" gradientUnits="userSpaceOnUse">
<stop stop-color="#BC2738"/>
<stop offset="1" stop-color="#6E1620"/>
</linearGradient>
</defs>
</svg>
