<svg width="16" height="14" viewBox="0 0 16 14" fill="none" xmlns="http://www.w3.org/2000/svg">
<path d="M6.9167 8.45977C6.63255 8.75606 6.35452 9.04406 6.07741 9.33325C4.70311 10.7679 3.33004 12.2036 1.95819 13.6402C1.85611 13.7472 1.75496 13.7937 1.60353 13.7884C1.25224 13.7777 0.900335 13.7851 0.5 13.7851L6.32846 7.69739L0.548432 0.226877C0.611885 0.221247 0.653574 0.214136 0.694956 0.214136C2.08458 0.214136 3.47421 0.213346 4.86384 0.211766C4.90849 0.208759 4.95315 0.217402 4.99317 0.236792C5.03318 0.256182 5.06707 0.285606 5.09129 0.321988C6.28739 1.8732 7.48574 3.42293 8.68633 4.97117C8.71975 5.01414 8.75469 5.05621 8.82642 5.1448C8.85339 5.09502 8.86719 5.0491 8.89723 5.01799C10.3917 3.45532 11.8864 1.89305 13.3812 0.331173C13.46 0.248506 13.5385 0.209395 13.6571 0.212654C13.979 0.220654 14.3008 0.215025 14.6227 0.215914C14.6711 0.215914 14.7196 0.220951 14.8017 0.225692L9.38891 5.87754L15.5 13.7765C15.4258 13.7801 15.3774 13.7848 15.3296 13.7848C13.9502 13.7848 12.5707 13.7857 11.1913 13.7875C11.1443 13.7911 11.0971 13.7824 11.0547 13.7623C11.0123 13.7422 10.9763 13.7115 10.9504 13.6734C9.65355 11.9914 8.35446 10.311 7.05311 8.63221C7.0105 8.5771 6.96667 8.52288 6.9167 8.45977ZM13.5618 12.8464C13.5112 12.7765 13.4784 12.7279 13.4428 12.6826C12.5625 11.5446 11.6819 10.4071 10.8011 9.27014C8.73425 6.59893 6.66821 3.92732 4.60298 1.25532C4.5786 1.21893 4.5446 1.18949 4.50451 1.17006C4.46441 1.15063 4.41967 1.14191 4.37491 1.1448C3.7925 1.14954 3.21008 1.14688 2.62766 1.14747C2.58536 1.14747 2.54306 1.15339 2.48451 1.15784C2.52037 1.20762 2.54245 1.24021 2.56666 1.27132L8.06069 8.37117C9.18568 9.8252 10.3115 11.2786 11.4381 12.7315C11.4783 12.783 11.5537 12.8408 11.6131 12.8417C12.2513 12.8497 12.8895 12.8464 13.5618 12.8464Z" fill="url(#paint0_linear_1951_437)"/>
<defs>
<linearGradient id="paint0_linear_1951_437" x1="0.5" y1="8.65578" x2="19.7105" y2="8.65578" gradientUnits="userSpaceOnUse">
<stop stop-color="#BC2738"/>
<stop offset="1" stop-color="#6E1620"/>
</linearGradient>
</defs>
</svg>
